<svg width="77" height="78" viewBox="0 0 77 78" fill="none" xmlns="http://www.w3.org/2000/svg">
<path d="M77 43.2287C77 40.263 74.9393 37.7806 72.1725 37.1293C68.5334 22.7152 54.818 11.9668 38.5 11.9668C12.2869 11.9668 5.11469 34.4175 4.50532 37.2144C1.90206 37.9759 0 40.3794 0 43.2287C0 46.69 2.80574 49.4963 6.26714 49.4963C9.72874 49.4963 12.5345 46.69 12.5345 43.2287C12.5345 40.9761 11.3451 39.002 9.56103 37.8975C9.56103 37.8975 12.959 24.0281 27.7556 24.0281C36.7276 24.0281 44.2596 29.8922 46.2197 37.7398C44.2865 38.807 42.9771 40.8645 42.9771 43.2287C42.9771 46.69 45.7828 49.4963 49.2442 49.4963C52.7058 49.4963 55.5114 46.69 55.5114 43.2287C55.5114 40.3794 53.6097 37.9761 51.0062 37.2144C48.7755 26.9741 39.1981 19.2527 27.7556 19.2527C27.1712 19.2527 26.5914 19.2736 26.0172 19.3132C29.8171 17.664 34.0456 16.7418 38.5 16.7418C52.4363 16.7418 64.1708 25.7552 67.4388 37.8972C65.6549 39.0016 64.4655 40.9759 64.4655 43.2285C64.4655 45.4918 65.6658 47.4745 67.4639 48.5765C65.0345 55.7599 57.8466 60.9816 49.3791 60.9816C40.8558 60.9816 33.6293 55.6904 31.247 48.4333C32.9208 47.3083 34.0223 45.3969 34.0223 43.2285C34.0223 39.7671 31.2166 36.961 27.755 36.961C24.2936 36.961 21.4879 39.7671 21.4879 43.2285C21.4879 46.2729 23.6591 48.8087 26.5365 49.376C29.3631 58.82 38.5338 65.7571 49.3793 65.7571C60.2495 65.7571 69.4361 58.7887 72.2399 49.3122C74.9734 48.6372 77 46.1699 77 43.2287Z" fill="#0F1C29"/>
</svg>
