<svg width="96" height="92" viewBox="0 0 96 92" fill="none" xmlns="http://www.w3.org/2000/svg">
<path d="M36.2551 30.7485L30.5001 25.3095C31.1704 24.0917 31.5851 22.7128 31.5851 21.2253C31.5851 16.5109 27.7665 12.6924 23.0502 12.6924C18.3338 12.6924 14.5092 16.5089 14.5092 21.2253C14.5092 25.9416 18.3338 29.7622 23.0502 29.7622C24.7129 29.7622 26.2508 29.267 27.5632 28.4457L33.3102 33.8786C34.1797 32.7292 35.16 31.6765 36.2551 30.7485Z" fill="white"/>
<path d="M60.5977 30.0681L68.2448 17.1994C68.9977 17.4148 69.7787 17.5698 70.598 17.5698C75.3223 17.5698 79.1409 13.7492 79.1409 9.03287C79.1409 4.31856 75.3223 0.5 70.598 0.5C65.8816 0.5 62.0651 4.31654 62.0651 9.03287C62.0651 11.3739 63.0092 13.4895 64.535 15.0335L56.912 27.866C58.2224 28.4598 59.4583 29.2006 60.5977 30.0681Z" fill="white"/>
<path d="M86.9713 40.8413C83.2997 40.8413 80.1897 43.1743 78.9839 46.4272L68.3596 45.3785C68.3596 45.459 68.3717 45.5355 68.3717 45.614C68.3717 46.9989 68.2187 48.3516 67.9429 49.658L78.5632 50.7068C79.2053 54.781 82.7139 57.905 86.9713 57.905C91.6856 57.905 95.5021 54.0885 95.5021 49.3742C95.5021 44.6619 91.6856 40.8413 86.9713 40.8413Z" fill="white"/>
<path d="M57.6527 74.4012L55.2774 64.0225C53.9368 64.4895 52.5418 64.8236 51.0865 64.9907L53.4658 75.3714C50.7382 76.7986 48.8561 79.6188 48.8561 82.9119C48.8561 87.6263 52.6727 91.4408 57.397 91.4408C62.1114 91.4408 65.9279 87.6242 65.9279 82.9119C65.9339 78.2842 62.2462 74.5381 57.6527 74.4012Z" fill="white"/>
<path d="M29.7936 49.7344L16.5685 54.1649C15.0427 51.8339 12.4158 50.2879 9.42658 50.2879C4.71025 50.2879 0.893707 54.1065 0.893707 58.8208C0.893707 63.5412 4.71025 67.3597 9.42658 67.3597C14.1389 67.3597 17.9655 63.5412 17.9655 58.8208C17.9655 58.6235 17.9232 58.4424 17.9071 58.2491L31.1744 53.8066C30.5766 52.5163 30.1015 51.1575 29.7936 49.7344Z" fill="white"/>
<path d="M48.8622 60.2503C56.9455 60.2503 63.4983 53.6975 63.4983 45.6141C63.4983 37.5308 56.9455 30.978 48.8622 30.978C40.7789 30.978 34.226 37.5308 34.226 45.6141C34.226 53.6975 40.7789 60.2503 48.8622 60.2503Z" fill="white"/>
</svg>
