<svg width="30" height="33" viewBox="0 0 30 33" fill="none" xmlns="http://www.w3.org/2000/svg">
<path d="M3.08569 2.125H4.14819V3.1875H3.08569V2.125Z" fill="#0F1C29"/>
<path d="M5.21069 2.125H6.27319V3.1875H5.21069V2.125Z" fill="#0F1C29"/>
<path d="M28.5857 25.5V23.375C28.5857 22.9835 28.3705 22.6445 28.0544 22.4602V21.25C28.0544 20.8585 27.8393 20.5195 27.5232 20.3352V5.57812C27.5232 2.50219 25.021 0 21.9451 0C18.8691 0 16.3669 2.50219 16.3669 5.57812V24.7031C16.3669 27.4858 14.1028 29.75 11.3201 29.75C8.53738 29.75 6.27319 27.4858 6.27319 24.7031V15.7898C6.58929 15.6055 6.80444 15.2665 6.80444 14.875V11.6875C7.68313 11.6875 8.39819 10.9724 8.39819 10.0938V7.4375C8.69144 7.4375 8.92944 7.1995 8.92944 6.90625V4.78125C8.92944 4.488 8.69144 4.25 8.39819 4.25V0.53125C8.39819 0.238 8.16019 0 7.86694 0H1.49194C1.19869 0 0.960693 0.238 0.960693 0.53125V4.25C0.667443 4.25 0.429443 4.488 0.429443 4.78125V6.90625C0.429443 7.1995 0.667443 7.4375 0.960693 7.4375V10.0938C0.960693 10.9724 1.67576 11.6875 2.55444 11.6875V14.875C2.55444 15.2665 2.7696 15.6055 3.08569 15.7898V24.7031C3.08569 29.2437 6.77947 32.9375 11.3201 32.9375C15.8607 32.9375 19.5544 29.2437 19.5544 24.7031V5.57812C19.5544 4.26009 20.627 3.1875 21.9451 3.1875C23.2631 3.1875 24.3357 4.26009 24.3357 5.57812V20.3352C24.0196 20.5195 23.8044 20.8585 23.8044 21.25V22.4602C23.4883 22.6445 23.2732 22.9835 23.2732 23.375V25.5C22.9799 25.5 22.7419 25.738 22.7419 26.0312V28.1562C22.7419 28.4495 22.9799 28.6875 23.2732 28.6875V32.4062C23.2732 32.6995 23.5112 32.9375 23.8044 32.9375H28.0544C28.3477 32.9375 28.5857 32.6995 28.5857 32.4062V28.6875C28.8789 28.6875 29.1169 28.4495 29.1169 28.1562V26.0312C29.1169 25.738 28.8789 25.5 28.5857 25.5ZM26.9919 21.25V22.3125H24.8669V21.25H26.9919ZM3.61694 14.875V13.8125H5.74194V14.875H3.61694ZM1.49194 6.375V5.3125H7.86694V6.375H1.49194ZM2.02319 1.0625H7.33569V4.25H2.02319V1.0625ZM2.02319 10.0938V7.4375H7.33569V10.0938C7.33569 10.3865 7.09716 10.625 6.80444 10.625H2.55444C2.26172 10.625 2.02319 10.3865 2.02319 10.0938ZM5.74194 11.6875V12.75H3.61694V11.6875H5.74194ZM21.9451 2.125C20.0411 2.125 18.4919 3.67412 18.4919 5.57812V24.7031C18.4919 28.6577 15.2747 31.875 11.3201 31.875C7.36544 31.875 4.14819 28.6577 4.14819 24.7031V15.9375H5.21069V24.7031C5.21069 28.0718 7.95141 30.8125 11.3201 30.8125C14.6887 30.8125 17.4294 28.0718 17.4294 24.7031V5.57812C17.4294 3.08816 19.4551 1.0625 21.9451 1.0625C24.435 1.0625 26.4607 3.08816 26.4607 5.57812V20.1875H25.3982V5.57812C25.3982 3.67412 23.8491 2.125 21.9451 2.125ZM24.3357 23.375H27.5232V25.5H24.3357V23.375ZM28.0544 27.625H23.8044V26.5625H28.0544V27.625ZM27.5232 31.875H24.3357V28.6875H27.5232V31.875Z" fill="#0F1C29"/>
<path d="M25.3982 29.75H26.4607V30.8125H25.3982V29.75Z" fill="#0F1C29"/>
<path d="M3.08569 7.96875H4.14819V10.0938H3.08569V7.96875Z" fill="#0F1C29"/>
<path d="M5.21069 7.96875H6.27319V10.0938H5.21069V7.96875Z" fill="#0F1C29"/>
</svg>
