<svg width="31" height="29" viewBox="0 0 31 29" fill="none" xmlns="http://www.w3.org/2000/svg">
<path d="M17.3666 10.1698H17.0005C16.9769 10.1048 16.9473 10.034 16.9178 9.969L17.1777 9.70916C17.5556 9.33121 17.5556 8.71704 17.1777 8.33908L15.8076 6.969C15.4296 6.59105 14.8154 6.59105 14.4375 6.969L14.1777 7.22885C14.1127 7.19932 14.0418 7.16979 13.9769 7.14617V6.78003C13.9769 6.24853 13.5399 5.81152 13.0084 5.81152H11.0714C10.5399 5.81152 10.1028 6.24263 10.1028 6.78003V7.14617C10.0379 7.16979 9.96702 7.19932 9.90206 7.22885L9.64222 6.969C9.26427 6.59105 8.65009 6.59105 8.27214 6.969L6.90206 8.33908C6.52411 8.71704 6.52411 9.33121 6.90206 9.70916L7.16781 9.969C7.13828 10.034 7.10876 10.1048 7.08513 10.1698H6.71899C6.1875 10.1698 5.75049 10.6009 5.75049 11.1383V13.0753C5.75049 13.6068 6.1875 14.0438 6.71899 14.0438H7.08513C7.10876 14.1088 7.13828 14.1796 7.16781 14.2446L6.90797 14.5044C6.53002 14.8824 6.53002 15.4966 6.90797 15.8745L8.27805 17.2446C8.656 17.6225 9.27017 17.6225 9.64813 17.2446L9.90797 16.9848C9.97293 17.0143 10.0438 17.0438 10.1088 17.0674V17.4336C10.1088 17.9651 10.5458 18.4021 11.0773 18.4021H13.0084C13.5399 18.4021 13.9769 17.971 13.9769 17.4336V17.0674C14.0418 17.0438 14.1127 17.0143 14.1777 16.9848L14.4375 17.2446C14.8154 17.6225 15.4296 17.6225 15.8076 17.2446L17.1777 15.8745C17.5556 15.4966 17.5556 14.8824 17.1777 14.5044L16.9178 14.2446C16.9473 14.1796 16.9769 14.1088 17.0005 14.0438H17.3666C17.8981 14.0438 18.3351 13.6127 18.3351 13.0753V11.1383C18.3351 10.6068 17.8981 10.1698 17.3666 10.1698ZM17.3607 13.0694H16.2977L16.1914 13.406C16.1206 13.6422 16.0202 13.8785 15.8962 14.1088L15.7308 14.4218L16.4808 15.1718L15.1107 16.5418L14.3666 15.7977L14.0536 15.9631C13.8174 16.0871 13.5812 16.1816 13.3509 16.2584L13.0143 16.3647V17.4277H11.0773V16.3647L10.7406 16.2584C10.5044 16.1875 10.2682 16.0871 10.0379 15.9631L9.7249 15.7977L8.96899 16.5536L7.59891 15.1836L8.34891 14.4336L8.18356 14.1206C8.05954 13.8844 7.95915 13.6481 7.88828 13.4178L7.78198 13.0812H6.71899V11.1442H7.78198L7.88828 10.8076C7.95915 10.5714 8.05954 10.3351 8.18356 10.1048L8.34891 9.79184L7.59891 9.04184L8.96309 7.65404L9.71309 8.40995L10.0261 8.24459C10.2623 8.12058 10.4985 8.02609 10.7288 7.94932L11.0654 7.84302V6.78003H13.0084V7.84302L13.345 7.94932C13.5812 8.02018 13.8174 8.12058 14.0477 8.24459L14.3607 8.40995L15.1107 7.65995L16.4808 9.03003L15.7308 9.78003L15.8962 10.093C16.0202 10.3292 16.1206 10.5655 16.1914 10.7958L16.2977 11.1324H17.3607V13.0694Z" fill="#0F1C29"/>
<path d="M12.0399 8.71094C10.1679 8.71094 8.65015 10.2287 8.65015 12.1007C8.65015 13.9727 10.1738 15.4905 12.0399 15.4905C13.9061 15.4905 15.4297 13.9727 15.4297 12.1007C15.4297 10.2287 13.912 8.71094 12.0399 8.71094ZM12.0399 14.5279C10.7053 14.5279 9.61865 13.4413 9.61865 12.1066C9.61865 10.772 10.7112 9.68535 12.0399 9.68535C13.3746 9.68535 14.4612 10.772 14.4612 12.1066C14.4612 13.4413 13.3746 14.5279 12.0399 14.5279Z" fill="#0F1C29"/>
<path d="M20.7502 2.4209C19.6813 2.4209 18.8132 3.28901 18.8132 4.35791C18.8132 5.4268 19.6872 6.29491 20.7502 6.29491C21.8191 6.29491 22.6872 5.4268 22.6872 4.35791C22.6872 3.28901 21.8191 2.4209 20.7502 2.4209ZM20.7502 5.32641C20.2187 5.32641 19.7817 4.89531 19.7817 4.35791C19.7817 3.8205 20.2187 3.3894 20.7502 3.3894C21.2817 3.3894 21.7187 3.8205 21.7187 4.35791C21.7187 4.89531 21.2817 5.32641 20.7502 5.32641Z" fill="#0F1C29"/>
<path d="M25.1086 3.87402V3.71457C25.1086 3.27165 24.7483 2.90551 24.2995 2.90551H24.2523L24.2877 2.87598C24.4413 2.72244 24.5239 2.52165 24.5239 2.30315C24.5239 2.08465 24.4413 1.88386 24.2877 1.73031L23.3783 0.820866C23.0712 0.51378 22.5397 0.51378 22.2385 0.820866L22.209 0.850394V0.809055C22.209 0.366142 21.8487 0 21.3999 0H20.1125C19.6696 0 19.3035 0.360236 19.3035 0.809055V0.850394L19.2739 0.820866C19.1204 0.667323 18.9196 0.584646 18.707 0.584646C18.4944 0.584646 18.2877 0.667323 18.1342 0.820866L17.2188 1.73031C17.0653 1.88386 16.9826 2.08465 16.9826 2.30315C16.9826 2.52165 17.0653 2.72244 17.2188 2.87598L17.2483 2.90551H17.2011C16.7582 2.90551 16.392 3.26575 16.392 3.71457V3.87402H0.429443V24.1949H9.62433V27.1004H5.75031V28.0689H9.61842H21.2287H25.0968V27.1004H21.2287V24.1949H30.4294V3.87402H25.1086ZM17.3665 3.87402H18.0279L18.1342 3.5374C18.1814 3.38976 18.2405 3.24213 18.3172 3.09449L18.4826 2.7815L18.0161 2.30905L18.7011 1.62402L19.1735 2.09646L19.4865 1.9311C19.6342 1.85433 19.7818 1.78937 19.9294 1.74803L20.2661 1.64173V0.974409H21.2346V1.63583L21.5712 1.74213C21.7188 1.78937 21.8665 1.84843 22.0141 1.9252L22.3271 2.09055L22.7995 1.61811L23.4846 2.30315L23.0121 2.77559L23.1775 3.08858C23.2542 3.23622 23.3192 3.38386 23.3605 3.5315L23.4668 3.86811H24.1342V4.83661H23.4668L23.3605 5.17323C23.3133 5.32087 23.2542 5.4685 23.1775 5.61614L23.0121 5.92913L23.4846 6.40157L22.7995 7.08661L22.3271 6.61417L22.0141 6.77953C21.8665 6.8563 21.7188 6.92126 21.5712 6.9626L21.2346 7.0689V7.73622H20.2661V7.0689L19.9294 6.9626C19.7818 6.91535 19.6342 6.8563 19.4865 6.77953L19.1735 6.61417L18.7011 7.08661L18.0161 6.40157L18.4885 5.92913L18.3231 5.61614C18.2464 5.4685 18.1814 5.32087 18.1401 5.17323L18.0338 4.83661H17.3665V3.87402ZM20.272 27.1004H20.2661H10.5928V24.1949H20.272V27.1004ZM29.4609 23.2323H21.2346H9.62433H1.39795V20.3268H29.4609V23.2323ZM29.4609 19.3642H1.39795V4.84252H16.3979V5.00197C16.3979 5.44488 16.7582 5.81102 17.207 5.81102H17.2483L17.2188 5.84055C17.0653 5.99409 16.9826 6.19488 16.9826 6.41339C16.9826 6.63189 17.0653 6.83268 17.2188 6.98622L18.1342 7.90157C18.4413 8.20275 18.9728 8.20275 19.2739 7.90157L19.3035 7.87205V7.91339C19.3035 8.3563 19.6637 8.72244 20.1125 8.72244H21.3999C21.8428 8.72244 22.209 8.3622 22.209 7.91339V7.87205L22.2385 7.90157C22.5456 8.20866 23.0771 8.20866 23.3783 7.90157L24.2877 6.99213C24.4413 6.83858 24.5239 6.6378 24.5239 6.41929C24.5239 6.20669 24.4413 6 24.2877 5.84646L24.2582 5.81693H24.2995C24.7424 5.81693 25.1086 5.45669 25.1086 5.00787V4.84842H29.4609V19.3642Z" fill="#0F1C29"/>
<path d="M15.9136 21.2949H14.9451V22.2634H15.9136V21.2949Z" fill="#0F1C29"/>
<path d="M17.8508 21.2949H16.8823V22.2634H17.8508V21.2949Z" fill="#0F1C29"/>
<path d="M13.9768 21.2949H13.0083V22.2634H13.9768V21.2949Z" fill="#0F1C29"/>
<path d="M6.24035 6.29492H2.85059V7.26343H6.24035V6.29492Z" fill="#0F1C29"/>
<path d="M4.78759 8.23242H2.85059V9.20093H4.78759V8.23242Z" fill="#0F1C29"/>
<path d="M27.5299 16.9434H24.1401V17.9119H27.5299V16.9434Z" fill="#0F1C29"/>
<path d="M27.5298 15.0059H25.5928V15.9744H27.5298V15.0059Z" fill="#0F1C29"/>
</svg>
