<svg width="32" height="32" viewBox="0 0 32 32" fill="none" xmlns="http://www.w3.org/2000/svg">
<path d="M31.0353 10.4396C31.1398 10.4396 31.2401 10.3981 31.314 10.3242C31.3879 10.2502 31.4294 10.15 31.4294 10.0455C31.4294 9.94093 31.3879 9.84067 31.314 9.76676C31.2401 9.69284 31.1398 9.65132 31.0353 9.65132H26.8997V7.43796C26.9023 7.0982 26.8373 6.76131 26.7084 6.4469C26.5796 6.13249 26.3896 5.84683 26.1493 5.60656C25.9091 5.36628 25.6235 5.17618 25.3091 5.04732C24.9947 4.91846 24.6578 4.85341 24.318 4.85595H22.1043V0.720311C22.1043 0.615779 22.0628 0.515528 21.9889 0.441613C21.9149 0.367697 21.8147 0.326172 21.7102 0.326172C21.6056 0.326172 21.5054 0.367697 21.4315 0.441613C21.3575 0.515528 21.316 0.615779 21.316 0.720311V4.85595H16.3236V0.720311C16.3236 0.615779 16.2821 0.515528 16.2081 0.441613C16.1342 0.367697 16.034 0.326172 15.9294 0.326172C15.8249 0.326172 15.7247 0.367697 15.6507 0.441613C15.5768 0.515528 15.5353 0.615779 15.5353 0.720311V4.85595H10.5429V0.720311C10.5429 0.615779 10.5013 0.515528 10.4274 0.441613C10.3535 0.367697 10.2533 0.326172 10.1487 0.326172C10.0442 0.326172 9.94395 0.367697 9.87003 0.441613C9.79611 0.515528 9.75459 0.615779 9.75459 0.720311V4.85595H7.54117C7.20137 4.85336 6.86446 4.91838 6.55003 5.04723C6.2356 5.17607 5.94994 5.36616 5.70966 5.60644C5.46939 5.84672 5.27931 6.13239 5.15047 6.44682C5.02164 6.76125 4.95663 7.09817 4.95922 7.43796V9.65132H0.823583C0.719051 9.65132 0.6188 9.69284 0.544884 9.76676C0.470969 9.84067 0.429443 9.94093 0.429443 10.0455C0.429443 10.15 0.470969 10.2502 0.544884 10.3242C0.6188 10.3981 0.719051 10.4396 0.823583 10.4396H4.95922V15.432H0.823583C0.719051 15.432 0.6188 15.4736 0.544884 15.5475C0.470969 15.6214 0.429443 15.7216 0.429443 15.8262C0.429443 15.9307 0.470969 16.031 0.544884 16.1049C0.6188 16.1788 0.719051 16.2203 0.823583 16.2203H4.95922V21.2127H0.823583C0.719051 21.2127 0.6188 21.2543 0.544884 21.3282C0.470969 21.4021 0.429443 21.5024 0.429443 21.6069C0.429443 21.7114 0.470969 21.8117 0.544884 21.8856C0.6188 21.9595 0.719051 22.001 0.823583 22.001H4.95922V24.2144C4.95663 24.5542 5.02164 24.8911 5.15047 25.2055C5.27931 25.52 5.46939 25.8056 5.70966 26.0459C5.94994 26.2862 6.2356 26.4763 6.55003 26.6051C6.86446 26.734 7.20137 26.799 7.54117 26.7964H9.75459V30.932C9.75459 31.0366 9.79611 31.1368 9.87003 31.2107C9.94395 31.2846 10.0442 31.3262 10.1487 31.3262C10.2533 31.3262 10.3535 31.2846 10.4274 31.2107C10.5013 31.1368 10.5429 31.0366 10.5429 30.932V26.7964H15.5353V30.932C15.5353 31.0366 15.5768 31.1368 15.6507 31.2107C15.7247 31.2846 15.8249 31.3262 15.9294 31.3262C16.034 31.3262 16.1342 31.2846 16.2081 31.2107C16.2821 31.1368 16.3236 31.0366 16.3236 30.932V26.7964H21.316V30.932C21.316 31.0366 21.3575 31.1368 21.4315 31.2107C21.5054 31.2846 21.6056 31.3262 21.7102 31.3262C21.8147 31.3262 21.9149 31.2846 21.9889 31.2107C22.0628 31.1368 22.1043 31.0366 22.1043 30.932V26.7964H24.318C24.6578 26.7989 24.9947 26.7339 25.3091 26.605C25.6235 26.4762 25.9091 26.2861 26.1493 26.0458C26.3896 25.8055 26.5796 25.5199 26.7084 25.2054C26.8373 24.891 26.9023 24.5541 26.8997 24.2144V22.001H31.0353C31.1398 22.001 31.2401 21.9595 31.314 21.8856C31.3879 21.8117 31.4294 21.7114 31.4294 21.6069C31.4294 21.5024 31.3879 21.4021 31.314 21.3282C31.2401 21.2543 31.1398 21.2127 31.0353 21.2127H26.8997V16.2203H31.0353C31.1398 16.2203 31.2401 16.1788 31.314 16.1049C31.3879 16.031 31.4294 15.9307 31.4294 15.8262C31.4294 15.7216 31.3879 15.6214 31.314 15.5475C31.2401 15.4736 31.1398 15.432 31.0353 15.432H26.8997V10.4396H31.0353ZM24.318 26.0081H21.764C21.7487 26.0081 21.7332 26.0052 21.7174 26.0052C21.7017 26.0052 21.6862 26.0081 21.6709 26.0081H15.976C15.9606 26.0081 15.9452 26.0052 15.9294 26.0052C15.9137 26.0052 15.8982 26.0081 15.8829 26.0081H10.1881C10.1728 26.0081 10.1574 26.0052 10.1416 26.0052C10.1259 26.0052 10.1104 26.0081 10.0951 26.0081H7.54117C7.30487 26.0108 7.07042 25.9662 6.85158 25.877C6.63275 25.7878 6.43394 25.6558 6.26685 25.4887C6.09975 25.3216 5.96774 25.1228 5.87855 24.904C5.78936 24.6851 5.74481 24.4507 5.7475 24.2144V21.6604C5.7475 21.6453 5.75046 21.6299 5.75046 21.6144C5.75046 21.599 5.7475 21.5834 5.7475 21.5685V15.8731C5.7475 15.8579 5.75046 15.8425 5.75046 15.8272C5.75046 15.8118 5.7475 15.7961 5.7475 15.7808V10.0855C5.7475 10.0703 5.75046 10.0549 5.75046 10.0395C5.75046 10.0242 5.7475 10.0085 5.7475 9.99356V7.43796C5.74481 7.20166 5.78936 6.96721 5.87855 6.74837C5.96774 6.52953 6.09975 6.33073 6.26685 6.16362C6.43394 5.99652 6.63275 5.8645 6.85158 5.7753C7.07042 5.68611 7.30487 5.64155 7.54117 5.64423H10.0949C10.1102 5.64423 10.1257 5.64719 10.1414 5.64719C10.1572 5.64719 10.1726 5.64423 10.1879 5.64423H15.8833C15.8986 5.64423 15.914 5.64719 15.9298 5.64719C15.9455 5.64719 15.961 5.64423 15.9763 5.64423H21.6716C21.6869 5.64423 21.7023 5.64719 21.7181 5.64719C21.7339 5.64719 21.7493 5.64423 21.7646 5.64423H24.318C24.5543 5.64159 24.7887 5.68619 25.0075 5.7754C25.2263 5.86461 25.4251 5.99665 25.5922 6.16374C25.7592 6.33084 25.8912 6.52963 25.9804 6.74845C26.0695 6.96727 26.1141 7.20169 26.1114 7.43796V9.99192C26.1114 10.0071 26.1084 10.0225 26.1084 10.0379C26.1084 10.0533 26.1114 10.069 26.1114 10.0839V15.7792C26.1114 15.7944 26.1084 15.8098 26.1084 15.8255C26.1084 15.8412 26.1114 15.8566 26.1114 15.8715V21.5668C26.1114 21.5821 26.1084 21.5974 26.1084 21.6128C26.1084 21.6282 26.1114 21.6439 26.1114 21.6588V24.2127C26.1143 24.4491 26.0699 24.6838 25.9809 24.9028C25.8918 25.1218 25.7598 25.3208 25.5927 25.488C25.4257 25.6553 25.2268 25.7875 25.0079 25.8768C24.789 25.9661 24.5545 26.0108 24.318 26.0081Z" fill="#0F1C29"/>
<path d="M24.4036 7.81211C24.4036 7.70758 24.362 7.60732 24.2881 7.53341C24.2142 7.45949 24.1139 7.41797 24.0094 7.41797H7.91538C7.81085 7.41797 7.7106 7.45949 7.63668 7.53341C7.56277 7.60732 7.52124 7.70758 7.52124 7.81211V23.9061C7.52124 24.0107 7.56277 24.1109 7.63668 24.1848C7.7106 24.2588 7.81085 24.3003 7.91538 24.3003H24.0094C24.1139 24.3003 24.2142 24.2588 24.2881 24.1848C24.362 24.1109 24.4036 24.0107 24.4036 23.9061V7.81211ZM23.5496 23.4463H8.30952V8.20625H23.5496V23.4463Z" fill="#0F1C29"/>
<path d="M15.9293 14.5068C15.2651 14.5068 14.6157 14.7038 14.0634 15.0728C13.5111 15.4419 13.0807 15.9664 12.8265 16.5801C12.5723 17.1938 12.5057 17.8691 12.6353 18.5206C12.7649 19.1721 13.0848 19.7705 13.5545 20.2402C14.0242 20.7099 14.6226 21.0298 15.2741 21.1594C15.9256 21.2889 16.6009 21.2224 17.2146 20.9682C17.8283 20.714 18.3528 20.2836 18.7219 19.7313C19.0909 19.179 19.2879 18.5296 19.2879 17.8654C19.2868 16.9749 18.9327 16.1213 18.303 15.4917C17.6734 14.862 16.8198 14.5079 15.9293 14.5068ZM15.9293 20.4356C15.421 20.4356 14.9241 20.2849 14.5014 20.0024C14.0787 19.72 13.7493 19.3186 13.5547 18.849C13.3602 18.3793 13.3093 17.8625 13.4085 17.3639C13.5076 16.8654 13.7524 16.4074 14.1119 16.0479C14.4713 15.6885 14.9293 15.4437 15.4279 15.3445C15.9265 15.2453 16.4433 15.2962 16.9129 15.4908C17.3826 15.6853 17.784 16.0147 18.0664 16.4374C18.3488 16.8601 18.4996 17.357 18.4996 17.8654C18.4988 18.5468 18.2278 19.2001 17.7459 19.6819C17.2641 20.1638 16.6108 20.4348 15.9293 20.4356Z" fill="#0F1C29"/>
<path d="M15.9294 16.9434C15.7265 16.9432 15.5295 17.0118 15.3706 17.138C15.2117 17.2642 15.1003 17.4406 15.0546 17.6383C15.0088 17.8359 15.0315 18.0433 15.1188 18.2265C15.2061 18.4096 15.3529 18.5578 15.5352 18.6468V19.0451C15.5352 19.1496 15.5768 19.2499 15.6507 19.3238C15.7246 19.3977 15.8248 19.4393 15.9294 19.4393C16.0339 19.4393 16.1342 19.3977 16.2081 19.3238C16.282 19.2499 16.3235 19.1496 16.3235 19.0451V18.6468C16.5059 18.5578 16.6527 18.4096 16.74 18.2265C16.8273 18.0433 16.8499 17.8359 16.8042 17.6383C16.7584 17.4406 16.647 17.2642 16.4881 17.138C16.3293 17.0118 16.1323 16.9432 15.9294 16.9434ZM15.9294 17.7316C15.9511 17.7316 15.9723 17.738 15.9903 17.7501C16.0084 17.7621 16.0224 17.7793 16.0307 17.7993C16.039 17.8193 16.0412 17.8414 16.037 17.8626C16.0328 17.8839 16.0223 17.9035 16.007 17.9188C15.9916 17.9341 15.9721 17.9446 15.9508 17.9488C15.9295 17.953 15.9075 17.9509 15.8875 17.9426C15.8674 17.9342 15.8503 17.9202 15.8383 17.9021C15.8262 17.8841 15.8198 17.8629 15.8198 17.8412C15.8198 17.8122 15.8314 17.7843 15.8519 17.7638C15.8725 17.7432 15.9003 17.7317 15.9294 17.7316Z" fill="#0F1C29"/>
<path d="M15.9293 22.705C16.5638 22.704 17.1919 22.578 17.7777 22.3342C18.3634 22.0904 18.8955 21.7337 19.3434 21.2843C19.7913 20.8349 20.1462 20.3016 20.3881 19.715C20.6299 19.1284 20.7538 18.4999 20.7527 17.8655C20.7527 16.8412 20.4619 15.891 19.8707 15.108V12.9221C19.8707 10.7309 18.1205 8.94824 15.9293 8.94824C13.7382 8.94824 11.9879 10.7309 11.9879 12.9221V15.108C11.3967 15.891 11.106 16.8412 11.106 17.8655C11.1049 18.4999 11.2288 19.1284 11.4706 19.715C11.7124 20.3016 12.0674 20.8349 12.5153 21.2843C12.9632 21.7337 13.4952 22.0904 14.081 22.3342C14.6668 22.578 15.2948 22.704 15.9293 22.705ZM15.9293 21.9168C15.128 21.9168 14.3448 21.6792 13.6785 21.234C13.0123 20.7888 12.493 20.1561 12.1864 19.4158C11.8798 18.6755 11.7995 17.861 11.9559 17.0751C12.1122 16.2892 12.498 15.5673 13.0646 15.0008C13.6312 14.4342 14.3531 14.0483 15.1389 13.892C15.9248 13.7357 16.7394 13.8159 17.4797 14.1225C18.22 14.4292 18.8527 14.9484 19.2978 15.6147C19.743 16.2809 19.9806 17.0642 19.9806 17.8655C19.9794 18.9396 19.5522 19.9693 18.7927 20.7288C18.0332 21.4883 17.0034 21.9155 15.9293 21.9168ZM18.0971 13.5341C17.4233 13.2 16.6814 13.0261 15.9293 13.0261C15.1772 13.0261 14.4353 13.2 13.7615 13.5341V12.9224C13.7615 12.3474 13.9899 11.796 14.3965 11.3895C14.803 10.983 15.3544 10.7546 15.9293 10.7546C16.5042 10.7546 17.0556 10.983 17.4622 11.3895C17.8687 11.796 18.0971 12.3474 18.0971 12.9224V13.5341ZM15.9293 9.73652C16.3458 9.73763 16.758 9.82101 17.1422 9.9819C17.5263 10.1428 17.8749 10.378 18.1679 10.674C18.4609 10.97 18.6925 11.321 18.8495 11.7068C19.0064 12.0926 19.0856 12.5056 19.0824 12.9221V14.2268C19.0167 14.1577 18.951 14.0912 18.8854 14.0273V12.9221C18.8854 12.1381 18.5739 11.3862 18.0196 10.8318C17.4652 10.2775 16.7133 9.96604 15.9293 9.96604C15.1453 9.96604 14.3934 10.2775 13.8391 10.8318C13.2847 11.3862 12.9733 12.1381 12.9733 12.9221V14.0273C12.9076 14.0911 12.8419 14.1576 12.7762 14.2268V12.9221C12.773 12.5056 12.8522 12.0926 13.0091 11.7068C13.1661 11.321 13.3977 10.97 13.6907 10.674C13.9837 10.378 14.3323 10.1428 14.7165 9.9819C15.1006 9.82101 15.5128 9.73763 15.9293 9.73652Z" fill="#0F1C29"/>
</svg>
