<svg width="31" height="26" viewBox="0 0 31 26" fill="none" xmlns="http://www.w3.org/2000/svg">
<path d="M6.33849 11.8181C7.64389 11.8181 8.70213 10.7599 8.70213 9.45446C8.70213 8.14906 7.64389 7.09082 6.33849 7.09082C5.03309 7.09082 3.97485 8.14906 3.97485 9.45446C3.97485 10.7599 5.03309 11.8181 6.33849 11.8181Z" fill="#0F1C29"/>
<path d="M28.9113 3.54545H16.384C15.4065 3.54545 14.6113 4.3407 14.6113 5.31818V7.09091H11.7537C11.5696 6.67065 11.3382 6.27563 11.0658 5.91299V1.77273C11.0658 0.795245 10.2706 0 9.29308 0H3.38399C2.40651 0 1.61126 0.795245 1.61126 1.77273V5.91299C0.869493 6.90058 0.429443 8.12713 0.429443 9.45455C0.429443 10.782 0.869493 12.0085 1.61126 12.9961V24.2273C1.61126 25.2048 2.40651 26 3.38399 26H9.29308C10.2706 26 11.0658 25.2048 11.0658 24.2273V12.9961C11.3382 12.6335 11.5696 12.2384 11.7537 11.8182H14.6113V13.5909C14.6113 14.5684 15.4065 15.3636 16.384 15.3636H28.9113C29.8887 15.3636 30.684 14.5684 30.684 13.5909V5.31818C30.684 4.3407 29.8887 3.54545 28.9113 3.54545ZM3.38399 1.18182H9.29308C9.61891 1.18182 9.88399 1.4469 9.88399 1.77273V4.73029C8.89569 3.98669 7.66773 3.54545 6.33853 3.54545C5.00934 3.54545 3.78138 3.98669 2.79308 4.73029V1.77273C2.79308 1.4469 3.05816 1.18182 3.38399 1.18182ZM6.33853 4.72727C8.94515 4.72727 11.0658 6.84793 11.0658 9.45455C11.0658 12.0612 8.94515 14.1818 6.33853 14.1818C3.73192 14.1818 1.61126 12.0612 1.61126 9.45455C1.61126 6.84793 3.73192 4.72727 6.33853 4.72727ZM9.29308 24.8182H3.38399C3.05816 24.8182 2.79308 24.5531 2.79308 24.2273V14.1788C3.78138 14.9223 5.00934 15.3636 6.33853 15.3636C7.66773 15.3636 8.89569 14.9224 9.88399 14.1788V24.2273C9.88399 24.5531 9.61891 24.8182 9.29308 24.8182ZM12.1289 8.27273H16.9749V10.6364H12.1288C12.2066 10.2544 12.2476 9.85914 12.2476 9.45455C12.2476 9.04995 12.2067 8.65469 12.1289 8.27273ZM29.5022 13.5909C29.5022 13.9167 29.2371 14.1818 28.9113 14.1818H16.384C16.0582 14.1818 15.7931 13.9167 15.7931 13.5909V11.8182H17.5658C17.8921 11.8182 18.1567 11.5536 18.1567 11.2273V7.68182C18.1567 7.35546 17.8921 7.09091 17.5658 7.09091H15.7931V5.31818C15.7931 4.99235 16.0582 4.72727 16.384 4.72727H28.9113C29.2371 4.72727 29.5022 4.99235 29.5022 5.31818V13.5909Z" fill="#0F1C29"/>
<path d="M26.5476 7.09082H24.1839C23.8576 7.09082 23.593 7.35537 23.593 7.68173C23.593 8.00809 23.8576 8.27264 24.1839 8.27264H26.5476C26.8739 8.27264 27.1385 8.00809 27.1385 7.68173C27.1385 7.35537 26.8739 7.09082 26.5476 7.09082Z" fill="#0F1C29"/>
</svg>
