<svg width="31" height="30" viewBox="0 0 31 30" fill="none" xmlns="http://www.w3.org/2000/svg">
<path d="M16.1714 14.2597C15.9423 14.0306 15.5714 14.0306 15.3423 14.2597C15.1138 14.4882 15.1138 14.8591 15.3423 15.0882C15.5714 15.3168 15.9423 15.3168 16.1714 15.0882C16.3999 14.8591 16.3999 14.4882 16.1714 14.2597Z" fill="#0F1C29"/>
<path d="M23.6287 6.80106C22.4838 5.65619 20.6303 5.65613 19.4854 6.80106C18.3434 7.943 18.3434 9.80161 19.4855 10.9445C20.6279 12.0861 22.4865 12.0866 23.6287 10.9444C24.7735 9.79956 24.7738 7.94605 23.6287 6.80106ZM22.8001 10.1157C22.1149 10.8009 20.9997 10.8009 20.3142 10.1158C19.6289 9.43012 19.6289 8.31484 20.3141 7.6297C21.001 6.9428 22.1131 6.94268 22.8001 7.6297C23.487 8.31654 23.4871 9.42871 22.8001 10.1157Z" fill="#0F1C29"/>
<path d="M30.2579 0.171628C30.1428 0.0566077 29.9857 -0.00573649 29.8225 0.000415902C29.69 0.00516203 26.5356 0.13196 22.7859 1.4573C19.7812 2.51821 17.2767 4.03714 15.342 5.97192C14.9084 6.40546 14.4865 6.86519 14.0829 7.34279C12.1699 6.21673 10.637 6.56982 9.66787 7.08844C7.43654 8.28259 6.05542 11.525 6.05542 13.8441C6.0556 14.0811 6.19839 14.2948 6.4173 14.3854C6.48978 14.4155 6.56595 14.4301 6.64142 14.4301C6.79394 14.4301 6.94377 14.3705 7.05586 14.2584C8.2326 13.0817 9.68404 13.1553 10.1582 13.2176L10.3634 13.4228C9.95955 14.3838 9.63423 15.3393 9.39564 16.2687C9.30951 16.605 9.33857 16.9609 9.4666 17.2865C8.90245 17.5464 8.35817 17.9282 7.88426 18.4021C6.37599 19.9104 6.06972 23.5863 6.05741 23.742C6.04394 23.9129 6.10593 24.0812 6.22716 24.2024C6.33749 24.3127 6.48673 24.3741 6.64142 24.3741C6.65677 24.3741 6.67218 24.3735 6.68759 24.3723C6.84334 24.36 10.5193 24.0537 12.0276 22.5455C12.5013 22.0717 12.883 21.5275 13.143 20.9635C13.4876 21.099 13.8424 21.1157 14.1613 21.034C15.0903 20.7954 16.0457 20.4702 17.0068 20.0663L17.212 20.2715C17.2743 20.7457 17.3479 22.1972 16.1712 23.3738C16.0037 23.5414 15.9535 23.7934 16.0442 24.0123C16.1348 24.2313 16.3485 24.374 16.5855 24.374C18.9047 24.374 22.147 22.9929 23.3411 20.7616C23.8597 19.7926 24.2128 18.2596 23.0868 16.3466C23.5641 15.9431 24.0239 15.5213 24.4576 15.0875C26.3924 13.1528 27.9113 10.6483 28.9722 7.64379C30.2976 3.89388 30.4243 0.739406 30.4291 0.606983C30.4349 0.444384 30.3729 0.286707 30.2579 0.171628ZM7.36547 12.5838C7.72946 10.8223 8.78667 8.88933 10.2211 8.12163C11.1796 7.60869 12.2273 7.65897 13.3413 8.26876C12.3923 9.51693 11.5672 10.8617 10.8795 12.2817C10.8707 12.2763 10.7653 12.1437 10.5693 12.0995C10.4888 12.0813 8.93843 11.7478 7.36547 12.5838ZM11.1989 21.7168C10.3933 22.5224 8.50331 22.9474 7.30875 23.1209C7.48231 21.9262 7.90729 20.0363 8.7129 19.2307C9.16407 18.7796 9.6872 18.4375 10.213 18.2448L12.1848 20.2166C11.9922 20.7425 11.6502 21.2656 11.1989 21.7168ZM13.8702 19.8988C13.7007 19.9422 13.5043 19.8784 13.3582 19.7326C12.6002 18.9746 12.3037 18.6781 12.2106 18.5851C12.04 18.4145 11.6216 17.996 10.6974 17.0718C10.5512 16.9253 10.4875 16.729 10.5308 16.5597C10.7185 15.8288 10.9639 15.0789 11.2624 14.3218L16.1078 19.1673C15.3506 19.4658 14.6009 19.7112 13.8702 19.8988ZM22.308 20.2086C21.5403 21.6429 19.6074 22.7002 17.846 23.0641C18.4076 22.0073 18.5314 20.6619 18.3262 19.8461C18.2786 19.6566 18.1549 19.5613 18.148 19.5501C19.5679 18.8624 20.9126 18.0373 22.1609 17.0883C22.7707 18.2024 22.8209 19.2502 22.308 20.2086ZM23.6291 14.2589C23.1011 14.7868 22.5326 15.2969 21.9392 15.7748C20.5129 16.9233 18.9431 17.8961 17.2682 18.6705L11.7592 13.1615C12.5336 11.4866 13.5064 9.91672 14.6547 8.49059C15.1331 7.89686 15.6431 7.32826 16.1708 6.80056C17.9067 5.06465 20.147 3.68312 22.8313 2.68866L27.741 7.59838C26.7467 10.2826 25.3651 12.5229 23.6291 14.2589ZM28.1626 6.36257L24.0671 2.26707C26.2984 1.57402 28.2396 1.31451 29.2085 1.22123C29.1152 2.19031 28.8556 4.13148 28.1626 6.36257Z" fill="#0F1C29"/>
<path d="M14.514 24.2028C14.285 23.974 13.914 23.9741 13.6853 24.2029L12.0282 25.8605C11.7995 26.0894 11.7995 26.4604 12.0283 26.6892C12.2573 26.9179 12.6283 26.9179 12.857 26.6891L14.5141 25.0314C14.7428 24.8026 14.7428 24.4316 14.514 24.2028Z" fill="#0F1C29"/>
<path d="M6.22755 15.9158C5.9988 15.6869 5.62783 15.6869 5.39891 15.9157L3.74128 17.5727C3.51241 17.8015 3.51235 18.1725 3.7411 18.4014C3.96979 18.6301 4.34075 18.6303 4.56974 18.4015L6.22737 16.7444C6.45624 16.5157 6.4563 16.1447 6.22755 15.9158Z" fill="#0F1C29"/>
<path d="M10.3708 25.032C10.1421 24.8032 9.77106 24.8032 9.5422 25.0319L5.57303 29.0005C5.34416 29.2293 5.34416 29.6003 5.57297 29.8291C5.80166 30.0579 6.17274 30.0581 6.40161 29.8292L10.3708 25.8606C10.5996 25.6318 10.5996 25.2608 10.3708 25.032Z" fill="#0F1C29"/>
<path d="M5.68309 25.032C5.45434 24.8032 5.08326 24.8032 4.85445 25.0319L0.885282 29.0005C0.656413 29.2293 0.656413 29.6003 0.885223 29.8291C1.11392 30.0579 1.48499 30.0581 1.71386 29.8292L5.68303 25.8606C5.9119 25.6318 5.9119 25.2608 5.68309 25.032Z" fill="#0F1C29"/>
<path d="M5.39827 20.0583C5.16951 19.8295 4.79844 19.8295 4.56963 20.0583L0.601044 24.0275C0.372233 24.2564 0.372233 24.6273 0.601102 24.8562C0.829913 25.085 1.20093 25.085 1.42974 24.8561L5.39832 20.887C5.62713 20.6581 5.62713 20.2871 5.39827 20.0583Z" fill="#0F1C29"/>
<path d="M18.6572 11.7732C18.4283 11.5444 18.0574 11.5444 17.8285 11.7732L17 12.6017C16.7712 12.8305 16.7712 13.2015 17 13.4304C17.2288 13.6592 17.5998 13.6592 17.8287 13.4304L18.6572 12.6019C18.886 12.3731 18.886 12.002 18.6572 11.7732Z" fill="#0F1C29"/>
</svg>
