<svg width="24" height="28" viewBox="0 0 24 28" fill="none" xmlns="http://www.w3.org/2000/svg">
<path d="M3.71051 10.1875C1.65997 10.1875 0 11.8475 0 13.898C0 15.9486 1.65997 17.6085 3.71051 17.6085C5.76106 17.6085 7.42102 15.9486 7.42102 13.898C7.41451 11.854 5.75455 10.194 3.71051 10.1875ZM3.71051 16.3066C2.38254 16.3066 1.30193 15.2325 1.30193 13.898C1.30193 12.57 2.37603 11.4894 3.71051 11.4894C5.03848 11.4894 6.11909 12.5635 6.11909 13.898C6.11258 15.226 5.03848 16.3001 3.71051 16.3066Z" fill="#0F1C29"/>
<path d="M22.3933 11.2295H9.14608C8.78805 11.2295 8.49512 11.5224 8.49512 11.8805C8.49512 12.2385 8.78805 12.5314 9.14608 12.5314H22.3933C22.7513 12.5314 23.0442 12.2385 23.0442 11.8805C23.0442 11.5224 22.7513 11.2295 22.3933 11.2295Z" fill="#0F1C29"/>
<path d="M16.2807 15.2646H9.14608C8.78805 15.2646 8.49512 15.5576 8.49512 15.9156C8.49512 16.2736 8.78154 16.5666 9.14608 16.5666H16.2807C16.6387 16.5666 16.9317 16.2736 16.9317 15.9156C16.9317 15.5576 16.6387 15.2646 16.2807 15.2646Z" fill="#0F1C29"/>
<path d="M3.71051 0C1.65997 0 0 1.65996 0 3.71051C0 5.76105 1.65997 7.42102 3.71051 7.42102C5.76106 7.42102 7.42102 5.76105 7.42102 3.71051C7.41451 1.65996 5.75455 0 3.71051 0ZM3.71051 6.11257C2.38254 6.11257 1.30193 5.03848 1.30193 3.704C1.30193 2.36952 2.37603 1.29542 3.71051 1.29542C5.03848 1.29542 6.11909 2.36952 6.11909 3.704C6.11258 5.03848 5.03848 6.11257 3.71051 6.11257Z" fill="#0F1C29"/>
<path d="M22.3933 1.00879H9.14608C8.78805 1.00879 8.49512 1.30172 8.49512 1.65976C8.49512 2.01779 8.78805 2.31072 9.14608 2.31072H22.3933C22.7513 2.31072 23.0442 2.01779 23.0442 1.65976C23.0442 1.30172 22.7513 1.00879 22.3933 1.00879Z" fill="#0F1C29"/>
<path d="M16.2807 5.11035H9.14608C8.78805 5.11035 8.49512 5.40329 8.49512 5.76132C8.49512 6.11935 8.78154 6.41229 9.14608 6.41229H16.2807C16.6387 6.41229 16.9317 6.11935 16.9317 5.76132C16.9317 5.40329 16.6387 5.11035 16.2807 5.11035Z" fill="#0F1C29"/>
<path d="M3.71051 20.3818C1.65997 20.3818 0 22.0418 0 24.0923C0 26.1429 1.65997 27.8029 3.71051 27.8029C5.76106 27.8029 7.42102 26.1429 7.42102 24.0923C7.41451 22.0418 5.75455 20.3818 3.71051 20.3818ZM3.71051 26.4944C2.38254 26.4944 1.30193 25.4203 1.30193 24.0858C1.30193 22.7579 2.37603 21.6773 3.71051 21.6773C5.03848 21.6773 6.11909 22.7514 6.11909 24.0858C6.11258 25.4203 5.03848 26.4944 3.71051 26.4944Z" fill="#0F1C29"/>
<path d="M22.3933 21.3838H9.14608C8.78805 21.3838 8.49512 21.6767 8.49512 22.0348C8.49512 22.3928 8.78805 22.6857 9.14608 22.6857H22.3933C22.7513 22.6857 23.0442 22.3928 23.0442 22.0348C23.0442 21.6767 22.7513 21.3838 22.3933 21.3838Z" fill="#0F1C29"/>
<path d="M16.2807 25.4854H9.14608C8.78805 25.4854 8.49512 25.7783 8.49512 26.1363C8.49512 26.4944 8.78805 26.7873 9.14608 26.7873H16.2807C16.6387 26.7873 16.9317 26.4944 16.9317 26.1363C16.9317 25.7783 16.6387 25.4854 16.2807 25.4854Z" fill="#0F1C29"/>
</svg>
