<svg width="31" height="31" viewBox="0 0 31 31" fill="none" xmlns="http://www.w3.org/2000/svg">
<path d="M29.9269 0H26.9113C26.778 0 26.6502 0.0529528 26.5559 0.147209C26.4616 0.241466 26.4087 0.369305 26.4087 0.502604C26.4087 0.635903 26.4616 0.763742 26.5559 0.857999C26.6502 0.952256 26.778 1.00521 26.9113 1.00521H29.4243V3.51823C29.4243 3.65153 29.4773 3.77937 29.5715 3.87362C29.6658 3.96788 29.7936 4.02083 29.9269 4.02083C30.0602 4.02083 30.1881 3.96788 30.2823 3.87362C30.3766 3.77937 30.4295 3.65153 30.4295 3.51823V0.502604C30.4295 0.369305 30.3766 0.241466 30.2823 0.147209C30.1881 0.0529528 30.0602 0 29.9269 0Z" fill="#0F1C29"/>
<path d="M0.775798 4.02083C0.909096 4.02083 1.03694 3.96788 1.13119 3.87362C1.22545 3.77937 1.2784 3.65153 1.2784 3.51823V1.00521H3.79142C3.92472 1.00521 4.05256 0.952256 4.14682 0.857999C4.24107 0.763742 4.29403 0.635903 4.29403 0.502604C4.29403 0.369305 4.24107 0.241466 4.14682 0.147209C4.05256 0.0529528 3.92472 0 3.79142 0H0.775798C0.642499 0 0.514659 0.0529528 0.420403 0.147209C0.326146 0.241466 0.273193 0.369305 0.273193 0.502604V3.51823C0.273193 3.65153 0.326146 3.77937 0.420403 3.87362C0.514659 3.96788 0.642499 4.02083 0.775798 4.02083Z" fill="#0F1C29"/>
<path d="M29.9269 26.1357C29.7936 26.1357 29.6658 26.1887 29.5715 26.283C29.4773 26.3772 29.4243 26.505 29.4243 26.6383V29.1514H26.9113C26.778 29.1514 26.6502 29.2043 26.5559 29.2986C26.4616 29.3928 26.4087 29.5207 26.4087 29.654C26.4087 29.7873 26.4616 29.9151 26.5559 30.0094C26.6502 30.1036 26.778 30.1566 26.9113 30.1566H29.9269C30.0602 30.1566 30.1881 30.1036 30.2823 30.0094C30.3766 29.9151 30.4295 29.7873 30.4295 29.654V26.6383C30.4295 26.505 30.3766 26.3772 30.2823 26.283C30.1881 26.1887 30.0602 26.1357 29.9269 26.1357Z" fill="#0F1C29"/>
<path d="M0.775798 30.1566H3.79142C3.92472 30.1566 4.05256 30.1036 4.14682 30.0094C4.24107 29.9151 4.29403 29.7873 4.29403 29.654C4.29403 29.5207 4.24107 29.3928 4.14682 29.2986C4.05256 29.2043 3.92472 29.1514 3.79142 29.1514H1.2784V26.6383C1.2784 26.505 1.22545 26.3772 1.13119 26.283C1.03694 26.1887 0.909096 26.1357 0.775798 26.1357C0.642499 26.1357 0.514659 26.1887 0.420403 26.283C0.326146 26.3772 0.273193 26.505 0.273193 26.6383V29.654C0.273193 29.7873 0.326146 29.9151 0.420403 30.0094C0.514659 30.1036 0.642499 30.1566 0.775798 30.1566Z" fill="#0F1C29"/>
<path d="M2.28369 2.51335V11.5602C2.28369 11.6935 2.33664 11.8214 2.4309 11.9156C2.52516 12.0099 2.653 12.0628 2.7863 12.0628H11.8332C11.9665 12.0628 12.0943 12.0099 12.1886 11.9156C12.2828 11.8214 12.3358 11.6935 12.3358 11.5602V2.51335C12.3358 2.38005 12.2828 2.25221 12.1886 2.15795C12.0943 2.0637 11.9665 2.01074 11.8332 2.01074H2.7863C2.653 2.01074 2.52516 2.0637 2.4309 2.15795C2.33664 2.25221 2.28369 2.38005 2.28369 2.51335ZM3.2889 3.01595H11.3306V11.0576H3.2889V3.01595Z" fill="#0F1C29"/>
<path d="M9.82259 4.02051H4.79655C4.66325 4.02051 4.53541 4.07346 4.44115 4.16772C4.3469 4.26197 4.29395 4.38981 4.29395 4.52311V9.54915C4.29395 9.68245 4.3469 9.81029 4.44115 9.90455C4.53541 9.99881 4.66325 10.0518 4.79655 10.0518H9.82259C9.95589 10.0518 10.0837 9.99881 10.178 9.90455C10.2722 9.81029 10.3252 9.68245 10.3252 9.54915V4.52311C10.3252 4.38981 10.2722 4.26197 10.178 4.16772C10.0837 4.07346 9.95589 4.02051 9.82259 4.02051ZM9.31999 9.04655H5.29915V5.02572H9.31999V9.04655Z" fill="#0F1C29"/>
<path d="M9.82259 20.1045H4.79655C4.66325 20.1045 4.53541 20.1574 4.44115 20.2517C4.3469 20.346 4.29395 20.4738 4.29395 20.6071V25.6331C4.29395 25.7664 4.3469 25.8943 4.44115 25.9885C4.53541 26.0828 4.66325 26.1357 4.79655 26.1357H9.82259C9.95589 26.1357 10.0837 26.0828 10.178 25.9885C10.2722 25.8943 10.3252 25.7664 10.3252 25.6331V20.6071C10.3252 20.4738 10.2722 20.346 10.178 20.2517C10.0837 20.1574 9.95589 20.1045 9.82259 20.1045ZM9.31999 25.1305H5.29915V21.1097H9.31999V25.1305Z" fill="#0F1C29"/>
<path d="M25.9061 4.02051H20.88C20.7467 4.02051 20.6189 4.07346 20.5247 4.16772C20.4304 4.26197 20.3774 4.38981 20.3774 4.52311V9.54915C20.3774 9.68245 20.4304 9.81029 20.5247 9.90455C20.6189 9.99881 20.7467 10.0518 20.88 10.0518H25.9061C26.0394 10.0518 26.1672 9.99881 26.2615 9.90455C26.3557 9.81029 26.4087 9.68245 26.4087 9.54915V4.52311C26.4087 4.38981 26.3557 4.26197 26.2615 4.16772C26.1672 4.07346 26.0394 4.02051 25.9061 4.02051ZM25.4035 9.04655H21.3826V5.02572H25.4035V9.04655Z" fill="#0F1C29"/>
<path d="M18.8695 12.0314H27.9164C28.0497 12.0314 28.1776 11.9785 28.2718 11.8842C28.3661 11.7899 28.419 11.6621 28.419 11.5288V2.51335C28.419 2.38005 28.3661 2.25221 28.2718 2.15795C28.1776 2.0637 28.0497 2.01074 27.9164 2.01074H18.8695C18.7362 2.01074 18.6084 2.0637 18.5142 2.15795C18.4199 2.25221 18.3669 2.38005 18.3669 2.51335V11.5288C18.3669 11.6621 18.4199 11.7899 18.5142 11.8842C18.6084 11.9785 18.7362 12.0314 18.8695 12.0314ZM19.3722 3.01595H27.4138V11.0262H19.3722V3.01595Z" fill="#0F1C29"/>
<path d="M2.28369 27.6432C2.28369 27.7765 2.33664 27.9044 2.4309 27.9986C2.52516 28.0929 2.653 28.1458 2.7863 28.1458H11.8332C11.9665 28.1458 12.0943 28.0929 12.1886 27.9986C12.2828 27.9044 12.3358 27.7765 12.3358 27.6432V18.5964C12.3358 18.4631 12.2828 18.3352 12.1886 18.241C12.0943 18.1467 11.9665 18.0938 11.8332 18.0938H2.7863C2.653 18.0938 2.52516 18.1467 2.4309 18.241C2.33664 18.3352 2.28369 18.4631 2.28369 18.5964V27.6432ZM3.2889 19.099H11.3306V27.1406H3.2889V19.099Z" fill="#0F1C29"/>
<path d="M13.8434 6.03158C13.9767 6.03158 14.1046 5.97862 14.1988 5.88437C14.2931 5.79011 14.346 5.66227 14.346 5.52897V3.01595H14.8486C14.9819 3.01595 15.1098 2.963 15.204 2.86874C15.2983 2.77448 15.3512 2.64665 15.3512 2.51335C15.3512 2.38005 15.2983 2.25221 15.204 2.15795C15.1098 2.0637 14.9819 2.01074 14.8486 2.01074H13.8434C13.7101 2.01074 13.5823 2.0637 13.488 2.15795C13.3938 2.25221 13.3408 2.38005 13.3408 2.51335V5.52897C13.3408 5.66227 13.3938 5.79011 13.488 5.88437C13.5823 5.97862 13.7101 6.03158 13.8434 6.03158Z" fill="#0F1C29"/>
<path d="M16.859 3.01595C17.1366 3.01595 17.3617 2.79093 17.3617 2.51335C17.3617 2.23577 17.1366 2.01074 16.859 2.01074C16.5815 2.01074 16.3564 2.23577 16.3564 2.51335C16.3564 2.79093 16.5815 3.01595 16.859 3.01595Z" fill="#0F1C29"/>
<path d="M15.8539 6.03092H16.8591C16.9924 6.03092 17.1203 5.97797 17.2145 5.88372C17.3088 5.78946 17.3617 5.66162 17.3617 5.52832V4.52311C17.3617 4.38981 17.3088 4.26197 17.2145 4.16772C17.1203 4.07346 16.9924 4.02051 16.8591 4.02051C16.7258 4.02051 16.598 4.07346 16.5037 4.16772C16.4095 4.26197 16.3565 4.38981 16.3565 4.52311V5.02572H15.8539C15.7206 5.02572 15.5928 5.07867 15.4985 5.17293C15.4043 5.26718 15.3513 5.39502 15.3513 5.52832C15.3513 5.66162 15.4043 5.78946 15.4985 5.88372C15.5928 5.97797 15.7206 6.03092 15.8539 6.03092Z" fill="#0F1C29"/>
<path d="M16.8591 7.53906H15.8539C15.7206 7.53906 15.5928 7.59201 15.4985 7.68627C15.4043 7.78053 15.3513 7.90837 15.3513 8.04167V10.0521C15.3513 10.1854 15.4043 10.3132 15.4985 10.4075C15.5928 10.5017 15.7206 10.5547 15.8539 10.5547C15.9872 10.5547 16.1151 10.5017 16.2093 10.4075C16.3036 10.3132 16.3565 10.1854 16.3565 10.0521V8.54427H16.8591C16.9924 8.54427 17.1203 8.49132 17.2145 8.39706C17.3088 8.30281 17.3617 8.17497 17.3617 8.04167C17.3617 7.90837 17.3088 7.78053 17.2145 7.68627C17.1203 7.59201 16.9924 7.53906 16.8591 7.53906Z" fill="#0F1C29"/>
<path d="M13.8434 12.0622H16.859C16.9923 12.0622 17.1202 12.0092 17.2144 11.915C17.3087 11.8207 17.3617 11.6929 17.3617 11.5596C17.3617 11.4263 17.3087 11.2984 17.2144 11.2042C17.1202 11.1099 16.9923 11.057 16.859 11.057H14.346V7.53874C14.346 7.40544 14.2931 7.2776 14.1988 7.18334C14.1046 7.08909 13.9767 7.03613 13.8434 7.03613C13.7101 7.03613 13.5823 7.08909 13.488 7.18334C13.3938 7.2776 13.3408 7.40544 13.3408 7.53874V11.5596C13.3408 11.6929 13.3938 11.8207 13.488 11.915C13.5823 12.0092 13.7101 12.0622 13.8434 12.0622Z" fill="#0F1C29"/>
<path d="M17.8643 24.125C17.731 24.125 17.6032 24.178 17.5089 24.2722C17.4147 24.3665 17.3617 24.4943 17.3617 24.6276V27.1406H15.8539C15.7206 27.1406 15.5928 27.1936 15.4985 27.2878C15.4043 27.3821 15.3513 27.5099 15.3513 27.6432C15.3513 27.7765 15.4043 27.9044 15.4985 27.9986C15.5928 28.0929 15.7206 28.1458 15.8539 28.1458H17.8643C17.9976 28.1458 18.1255 28.0929 18.2197 27.9986C18.314 27.9044 18.3669 27.7765 18.3669 27.6432V24.6276C18.3669 24.4943 18.314 24.3665 18.2197 24.2722C18.1255 24.178 17.9976 24.125 17.8643 24.125Z" fill="#0F1C29"/>
<path d="M13.8434 28.1458C14.121 28.1458 14.346 27.9208 14.346 27.6432C14.346 27.3656 14.121 27.1406 13.8434 27.1406C13.5658 27.1406 13.3408 27.3656 13.3408 27.6432C13.3408 27.9208 13.5658 28.1458 13.8434 28.1458Z" fill="#0F1C29"/>
<path d="M13.8434 26.1354C13.9767 26.1354 14.1046 26.0825 14.1988 25.9882C14.2931 25.894 14.346 25.7661 14.346 25.6328V25.1302H15.8538C15.9871 25.1302 16.115 25.0773 16.2092 24.983C16.3035 24.8887 16.3564 24.7609 16.3564 24.6276C16.3564 24.4943 16.3035 24.3665 16.2092 24.2722C16.115 24.178 15.9871 24.125 15.8538 24.125H13.8434C13.7101 24.125 13.5823 24.178 13.488 24.2722C13.3938 24.3665 13.3408 24.4943 13.3408 24.6276V25.6328C13.3408 25.7661 13.3938 25.894 13.488 25.9882C13.5823 26.0825 13.7101 26.1354 13.8434 26.1354Z" fill="#0F1C29"/>
<path d="M13.8434 19.099C13.9767 19.099 14.1046 19.046 14.1988 18.9517C14.2931 18.8575 14.346 18.7297 14.346 18.5964V16.0833H15.3512C15.4845 16.0833 15.6124 16.0304 15.7066 15.9361C15.8009 15.8419 15.8538 15.714 15.8538 15.5807C15.8538 15.4474 15.8009 15.3196 15.7066 15.2253C15.6124 15.1311 15.4845 15.0781 15.3512 15.0781H13.8434C13.7101 15.0781 13.5823 15.1311 13.488 15.2253C13.3938 15.3196 13.3408 15.4474 13.3408 15.5807V18.5964C13.3408 18.7297 13.3938 18.8575 13.488 18.9517C13.5823 19.046 13.7101 19.099 13.8434 19.099Z" fill="#0F1C29"/>
<path d="M13.8434 14.0726H16.859V16.5856C16.859 16.7189 16.912 16.8468 17.0063 16.941C17.1005 17.0353 17.2284 17.0882 17.3617 17.0882C17.495 17.0882 17.6228 17.0353 17.717 16.941C17.8113 16.8468 17.8643 16.7189 17.8643 16.5856V13.57C17.8643 13.4367 17.8113 13.3088 17.717 13.2146C17.6228 13.1203 17.495 13.0674 17.3617 13.0674H13.8434C13.7101 13.0674 13.5823 13.1203 13.488 13.2146C13.3938 13.3088 13.3408 13.4367 13.3408 13.57C13.3408 13.7033 13.3938 13.8311 13.488 13.9254C13.5823 14.0196 13.7101 14.0726 13.8434 14.0726Z" fill="#0F1C29"/>
<path d="M2.28369 16.5859C2.28369 16.7192 2.33664 16.8471 2.4309 16.9413C2.52516 17.0356 2.653 17.0885 2.7863 17.0885H5.80192C5.93522 17.0885 6.06306 17.0356 6.15732 16.9413C6.25157 16.8471 6.30452 16.7192 6.30452 16.5859C6.30452 16.4526 6.25157 16.3248 6.15732 16.2305C6.06306 16.1363 5.93522 16.0833 5.80192 16.0833H3.2889V15.5807C3.2889 15.4474 3.23595 15.3196 3.14169 15.2253C3.04743 15.1311 2.91959 15.0781 2.7863 15.0781C2.653 15.0781 2.52516 15.1311 2.4309 15.2253C2.33664 15.3196 2.28369 15.4474 2.28369 15.5807V16.5859Z" fill="#0F1C29"/>
<path d="M4.79671 15.0778C4.93001 15.0778 5.05785 15.0248 5.15211 14.9306C5.24636 14.8363 5.29932 14.7085 5.29932 14.5752V13.57C5.29932 13.4367 5.24636 13.3088 5.15211 13.2146C5.05785 13.1203 4.93001 13.0674 4.79671 13.0674H2.7863C2.653 13.0674 2.52516 13.1203 2.4309 13.2146C2.33664 13.3088 2.28369 13.4367 2.28369 13.57C2.28369 13.7033 2.33664 13.8311 2.4309 13.9254C2.52516 14.0196 2.653 14.0726 2.7863 14.0726H4.29411V14.5752C4.29411 14.7085 4.34706 14.8363 4.44132 14.9306C4.53557 15.0248 4.66341 15.0778 4.79671 15.0778Z" fill="#0F1C29"/>
<path d="M6.80705 13.0674C6.67375 13.0674 6.54591 13.1203 6.45165 13.2146C6.3574 13.3088 6.30444 13.4367 6.30444 13.57V14.5752C6.30444 14.7085 6.3574 14.8363 6.45165 14.9306C6.54591 15.0248 6.67375 15.0778 6.80705 15.0778H9.82267C9.95597 15.0778 10.0838 15.0248 10.1781 14.9306C10.2723 14.8363 10.3253 14.7085 10.3253 14.5752C10.3253 14.4419 10.2723 14.3141 10.1781 14.2198C10.0838 14.1255 9.95597 14.0726 9.82267 14.0726H7.30965V13.57C7.30965 13.4367 7.2567 13.3088 7.16244 13.2146C7.06819 13.1203 6.94035 13.0674 6.80705 13.0674Z" fill="#0F1C29"/>
<path d="M12.3356 13.57C12.3356 13.4367 12.2827 13.3088 12.1884 13.2146C12.0941 13.1203 11.9663 13.0674 11.833 13.0674C11.6997 13.0674 11.5719 13.1203 11.4776 13.2146C11.3834 13.3088 11.3304 13.4367 11.3304 13.57V16.083H7.81217C7.67888 16.083 7.55104 16.136 7.45678 16.2302C7.36252 16.3245 7.30957 16.4523 7.30957 16.5856C7.30957 16.7189 7.36252 16.8468 7.45678 16.941C7.55104 17.0353 7.67888 17.0882 7.81217 17.0882H11.833C11.9663 17.0882 12.0941 17.0353 12.1884 16.941C12.2827 16.8468 12.3356 16.7189 12.3356 16.5856V13.57Z" fill="#0F1C29"/>
<path d="M28.419 13.57C28.419 13.4367 28.3661 13.3088 28.2718 13.2146C28.1776 13.1203 28.0497 13.0674 27.9164 13.0674H24.9008C24.7675 13.0674 24.6397 13.1203 24.5454 13.2146C24.4511 13.3088 24.3982 13.4367 24.3982 13.57C24.3982 13.7033 24.4511 13.8311 24.5454 13.9254C24.6397 14.0196 24.7675 14.0726 24.9008 14.0726H27.4138V14.5752C27.4138 14.7085 27.4668 14.8363 27.561 14.9306C27.6553 15.0248 27.7831 15.0778 27.9164 15.0778C28.0497 15.0778 28.1776 15.0248 28.2718 14.9306C28.3661 14.8363 28.419 14.7085 28.419 14.5752V13.57Z" fill="#0F1C29"/>
<path d="M19.3722 19.099C19.6498 19.099 19.8748 18.8739 19.8748 18.5964C19.8748 18.3188 19.6498 18.0938 19.3722 18.0938C19.0947 18.0938 18.8696 18.3188 18.8696 18.5964C18.8696 18.8739 19.0947 19.099 19.3722 19.099Z" fill="#0F1C29"/>
<path d="M26.4086 16.5859V15.5807C26.4086 15.4474 26.3557 15.3196 26.2614 15.2253C26.1671 15.1311 26.0393 15.0781 25.906 15.0781C25.7727 15.0781 25.6449 15.1311 25.5506 15.2253C25.4564 15.3196 25.4034 15.4474 25.4034 15.5807V16.0833H23.393C23.2597 16.0833 23.1318 16.1363 23.0376 16.2305C22.9433 16.3248 22.8904 16.4526 22.8904 16.5859C22.8904 16.7192 22.9433 16.8471 23.0376 16.9413C23.1318 17.0356 23.2597 17.0885 23.393 17.0885H25.906C26.0393 17.0885 26.1671 17.0356 26.2614 16.9413C26.3557 16.8471 26.4086 16.7192 26.4086 16.5859Z" fill="#0F1C29"/>
<path d="M25.9061 22.1143H23.8957C23.7624 22.1143 23.6345 22.1672 23.5403 22.2615C23.446 22.3557 23.3931 22.4836 23.3931 22.6169C23.3931 22.7502 23.446 22.878 23.5403 22.9723C23.6345 23.0665 23.7624 23.1195 23.8957 23.1195H25.4035V23.6221C25.4035 23.7554 25.4564 23.8832 25.5507 23.9775C25.6449 24.0717 25.7728 24.1247 25.9061 24.1247C26.0394 24.1247 26.1672 24.0717 26.2615 23.9775C26.3557 23.8832 26.4087 23.7554 26.4087 23.6221V22.6169C26.4087 22.4836 26.3557 22.3557 26.2615 22.2615C26.1672 22.1672 26.0394 22.1143 25.9061 22.1143Z" fill="#0F1C29"/>
<path d="M25.9059 26.1351C26.1835 26.1351 26.4085 25.9101 26.4085 25.6325C26.4085 25.3549 26.1835 25.1299 25.9059 25.1299C25.6283 25.1299 25.4033 25.3549 25.4033 25.6325C25.4033 25.9101 25.6283 26.1351 25.9059 26.1351Z" fill="#0F1C29"/>
<path d="M21.8852 23.1195C22.1628 23.1195 22.3878 22.8944 22.3878 22.6169C22.3878 22.3393 22.1628 22.1143 21.8852 22.1143C21.6076 22.1143 21.3826 22.3393 21.3826 22.6169C21.3826 22.8944 21.6076 23.1195 21.8852 23.1195Z" fill="#0F1C29"/>
<path d="M23.8956 25.1302H22.3878V24.6276C22.3878 24.4943 22.3348 24.3665 22.2406 24.2722C22.1463 24.178 22.0185 24.125 21.8852 24.125C21.7519 24.125 21.624 24.178 21.5298 24.2722C21.4355 24.3665 21.3826 24.4943 21.3826 24.6276V25.6328C21.3826 25.7661 21.4355 25.894 21.5298 25.9882C21.624 26.0825 21.7519 26.1354 21.8852 26.1354H23.8956C24.0289 26.1354 24.1567 26.0825 24.251 25.9882C24.3452 25.894 24.3982 25.7661 24.3982 25.6328C24.3982 25.4995 24.3452 25.3717 24.251 25.2774C24.1567 25.1832 24.0289 25.1302 23.8956 25.1302Z" fill="#0F1C29"/>
<path d="M21.3825 15.0781C21.2492 15.0781 21.1213 15.1311 21.0271 15.2253C20.9328 15.3196 20.8799 15.4474 20.8799 15.5807V18.5964C20.8799 18.7297 20.9328 18.8575 21.0271 18.9517C21.1213 19.046 21.2492 19.099 21.3825 19.099H23.8327C23.966 19.099 24.0938 19.046 24.1881 18.9517C24.2823 18.8575 24.3353 18.7297 24.3353 18.5964C24.3353 18.4631 24.2823 18.3352 24.1881 18.241C24.0938 18.1467 23.966 18.0938 23.8327 18.0938H21.8851V15.5807C21.8851 15.4474 21.8321 15.3196 21.7379 15.2253C21.6436 15.1311 21.5158 15.0781 21.3825 15.0781Z" fill="#0F1C29"/>
<path d="M22.8905 13.0674H19.3722C19.2389 13.0674 19.1111 13.1203 19.0168 13.2146C18.9226 13.3088 18.8696 13.4367 18.8696 13.57V16.5856C18.8696 16.7189 18.9226 16.8468 19.0168 16.941C19.1111 17.0353 19.2389 17.0882 19.3722 17.0882C19.5055 17.0882 19.6334 17.0353 19.7276 16.941C19.8219 16.8468 19.8748 16.7189 19.8748 16.5856V14.0726H22.8905C23.0238 14.0726 23.1516 14.0196 23.2459 13.9254C23.3401 13.8311 23.3931 13.7033 23.3931 13.57C23.3931 13.4367 23.3401 13.3088 23.2459 13.2146C23.1516 13.1203 23.0238 13.0674 22.8905 13.0674Z" fill="#0F1C29"/>
<path d="M13.8434 23.1201H17.8643C17.9976 23.1201 18.1254 23.0672 18.2197 22.9729C18.3139 22.8787 18.3669 22.7508 18.3669 22.6175V20.6071C18.3669 20.4738 18.3139 20.346 18.2197 20.2517C18.1254 20.1574 17.9976 20.1045 17.8643 20.1045H13.8434C13.7101 20.1045 13.5823 20.1574 13.488 20.2517C13.3938 20.346 13.3408 20.4738 13.3408 20.6071V22.6175C13.3408 22.7508 13.3938 22.8787 13.488 22.9729C13.5823 23.0672 13.7101 23.1201 13.8434 23.1201ZM14.346 21.1097H17.3617V22.1149H14.346V21.1097Z" fill="#0F1C29"/>
<path d="M19.8747 28.1462H27.9163C28.0496 28.1462 28.1775 28.0932 28.2717 27.999C28.366 27.9047 28.4189 27.7769 28.4189 27.6436V20.6071C28.4189 20.4738 28.366 20.346 28.2717 20.2517C28.1775 20.1574 28.0496 20.1045 27.9163 20.1045H19.8747C19.7414 20.1045 19.6135 20.1574 19.5193 20.2517C19.425 20.346 19.3721 20.4738 19.3721 20.6071V27.6436C19.3721 27.7769 19.425 27.9047 19.5193 27.999C19.6135 28.0932 19.7414 28.1462 19.8747 28.1462ZM20.3773 21.1097H27.4137V27.141H20.3773V21.1097Z" fill="#0F1C29"/>
<path d="M17.3617 18.0938H16.4194C16.2861 18.0938 16.1582 18.1467 16.064 18.241C15.9697 18.3352 15.9167 18.4631 15.9167 18.5964C15.9167 18.7297 15.9697 18.8575 16.064 18.9517C16.1582 19.046 16.2861 19.099 16.4194 19.099H17.3617C17.495 19.099 17.6229 19.046 17.7171 18.9517C17.8114 18.8575 17.8643 18.7297 17.8643 18.5964C17.8643 18.4631 17.8114 18.3352 17.7171 18.241C17.6229 18.1467 17.495 18.0938 17.3617 18.0938Z" fill="#0F1C29"/>
<path d="M28.4189 16.5856C28.4189 16.4523 28.366 16.3245 28.2717 16.2302C28.1775 16.136 28.0496 16.083 27.9163 16.083C27.783 16.083 27.6552 16.136 27.5609 16.2302C27.4667 16.3245 27.4137 16.4523 27.4137 16.5856V18.0934H25.9059C25.7726 18.0934 25.6448 18.1464 25.5505 18.2406C25.4563 18.3349 25.4033 18.4627 25.4033 18.596C25.4033 18.7293 25.4563 18.8572 25.5505 18.9514C25.6448 19.0457 25.7726 19.0986 25.9059 19.0986H27.9163C28.0496 19.0986 28.1775 19.0457 28.2717 18.9514C28.366 18.8572 28.4189 18.7293 28.4189 18.596V16.5856Z" fill="#0F1C29"/>
</svg>
