<svg width="31" height="42" viewBox="0 0 31 42" fill="none" xmlns="http://www.w3.org/2000/svg">
<path d="M29.634 8.55292L28.2772 7.19611L27.9236 7.54966L26.5668 6.19285L26.9204 5.8393L25.5635 4.48248L25.21 4.83604L23.8532 3.47923L24.2067 3.12567L22.8499 1.76886L22.4964 2.12241L21.818 1.44401L21.8178 1.44386C21.797 1.42298 21.7743 1.40439 21.7501 1.38823L22.0279 0.972512C21.9244 0.903355 21.8082 0.855242 21.6861 0.830956L21.5886 1.32135C21.56 1.31567 21.5307 1.31274 21.5011 1.31274H20.4743V0.812744H18.4207V1.31274H16.3671V0.812744H14.3136V1.31274H12.26V0.812744H10.2064V1.31274H8.15277V0.812744H6.09917V1.31274H4.04557V0.812744H1.99198V1.31274H0.965182C0.903481 1.31274 0.845905 1.32493 0.793773 1.34655L0.602232 0.884694C0.370463 0.980813 0.1851 1.16622 0.0890119 1.39802L0.550899 1.58949C0.529277 1.64165 0.51709 1.69926 0.51709 1.76098V2.72395H0.0170898V4.64989H0.51709V6.57583H0.0170898V8.50178H0.51709V10.4277H0.0170898V12.3537H0.51709V14.2796H0.0170898V16.2055H0.51709V18.1315H0.0170898V20.0574H0.51709V21.9834H0.0170898V23.9093H0.51709V25.8352H0.0170898V27.7612H0.51709V29.6871H0.0170898V31.6131H0.51709V33.539H0.0170898V35.465H0.51709V37.3909H0.0170898V39.3168H0.51709V40.2798C0.51709 40.3415 0.529271 40.399 0.550897 40.4512L0.089045 40.6427C0.185157 40.8745 0.370539 41.0598 0.602274 41.1559L0.793827 40.6941C0.845969 40.7157 0.90353 40.7279 0.965182 40.7279H1.98935V41.2279H4.0377V40.7279H6.08604V41.2279H8.13439V40.7279H10.1827V41.2279H12.2311V40.7279H14.2794V41.2279H16.3278V40.7279H18.3761V41.2279H20.4245V40.7279H22.4728V41.2279H24.5212V40.7279H26.5695V41.2279H28.6178V40.7279H29.642C29.7037 40.7279 29.7612 40.7157 29.8134 40.6941L30.0049 41.1559C30.2367 41.0598 30.422 40.8745 30.5181 40.6427L30.0563 40.4512C30.0779 40.399 30.0901 40.3415 30.0901 40.2798V39.3305H30.5901V37.4319H30.0901V35.5333H30.5901V33.6346H30.0901V31.736H30.5901V29.8374H30.0901V27.9388H30.5901V26.0401H30.0901V24.1415H30.5901V22.2429H30.0901V20.3443H30.5901V18.4457H30.0901V16.547H30.5901V14.6484H30.0901V12.7498H30.5901V10.8512H30.0901V9.90185C30.0901 9.87225 30.0872 9.84299 30.0815 9.81443L30.5719 9.71686C30.5476 9.59476 30.4995 9.47859 30.4303 9.37504L30.0145 9.65279C29.9983 9.62854 29.9797 9.60573 29.9587 9.58474L29.2804 8.90647L29.634 8.55292Z" stroke="#DBDDDF" stroke-dasharray="2 2"/>
<path fill-rule="evenodd" clip-rule="evenodd" d="M14.5657 25.9856L14.5657 16.0549L16.1279 16.0549L16.1279 25.9856H14.5657Z" fill="#DBDDDF"/>
<path fill-rule="evenodd" clip-rule="evenodd" d="M20.269 21.802H10.3384V20.2399H20.269V21.802Z" fill="#DBDDDF"/>
<path d="M30.6365 12.2565H22.0595C21.4808 12.2565 21.0116 11.6971 21.0115 11.007V0.812744" stroke="#DBDDDF" stroke-width="0.5" stroke-dasharray="2 2"/>
</svg>
