<svg width="18" height="23" viewBox="0 0 18 23" fill="none" xmlns="http://www.w3.org/2000/svg">
<path d="M1.09595 20.9322V2.64763C1.09595 1.85686 1.69649 1.21582 2.43729 1.21582H11.2626L13.7573 3.75527L16.5302 6.48197V20.9322C16.5302 21.723 15.9297 22.364 15.1889 22.364H2.43729C1.69649 22.364 1.09595 21.723 1.09595 20.9322Z" fill="white"/>
<path d="M11.2626 1.21582L13.7573 3.75527L16.5302 6.48197M11.2626 1.21582H2.43729C1.69649 1.21582 1.09595 1.85686 1.09595 2.64763V20.9322C1.09595 21.723 1.69649 22.364 2.43729 22.364H15.1889C15.9297 22.364 16.5302 21.723 16.5302 20.9322V6.48197M11.2626 1.21582V5.05016C11.2626 5.84093 11.8631 6.48197 12.6039 6.48197H16.5302M2.81684 6.60572H9.36294M2.81684 10.7445H13.341M2.81684 13.5933H13.341M2.81684 16.4421H13.341" stroke="#0F1C29"/>
<path d="M11.2947 3.32121V1.29639L16.418 6.32121H14.2947C12.6378 6.32121 11.2947 4.97807 11.2947 3.32121Z" fill="#0F1C29"/>
</svg>
