<svg width="34" height="36" viewBox="0 0 34 36" fill="none" xmlns="http://www.w3.org/2000/svg">
<g clip-path="url(#clip0)">
<path d="M31.9495 18.2491C31.9495 26.7347 25.2433 33.6382 17.0001 33.6382C8.75688 33.6382 2.0506 26.7347 2.0506 18.2491C2.0506 11.1191 6.82168 4.93554 13.4897 3.28657L13.6293 4.58139L17.0001 2.0294L13.1677 0.299805L13.3104 1.62422C5.81826 3.3774 0.436523 10.2792 0.436523 18.2491C0.436523 27.651 7.86691 35.2998 17.0001 35.2998C26.1332 35.2998 33.5636 27.651 33.5636 18.2491H31.9495Z" fill="#25C1CB"/>
<path d="M6.08588 18.2493C6.08588 24.4445 10.9819 29.4846 17.0001 29.4846C23.0182 29.4846 27.9143 24.4445 27.9143 18.2493C27.9143 12.0544 23.0181 7.01416 17.0001 7.01416C10.982 7.01416 6.08588 12.0544 6.08588 18.2493ZM17.0001 22.5955C14.6721 22.5955 12.7782 20.6459 12.7782 18.2493C12.7782 15.8529 14.6721 13.9033 17.0001 13.9033C19.328 13.9033 21.222 15.8529 21.222 18.2493C21.2219 20.6459 19.328 22.5955 17.0001 22.5955ZM13.8827 13.1745L11.3959 10.6145C12.7538 9.5557 14.4015 8.87162 16.1931 8.71227V12.3006C15.3527 12.4209 14.5696 12.7259 13.8827 13.1745ZM10.8569 25.4304L13.313 22.9021C14.3189 23.7483 15.6027 24.2571 17.0001 24.2571C18.2022 24.2571 19.3204 23.8806 20.25 23.2367L22.7274 25.787C21.1475 27.0618 19.1585 27.8229 17 27.8229C14.6475 27.8231 12.4965 26.9186 10.8569 25.4304Z" fill="#25C1CB"/>
</g>
<defs>
<clipPath id="clip0">
<rect width="34" height="35" fill="white" transform="translate(0 0.299805)"/>
</clipPath>
</defs>
</svg>
