<svg width="36" height="37" viewBox="0 0 36 37" fill="none" xmlns="http://www.w3.org/2000/svg">
<g clip-path="url(#clip0)">
<path d="M4.11429 32.1855V0.299805H0V36.2998H36V32.1855H4.11429Z" fill="#25C1CB"/>
<path d="M12.8641 22.0504H11.2292V20.4155H9.5942V22.0504H7.95929V23.6855H9.5942V25.3204H11.2292V23.6855H12.8641V22.0504Z" fill="#25C1CB"/>
<path d="M16.7565 15.0299H15.1216V13.395H13.4866V15.0299H11.8517V16.665H13.4866V18.2999H15.1216V16.665H16.7565V15.0299Z" fill="#25C1CB"/>
<path d="M21.6613 19.5983H20.0264V17.9634H18.3916V19.5983H16.7565V21.2334H18.3916V22.8682H20.0264V21.2334H21.6613V19.5983Z" fill="#25C1CB"/>
<path d="M24.1137 12.9406H22.4788V11.3057H20.8438V12.9406H19.2089V14.5756H20.8438V16.2105H22.4788V14.5756H24.1137V12.9406Z" fill="#25C1CB"/>
<path d="M31.0864 13.8263H29.4514V12.1914H27.8165V13.8263H26.1816V15.4613H27.8165V17.0963H29.4514V15.4613H31.0864V13.8263Z" fill="#25C1CB"/>
<path d="M32.2024 6.86685H30.5675V5.23193H28.9325V6.86685H27.2975V8.50186H28.9325V10.1368H30.5675V8.50186H32.2024V6.86685Z" fill="#25C1CB"/>
</g>
<defs>
<clipPath id="clip0">
<rect width="36" height="36" fill="white" transform="translate(0 0.299805)"/>
</clipPath>
</defs>
</svg>
