<svg width="31" height="32" viewBox="0 0 31 32" fill="none" xmlns="http://www.w3.org/2000/svg">
<g clip-path="url(#clip0)">
<path d="M23.3454 15.6898C26.1979 15.6898 28.5839 12.9409 28.5839 9.92995C28.5839 6.73413 25.9933 4.14355 22.7975 4.14355C19.7867 4.14355 17.0376 6.54073 17.0376 9.3822L17.04 15.687L23.3454 15.6898Z" fill="#25C1CB"/>
<path d="M7.7626 17.3374C4.31325 17.3374 1.4278 20.6616 1.4278 24.3027C1.4278 28.1672 4.56052 31.2998 8.42509 31.2998C12.0659 31.2998 15.3903 28.4012 15.3903 24.9651L15.3874 17.3408L7.7626 17.3374Z" fill="#25C1CB"/>
<path d="M24.6653 17.3374L17.0405 17.3408L17.0376 24.9651C17.0376 28.4012 20.3619 31.2998 24.0028 31.2998C27.8673 31.2998 31.0001 28.1672 31.0001 24.3027C31 20.6616 28.1147 17.3374 24.6653 17.3374Z" fill="#25C1CB"/>
<path d="M7.71275 0.299805C3.45306 0.299805 0 3.75294 0 8.01272C0 12.0259 3.19516 15.69 6.98255 15.69L15.3865 15.6868L15.3902 7.28252C15.3902 3.48039 11.7262 0.299805 7.71275 0.299805Z" fill="#25C1CB"/>
</g>
<defs>
<clipPath id="clip0">
<rect width="31" height="31" fill="white" transform="translate(0 0.299805)"/>
</clipPath>
</defs>
</svg>
