<svg width="35" height="35" viewBox="0 0 35 35" fill="none" xmlns="http://www.w3.org/2000/svg">
<g clip-path="url(#clip0)">
<path d="M28.4546 19.9396C28.0151 19.9396 27.5873 19.9889 27.1753 20.0793L22.502 11.7408C23.0248 10.856 23.3257 9.82579 23.3257 8.7241C23.3257 5.44642 20.6679 2.78906 17.3901 2.78906C14.1119 2.78906 11.4546 5.4465 11.4546 8.7241C11.4546 9.82579 11.7555 10.856 12.2783 11.7408L7.60494 20.0793C7.19294 19.989 6.76514 19.9396 6.32569 19.9396C3.04792 19.9396 0.390137 22.5969 0.390137 25.8757C0.390137 29.1533 3.04792 31.8106 6.32569 31.8106C9.1652 31.8106 11.5375 29.8169 12.1223 27.1535H22.658C23.2427 29.8169 25.6151 31.8106 28.4546 31.8106C31.7324 31.8106 34.3901 29.1532 34.3901 25.8757C34.3901 22.5967 31.7324 19.9396 28.4546 19.9396ZM17.2212 5.14773H18.2802V12.3004H16.9469V6.59409L15.8414 7.19011L15.5503 6.04269L17.2212 5.14773ZM8.63471 29.4515H4.01709V28.6511L4.77954 27.9103C6.49331 26.2785 7.21062 25.4485 7.22006 24.529C7.22006 24.0128 7.01937 23.3949 6.06304 23.3949C5.47203 23.3949 4.98753 23.7246 4.7514 23.9209L4.57834 24.066L4.14357 23.1033L4.24225 23.0197C4.79263 22.5554 5.50501 22.2995 6.24851 22.2995C7.78301 22.2995 8.47015 23.3631 8.47015 24.418C8.47015 25.7589 7.49206 26.805 6.10979 28.1365L5.87204 28.3561H8.63463L8.63471 29.4515ZM22.6214 24.7794H12.1589C11.8731 23.2486 11 21.9251 9.78179 21.0513L13.9716 13.575C14.9382 14.2579 16.1169 14.6602 17.3901 14.6602C18.6634 14.6602 19.8422 14.258 20.8087 13.575L24.9985 21.0513C23.7803 21.9251 22.9072 23.2486 22.6214 24.7794ZM28.1216 29.5081C27.3086 29.5081 26.6252 29.2489 26.2867 29.0267L26.1741 28.9533L26.538 27.9211L26.7204 28.0378C26.9343 28.1744 27.4997 28.4331 28.1114 28.4331C28.5715 28.4331 28.9246 28.312 29.1602 28.0716C29.3519 27.8758 29.4594 27.5987 29.4539 27.3103C29.4444 26.4469 28.6424 26.1392 27.8951 26.1392H27.2184V25.1162H27.8951C28.4265 25.1162 29.2169 24.8602 29.2169 24.1553C29.2169 23.6222 28.8515 23.3168 28.2142 23.3168C27.7242 23.3168 27.2402 23.5386 26.9751 23.7281L26.7903 23.8604L26.4334 22.8672L26.5364 22.791C26.9079 22.5184 27.625 22.2428 28.3898 22.2428C29.5938 22.2428 30.2426 22.8616 30.4239 23.5784C30.4594 23.7204 30.4772 23.8662 30.4772 24.0107C30.4772 24.671 30.1367 25.2199 29.528 25.5648C30.2734 25.8664 30.7345 26.5226 30.7345 27.3274C30.7345 28.4131 29.9265 29.5081 28.1216 29.5081Z" fill="#25C1CB"/>
<path d="M8.63471 29.4515H4.01709V28.6511L4.77954 27.9103C6.49331 26.2785 7.21062 25.4485 7.22006 24.529C7.22006 24.0128 7.01937 23.3949 6.06304 23.3949C5.47203 23.3949 4.98753 23.7246 4.7514 23.9209L4.57834 24.066L4.14357 23.1033L4.24225 23.0197C4.79263 22.5554 5.50501 22.2995 6.24851 22.2995C7.78301 22.2995 8.47015 23.3631 8.47015 24.418C8.47015 25.7589 7.49206 26.805 6.10979 28.1365L5.87204 28.3561H8.63463L8.63471 29.4515Z" fill="#25C1CB"/>
<path d="M17.2212 5.14773H18.2802V12.3004H16.9469V6.59409L15.8414 7.19011L15.5503 6.04269L17.2212 5.14773Z" fill="#25C1CB"/>
<path d="M28.1216 29.5081C27.3086 29.5081 26.6252 29.2489 26.2867 29.0267L26.1741 28.9533L26.538 27.9211L26.7204 28.0378C26.9343 28.1744 27.4997 28.4331 28.1114 28.4331C28.5715 28.4331 28.9246 28.312 29.1602 28.0716C29.3519 27.8758 29.4594 27.5987 29.4539 27.3103C29.4444 26.4469 28.6424 26.1392 27.8951 26.1392H27.2184V25.1162H27.8951C28.4265 25.1162 29.2169 24.8602 29.2169 24.1553C29.2169 23.6222 28.8515 23.3168 28.2142 23.3168C27.7242 23.3168 27.2402 23.5386 26.9751 23.7281L26.7903 23.8604L26.4334 22.8672L26.5364 22.791C26.9079 22.5184 27.625 22.2428 28.3898 22.2428C29.5938 22.2428 30.2426 22.8616 30.4239 23.5784C30.4594 23.7204 30.4772 23.8662 30.4772 24.0107C30.4772 24.671 30.1367 25.2199 29.528 25.5648C30.2734 25.8664 30.7345 26.5226 30.7345 27.3274C30.7345 28.4131 29.9265 29.5081 28.1216 29.5081Z" fill="#25C1CB"/>
</g>
<defs>
<clipPath id="clip0">
<rect width="34" height="34" fill="white" transform="translate(0.390137 0.299805)"/>
</clipPath>
</defs>
</svg>
