<svg width="56" height="55" viewBox="0 0 56 55" fill="none" xmlns="http://www.w3.org/2000/svg">
<path d="M39.4029 18.6983C39.1981 19.0752 38.9491 19.4336 38.6559 19.7733C38.3674 20.113 38.044 20.4132 37.6856 20.6738C37.3319 20.9344 36.948 21.1415 36.5338 21.2951C36.1243 21.4487 35.6938 21.5255 35.2424 21.5255C34.8934 21.5255 34.5536 21.4673 34.2232 21.3509C33.8928 21.2346 33.5973 21.0694 33.3367 20.8553C33.0807 20.6412 32.8736 20.3853 32.7154 20.0874C32.5618 19.7849 32.485 19.4499 32.485 19.0822C32.485 18.7239 32.5571 18.3911 32.7014 18.084C32.8457 17.7722 33.0318 17.4883 33.2599 17.2323C33.4926 16.9764 33.7532 16.7483 34.0417 16.5482C34.3349 16.3481 34.6304 16.1783 34.9283 16.0386C34.7188 16.0014 34.5304 15.9246 34.3628 15.8083C34.1953 15.6919 34.0533 15.5523 33.937 15.3894C33.8207 15.2266 33.7322 15.0451 33.6717 14.8449C33.6112 14.6448 33.581 14.4424 33.581 14.2376C33.581 13.9537 33.6322 13.6862 33.7346 13.4348C33.8369 13.1789 33.9742 12.9439 34.1464 12.7298C34.3233 12.5111 34.528 12.3156 34.7607 12.1434C34.9934 11.9666 35.2377 11.8177 35.4937 11.6967C35.7543 11.5757 36.0196 11.4826 36.2895 11.4174C36.5641 11.3523 36.8293 11.3197 37.0853 11.3197C37.4669 11.3197 37.8159 11.3965 38.1324 11.5501C38.4488 11.699 38.7281 11.9177 38.9701 12.2062L37.9579 12.9462C37.8601 12.8112 37.7531 12.6856 37.6368 12.5692C37.5251 12.4482 37.4017 12.3459 37.2668 12.2621C37.1365 12.1737 36.9945 12.1039 36.841 12.0527C36.692 12.0015 36.5315 11.9759 36.3593 11.9759C36.1452 11.9759 35.9335 12.0154 35.7241 12.0946C35.5193 12.169 35.3355 12.2761 35.1726 12.4157C35.0097 12.5506 34.8771 12.7135 34.7747 12.9043C34.677 13.0951 34.6281 13.3045 34.6281 13.5326C34.6281 13.7699 34.6793 13.991 34.7817 14.1957C34.884 14.3959 35.019 14.5704 35.1865 14.7193C35.3541 14.8682 35.5449 14.9846 35.759 15.0683C35.9777 15.1521 36.2011 15.194 36.4291 15.194C36.6897 15.194 36.9317 15.1521 37.1551 15.0683L37.2598 15.3545C36.8828 15.4755 36.5059 15.6314 36.1289 15.8222C35.7566 16.0084 35.4216 16.2341 35.1237 16.4994C34.8259 16.7646 34.5839 17.0718 34.3977 17.4208C34.2162 17.7699 34.1255 18.1654 34.1255 18.6075C34.1255 18.8635 34.1627 19.1008 34.2372 19.3196C34.3116 19.5383 34.4187 19.7291 34.5583 19.892C34.7025 20.0549 34.8771 20.1828 35.0818 20.2759C35.2913 20.369 35.5263 20.4155 35.7869 20.4155C36.0568 20.4155 36.3593 20.362 36.6944 20.255C37.0294 20.1433 37.3575 19.9967 37.6786 19.8152C37.9998 19.6337 38.2929 19.4266 38.5582 19.1939C38.8235 18.9612 39.0236 18.7239 39.1585 18.4819L39.4029 18.6983Z" fill="#0F1C29"/>
<path d="M44.9176 16.1783L44.3941 17.3929C44.2917 17.3091 44.1777 17.237 44.052 17.1765C43.931 17.1113 43.8054 17.0788 43.6751 17.0788C43.5727 17.0788 43.4749 17.0997 43.3819 17.1416C43.2934 17.1835 43.212 17.2393 43.1375 17.3091C43.0631 17.3789 42.9979 17.458 42.9421 17.5465C42.8862 17.6302 42.8397 17.714 42.8025 17.7978L42.6629 18.1957C42.7606 18.4004 42.856 18.5959 42.9491 18.7821C43.0282 18.9403 43.1096 19.1008 43.1934 19.2637C43.2772 19.4219 43.347 19.5476 43.4028 19.6407C43.4912 19.7756 43.5796 19.9152 43.6681 20.0595C43.7565 20.1991 43.8542 20.3271 43.9613 20.4435C44.0078 20.4946 44.0636 20.5295 44.1288 20.5482C44.1986 20.5621 44.2614 20.5691 44.3173 20.5691C44.4057 20.5691 44.4895 20.5575 44.5686 20.5342C44.6477 20.5109 44.7222 20.4807 44.792 20.4435L44.9665 20.6668C44.9013 20.7692 44.8222 20.8716 44.7291 20.974C44.6361 21.0764 44.5337 21.1694 44.422 21.2532C44.3149 21.337 44.1986 21.4045 44.0729 21.4557C43.952 21.5115 43.8286 21.5394 43.703 21.5394C43.5913 21.5394 43.4912 21.5208 43.4028 21.4836C43.319 21.451 43.2422 21.4068 43.1724 21.3509C43.1026 21.2904 43.0375 21.2206 42.977 21.1415C42.9165 21.0624 42.8537 20.981 42.7885 20.8972C42.7373 20.8181 42.6815 20.7227 42.621 20.611C42.5651 20.4946 42.5069 20.376 42.4465 20.255C42.386 20.134 42.3255 20.0176 42.265 19.9059C42.2045 19.7896 42.1463 19.6919 42.0904 19.6128C42.0672 19.6919 42.0462 19.771 42.0276 19.8501C42.009 19.9152 41.9881 19.9827 41.9648 20.0525C41.9415 20.1223 41.9206 20.1759 41.902 20.2131C41.8322 20.362 41.7437 20.5156 41.6367 20.6738C41.5297 20.832 41.4063 20.9763 41.2667 21.1066C41.1318 21.2323 40.9828 21.337 40.82 21.4208C40.6571 21.4999 40.4849 21.5394 40.3034 21.5394C40.1405 21.5394 39.9823 21.5068 39.8287 21.4417C39.6751 21.3812 39.5332 21.2998 39.4029 21.1974L39.8427 20.0386C39.9916 20.1317 40.1545 20.2154 40.3313 20.2899C40.5081 20.3597 40.685 20.3946 40.8618 20.3946C40.9177 20.3946 40.9759 20.3899 41.0364 20.3806C41.0969 20.3667 41.155 20.3481 41.2109 20.3248C41.2714 20.2969 41.3249 20.2643 41.3714 20.2271C41.418 20.1852 41.4529 20.1363 41.4761 20.0805C41.5087 20.02 41.5436 19.9408 41.5808 19.8431C41.6181 19.7454 41.6553 19.6477 41.6925 19.5499C41.7344 19.4382 41.7763 19.3196 41.8182 19.1939L40.5058 17.0927C40.4453 17.0229 40.3709 16.9671 40.2824 16.9252C40.1987 16.8787 40.1102 16.8554 40.0172 16.8554C39.9381 16.8554 39.8636 16.8717 39.7938 16.9042C39.724 16.9322 39.6565 16.9717 39.5914 17.0229L39.4029 16.7786C39.468 16.6809 39.5448 16.5855 39.6332 16.4924C39.7263 16.3947 39.8264 16.3086 39.9334 16.2341C40.0404 16.155 40.1545 16.0922 40.2755 16.0456C40.3965 15.9944 40.5198 15.9688 40.6454 15.9688C40.799 15.9688 40.9409 16.0084 41.0713 16.0875C41.2016 16.162 41.3226 16.255 41.4343 16.3667C41.5459 16.4784 41.6483 16.5994 41.7414 16.7297C41.8345 16.86 41.9182 16.981 41.9927 17.0927C42.0299 17.1439 42.0695 17.2091 42.1114 17.2882C42.1579 17.3626 42.2021 17.4371 42.244 17.5116C42.2952 17.5953 42.3441 17.6861 42.3906 17.7838C42.4371 17.6721 42.486 17.5604 42.5372 17.4487C42.5791 17.3557 42.621 17.2603 42.6629 17.1625C42.7094 17.0602 42.7513 16.9717 42.7885 16.8973C42.8583 16.767 42.9374 16.646 43.0258 16.5343C43.1143 16.4226 43.212 16.3249 43.319 16.2411C43.4307 16.1573 43.5517 16.0922 43.682 16.0456C43.8123 15.9944 43.9543 15.9688 44.1079 15.9688C44.2521 15.9688 44.3917 15.9875 44.5267 16.0247C44.6617 16.0619 44.792 16.1131 44.9176 16.1783Z" fill="#0F1C29"/>
<path d="M38.7257 6.86665L44.5865 6.91324L47.5573 11.9656L50.4473 17.0645L47.5573 22.1634L44.5865 27.2157L38.7258 27.2623L32.8649 27.2157L29.8941 22.1633L27.0041 17.0645L29.8942 11.9656L32.8649 6.91324L38.7257 6.86665Z" stroke="#0F1C29"/>
<circle cx="12.6853" cy="30.5961" r="11.054" stroke="#008C95"/>
<circle cx="12.6853" cy="30.5956" r="9.2845" stroke="#008C95"/>
<rect x="0.480103" y="29.4112" width="0.913372" height="2.02136" fill="#008C95"/>
<line x1="7.19861" y1="27.0093" x2="14.6167" y2="27.0093" stroke="#008C95"/>
<line x1="7.19861" y1="30.3931" x2="18.1719" y2="30.3931" stroke="#008C95"/>
<line x1="7.19861" y1="33.8462" x2="18.1719" y2="33.8462" stroke="#008C95"/>
<path d="M18.7343 21.4595L17.6095 6.67116" stroke="#008C95"/>
<path d="M18.7343 39.6694L17.6095 54.4578" stroke="#008C95"/>
<path d="M6.07377 21.4595L7.19864 6.67116" stroke="#008C95"/>
<path d="M6.07377 39.4307L7.19864 54.219" stroke="#008C95"/>
</svg>
