<svg width="57" height="35" viewBox="0 0 57 35" fill="none" xmlns="http://www.w3.org/2000/svg">
<path d="M39.9108 19.2403C39.706 19.6172 39.4571 19.9756 39.1639 20.3153C38.8753 20.655 38.5519 20.9552 38.1936 21.2158C37.8399 21.4764 37.4559 21.6835 37.0417 21.8371C36.6322 21.9907 36.2017 22.0675 35.7503 22.0675C35.4013 22.0675 35.0616 22.0093 34.7311 21.8929C34.4007 21.7766 34.1052 21.6114 33.8446 21.3973C33.5886 21.1832 33.3815 20.9273 33.2233 20.6294C33.0697 20.3269 32.993 19.9919 32.993 19.6242C32.993 19.2659 33.0651 18.9331 33.2094 18.626C33.3536 18.3142 33.5398 18.0303 33.7678 17.7743C34.0005 17.5184 34.2611 17.2903 34.5496 17.0902C34.8428 16.8901 35.1383 16.7202 35.4362 16.5806C35.2268 16.5434 35.0383 16.4666 34.8708 16.3503C34.7032 16.2339 34.5613 16.0943 34.4449 15.9314C34.3286 15.7685 34.2402 15.5871 34.1797 15.3869C34.1192 15.1868 34.0889 14.9844 34.0889 14.7796C34.0889 14.4957 34.1401 14.2281 34.2425 13.9768C34.3449 13.7209 34.4822 13.4859 34.6544 13.2718C34.8312 13.0531 35.036 12.8576 35.2687 12.6854C35.5013 12.5086 35.7457 12.3596 36.0016 12.2387C36.2622 12.1177 36.5275 12.0246 36.7974 11.9594C37.072 11.8943 37.3373 11.8617 37.5932 11.8617C37.9748 11.8617 38.3239 11.9385 38.6403 12.0921C38.9568 12.241 39.236 12.4597 39.478 12.7482L38.4658 13.4882C38.3681 13.3532 38.261 13.2276 38.1447 13.1112C38.033 12.9902 37.9097 12.8879 37.7747 12.8041C37.6444 12.7157 37.5025 12.6459 37.3489 12.5947C37.2 12.5435 37.0394 12.5179 36.8672 12.5179C36.6532 12.5179 36.4414 12.5574 36.232 12.6366C36.0272 12.711 35.8434 12.818 35.6805 12.9577C35.5176 13.0926 35.385 13.2555 35.2826 13.4463C35.1849 13.6371 35.136 13.8465 35.136 14.0746C35.136 14.3119 35.1872 14.533 35.2896 14.7377C35.392 14.9378 35.5269 15.1124 35.6945 15.2613C35.862 15.4102 36.0528 15.5266 36.2669 15.6103C36.4856 15.6941 36.709 15.736 36.937 15.736C37.1976 15.736 37.4396 15.6941 37.663 15.6103L37.7677 15.8965C37.3908 16.0175 37.0138 16.1734 36.6369 16.3642C36.2646 16.5504 35.9295 16.7761 35.6316 17.0414C35.3338 17.3066 35.0918 17.6138 34.9057 17.9628C34.7242 18.3118 34.6334 18.7074 34.6334 19.1495C34.6334 19.4055 34.6706 19.6428 34.7451 19.8616C34.8196 20.0803 34.9266 20.2711 35.0662 20.434C35.2105 20.5969 35.385 20.7248 35.5898 20.8179C35.7992 20.911 36.0342 20.9575 36.2948 20.9575C36.5647 20.9575 36.8672 20.904 37.2023 20.797C37.5374 20.6853 37.8655 20.5387 38.1866 20.3572C38.5077 20.1757 38.8009 19.9686 39.0661 19.7359C39.3314 19.5032 39.5315 19.2659 39.6665 19.0239L39.9108 19.2403Z" fill="#0F1C29"/>
<path d="M45.4255 16.7202L44.902 17.9349C44.7996 17.8511 44.6856 17.779 44.5599 17.7185C44.4389 17.6533 44.3133 17.6208 44.183 17.6208C44.0806 17.6208 43.9829 17.6417 43.8898 17.6836C43.8014 17.7255 43.7199 17.7813 43.6455 17.8511C43.571 17.9209 43.5059 18 43.45 18.0885C43.3942 18.1722 43.3476 18.256 43.3104 18.3398L43.1708 18.7377C43.2685 18.9424 43.3639 19.1379 43.457 19.324C43.5361 19.4823 43.6175 19.6428 43.7013 19.8057C43.7851 19.9639 43.8549 20.0896 43.9107 20.1827C43.9992 20.3176 44.0876 20.4572 44.176 20.6015C44.2644 20.7411 44.3622 20.8691 44.4692 20.9854C44.5157 21.0366 44.5716 21.0715 44.6367 21.0902C44.7065 21.1041 44.7694 21.1111 44.8252 21.1111C44.9136 21.1111 44.9974 21.0995 45.0765 21.0762C45.1556 21.0529 45.2301 21.0227 45.2999 20.9854L45.4744 21.2088C45.4093 21.3112 45.3301 21.4136 45.2371 21.516C45.144 21.6184 45.0416 21.7114 44.9299 21.7952C44.8229 21.879 44.7065 21.9465 44.5809 21.9976C44.4599 22.0535 44.3366 22.0814 44.2109 22.0814C44.0992 22.0814 43.9992 22.0628 43.9107 22.0256C43.827 21.993 43.7502 21.9488 43.6804 21.8929C43.6106 21.8324 43.5454 21.7626 43.4849 21.6835C43.4244 21.6044 43.3616 21.523 43.2964 21.4392C43.2452 21.3601 43.1894 21.2647 43.1289 21.153C43.0731 21.0366 43.0149 20.918 42.9544 20.797C42.8939 20.676 42.8334 20.5596 42.7729 20.4479C42.7124 20.3316 42.6542 20.2339 42.5984 20.1547C42.5751 20.2339 42.5542 20.313 42.5355 20.3921C42.5169 20.4572 42.496 20.5247 42.4727 20.5945C42.4494 20.6643 42.4285 20.7179 42.4099 20.7551C42.3401 20.904 42.2517 21.0576 42.1446 21.2158C42.0376 21.374 41.9143 21.5183 41.7746 21.6486C41.6397 21.7743 41.4908 21.879 41.3279 21.9627C41.165 22.0419 40.9928 22.0814 40.8113 22.0814C40.6484 22.0814 40.4902 22.0488 40.3366 21.9837C40.1831 21.9232 40.0411 21.8417 39.9108 21.7394L40.3506 20.5806C40.4995 20.6736 40.6624 20.7574 40.8392 20.8319C41.0161 20.9017 41.1929 20.9366 41.3698 20.9366C41.4256 20.9366 41.4838 20.9319 41.5443 20.9226C41.6048 20.9087 41.663 20.89 41.7188 20.8668C41.7793 20.8389 41.8328 20.8063 41.8794 20.769C41.9259 20.7272 41.9608 20.6783 41.9841 20.6225C42.0166 20.562 42.0515 20.4828 42.0888 20.3851C42.126 20.2874 42.1632 20.1896 42.2005 20.0919C42.2424 19.9802 42.2842 19.8616 42.3261 19.7359L41.0138 17.6347C40.9533 17.5649 40.8788 17.5091 40.7904 17.4672C40.7066 17.4206 40.6182 17.3974 40.5251 17.3974C40.446 17.3974 40.3715 17.4137 40.3017 17.4462C40.2319 17.4742 40.1644 17.5137 40.0993 17.5649L39.9108 17.3206C39.976 17.2229 40.0527 17.1275 40.1412 17.0344C40.2342 16.9367 40.3343 16.8506 40.4413 16.7761C40.5484 16.697 40.6624 16.6342 40.7834 16.5876C40.9044 16.5364 41.0277 16.5108 41.1534 16.5108C41.3069 16.5108 41.4489 16.5504 41.5792 16.6295C41.7095 16.704 41.8305 16.797 41.9422 16.9087C42.0539 17.0204 42.1563 17.1414 42.2493 17.2717C42.3424 17.402 42.4262 17.523 42.5006 17.6347C42.5379 17.6859 42.5774 17.7511 42.6193 17.8302C42.6658 17.9046 42.7101 17.9791 42.7519 18.0536C42.8031 18.1373 42.852 18.2281 42.8985 18.3258C42.9451 18.2141 42.9939 18.1024 43.0451 17.9907C43.087 17.8977 43.1289 17.8023 43.1708 17.7045C43.2173 17.6021 43.2592 17.5137 43.2964 17.4393C43.3662 17.309 43.4454 17.188 43.5338 17.0763C43.6222 16.9646 43.7199 16.8668 43.827 16.7831C43.9387 16.6993 44.0597 16.6342 44.19 16.5876C44.3203 16.5364 44.4622 16.5108 44.6158 16.5108C44.7601 16.5108 44.8997 16.5294 45.0346 16.5667C45.1696 16.6039 45.2999 16.6551 45.4255 16.7202Z" fill="#0F1C29"/>
<path d="M39.2336 7.40864L45.0945 7.45523L48.0652 12.5076L50.9553 17.6065L48.0652 22.7054L45.0945 27.7577L39.2337 27.8043L33.3728 27.7577L30.4021 22.7053L27.512 17.6065L30.4021 12.5075L33.3728 7.45523L39.2336 7.40864Z" stroke="#0F1C29"/>
<rect x="12.6988" y="5.91812" width="12.8383" height="22.0425" rx="0.5" transform="rotate(30 12.6988 5.91812)" stroke="#008C95"/>
<line x1="8.16705" y1="8.85232" x2="1.78952" y2="19.5149" stroke="#008C95" stroke-linecap="round"/>
<line x1="24.0055" y1="17.3296" x2="17.628" y2="27.9921" stroke="#008C95" stroke-linecap="round"/>
<line x1="24.6989" y1="21.4276" x2="21.7331" y2="26.8529" stroke="#008C95" stroke-linecap="round"/>
<line x1="4.14826" y1="9.84305" x2="1.18247" y2="15.2684" stroke="#008C95" stroke-linecap="round"/>
</svg>
