<svg width="57" height="49" viewBox="0 0 57 49" fill="none" xmlns="http://www.w3.org/2000/svg">
<path d="M12.3897 47.2869C18.1409 47.2869 22.8032 42.6246 22.8032 36.8734C22.8032 33.2009 20.9021 29.9724 18.0303 28.1184V11.0789C18.0303 7.96363 15.5049 5.43823 12.3897 5.43823C9.27446 5.43823 6.74906 7.96363 6.74906 11.0789V28.1184C3.8773 29.9724 1.9762 33.2009 1.9762 36.8734C1.9762 42.6246 6.63848 47.2869 12.3897 47.2869Z" stroke="#008C95" stroke-width="2"/>
<path d="M12.3897 44.5893C16.6823 44.5893 20.1622 41.1094 20.1622 36.8168C20.1622 34.0758 18.6187 31.1874 15.2493 30.2823V14.3542C15.2493 13.802 14.8016 13.3542 14.2493 13.3542H10.1925C9.64025 13.3542 9.19254 13.802 9.19254 14.3542V30.2823C5.6785 31.3687 4.61731 34.0758 4.61731 36.8168C4.61731 41.1094 8.09715 44.5893 12.3897 44.5893Z" fill="#008C95"/>
<path d="M40.2774 19.2403C40.0726 19.6172 39.8236 19.9756 39.5305 20.3153C39.2419 20.655 38.9185 20.9552 38.5601 21.2158C38.2064 21.4764 37.8225 21.6835 37.4083 21.8371C36.9988 21.9907 36.5683 22.0675 36.1169 22.0675C35.7679 22.0675 35.4281 22.0093 35.0977 21.8929C34.7673 21.7766 34.4718 21.6114 34.2112 21.3973C33.9552 21.1832 33.7481 20.9273 33.5899 20.6294C33.4363 20.3269 33.3595 19.9919 33.3595 19.6242C33.3595 19.2659 33.4317 18.9331 33.5759 18.626C33.7202 18.3142 33.9063 18.0303 34.1344 17.7743C34.3671 17.5184 34.6277 17.2903 34.9162 17.0902C35.2094 16.8901 35.5049 16.7202 35.8028 16.5806C35.5933 16.5434 35.4049 16.4666 35.2373 16.3503C35.0698 16.2339 34.9279 16.0943 34.8115 15.9314C34.6952 15.7685 34.6067 15.5871 34.5462 15.3869C34.4857 15.1868 34.4555 14.9844 34.4555 14.7796C34.4555 14.4957 34.5067 14.2281 34.6091 13.9768C34.7115 13.7209 34.8487 13.4859 35.0209 13.2718C35.1978 13.0531 35.4025 12.8576 35.6352 12.6854C35.8679 12.5086 36.1122 12.3596 36.3682 12.2387C36.6288 12.1177 36.8941 12.0246 37.164 11.9594C37.4386 11.8943 37.7038 11.8617 37.9598 11.8617C38.3414 11.8617 38.6904 11.9385 39.0069 12.0921C39.3234 12.241 39.6026 12.4597 39.8446 12.7482L38.8324 13.4882C38.7347 13.3532 38.6276 13.2276 38.5113 13.1112C38.3996 12.9902 38.2763 12.8879 38.1413 12.8041C38.011 12.7157 37.869 12.6459 37.7155 12.5947C37.5666 12.5435 37.406 12.5179 37.2338 12.5179C37.0197 12.5179 36.808 12.5574 36.5986 12.6366C36.3938 12.711 36.21 12.818 36.0471 12.9577C35.8842 13.0926 35.7516 13.2555 35.6492 13.4463C35.5515 13.6371 35.5026 13.8465 35.5026 14.0746C35.5026 14.3119 35.5538 14.533 35.6562 14.7377C35.7586 14.9378 35.8935 15.1124 36.0611 15.2613C36.2286 15.4102 36.4194 15.5266 36.6335 15.6103C36.8522 15.6941 37.0756 15.736 37.3036 15.736C37.5642 15.736 37.8062 15.6941 38.0296 15.6103L38.1343 15.8965C37.7574 16.0175 37.3804 16.1734 37.0034 16.3642C36.6311 16.5504 36.2961 16.7761 35.9982 17.0414C35.7004 17.3066 35.4584 17.6138 35.2722 17.9628C35.0907 18.3118 35 18.7074 35 19.1495C35 19.4055 35.0372 19.6428 35.1117 19.8616C35.1861 20.0803 35.2932 20.2711 35.4328 20.434C35.5771 20.5969 35.7516 20.7248 35.9563 20.8179C36.1658 20.911 36.4008 20.9575 36.6614 20.9575C36.9313 20.9575 37.2338 20.904 37.5689 20.797C37.904 20.6853 38.232 20.5387 38.5532 20.3572C38.8743 20.1757 39.1675 19.9686 39.4327 19.7359C39.698 19.5032 39.8981 19.2659 40.0331 19.0239L40.2774 19.2403Z" fill="#0F1C29"/>
<path d="M45.7921 16.7202L45.2686 17.9349C45.1662 17.8511 45.0522 17.779 44.9265 17.7185C44.8055 17.6533 44.6799 17.6208 44.5496 17.6208C44.4472 17.6208 44.3494 17.6417 44.2564 17.6836C44.168 17.7255 44.0865 17.7813 44.012 17.8511C43.9376 17.9209 43.8724 18 43.8166 18.0885C43.7607 18.1722 43.7142 18.256 43.677 18.3398L43.5374 18.7377C43.6351 18.9424 43.7305 19.1379 43.8236 19.324C43.9027 19.4823 43.9841 19.6428 44.0679 19.8057C44.1517 19.9639 44.2215 20.0896 44.2773 20.1827C44.3657 20.3176 44.4542 20.4572 44.5426 20.6015C44.631 20.7411 44.7287 20.8691 44.8358 20.9854C44.8823 21.0366 44.9382 21.0715 45.0033 21.0902C45.0731 21.1041 45.1359 21.1111 45.1918 21.1111C45.2802 21.1111 45.364 21.0995 45.4431 21.0762C45.5222 21.0529 45.5967 21.0227 45.6665 20.9854L45.841 21.2088C45.7758 21.3112 45.6967 21.4136 45.6036 21.516C45.5106 21.6184 45.4082 21.7114 45.2965 21.7952C45.1895 21.879 45.0731 21.9465 44.9475 21.9976C44.8265 22.0535 44.7031 22.0814 44.5775 22.0814C44.4658 22.0814 44.3657 22.0628 44.2773 22.0256C44.1935 21.993 44.1168 21.9488 44.047 21.8929C43.9771 21.8324 43.912 21.7626 43.8515 21.6835C43.791 21.6044 43.7282 21.523 43.663 21.4392C43.6118 21.3601 43.556 21.2647 43.4955 21.153C43.4396 21.0366 43.3815 20.918 43.321 20.797C43.2605 20.676 43.2 20.5596 43.1395 20.4479C43.079 20.3316 43.0208 20.2339 42.9649 20.1547C42.9417 20.2339 42.9207 20.313 42.9021 20.3921C42.8835 20.4572 42.8626 20.5247 42.8393 20.5945C42.816 20.6643 42.7951 20.7179 42.7765 20.7551C42.7067 20.904 42.6182 21.0576 42.5112 21.2158C42.4042 21.374 42.2808 21.5183 42.1412 21.6486C42.0063 21.7743 41.8573 21.879 41.6945 21.9627C41.5316 22.0419 41.3594 22.0814 41.1779 22.0814C41.015 22.0814 40.8568 22.0488 40.7032 21.9837C40.5496 21.9232 40.4077 21.8417 40.2774 21.7394L40.7172 20.5806C40.8661 20.6736 41.029 20.7574 41.2058 20.8319C41.3827 20.9017 41.5595 20.9366 41.7363 20.9366C41.7922 20.9366 41.8504 20.9319 41.9109 20.9226C41.9714 20.9087 42.0295 20.89 42.0854 20.8668C42.1459 20.8389 42.1994 20.8063 42.2459 20.769C42.2925 20.7272 42.3274 20.6783 42.3506 20.6225C42.3832 20.562 42.4181 20.4828 42.4554 20.3851C42.4926 20.2874 42.5298 20.1896 42.567 20.0919C42.6089 19.9802 42.6508 19.8616 42.6927 19.7359L41.3803 17.6347C41.3198 17.5649 41.2454 17.5091 41.157 17.4672C41.0732 17.4206 40.9848 17.3974 40.8917 17.3974C40.8126 17.3974 40.7381 17.4137 40.6683 17.4462C40.5985 17.4742 40.531 17.5137 40.4659 17.5649L40.2774 17.3206C40.3425 17.2229 40.4193 17.1275 40.5077 17.0344C40.6008 16.9367 40.7009 16.8506 40.8079 16.7761C40.915 16.697 41.029 16.6342 41.15 16.5876C41.271 16.5364 41.3943 16.5108 41.5199 16.5108C41.6735 16.5108 41.8155 16.5504 41.9458 16.6295C42.0761 16.704 42.1971 16.797 42.3088 16.9087C42.4205 17.0204 42.5228 17.1414 42.6159 17.2717C42.709 17.402 42.7928 17.523 42.8672 17.6347C42.9044 17.6859 42.944 17.7511 42.9859 17.8302C43.0324 17.9046 43.0766 17.9791 43.1185 18.0536C43.1697 18.1373 43.2186 18.2281 43.2651 18.3258C43.3117 18.2141 43.3605 18.1024 43.4117 17.9907C43.4536 17.8977 43.4955 17.8023 43.5374 17.7045C43.5839 17.6021 43.6258 17.5137 43.663 17.4393C43.7328 17.309 43.8119 17.188 43.9004 17.0763C43.9888 16.9646 44.0865 16.8668 44.1935 16.7831C44.3052 16.6993 44.4262 16.6342 44.5565 16.5876C44.6868 16.5364 44.8288 16.5108 44.9824 16.5108C45.1266 16.5108 45.2662 16.5294 45.4012 16.5667C45.5362 16.6039 45.6665 16.6551 45.7921 16.7202Z" fill="#0F1C29"/>
<path d="M39.6002 7.40864L45.461 7.45523L48.4318 12.5076L51.3219 17.6065L48.4318 22.7054L45.461 27.7577L39.6003 27.8043L33.7394 27.7577L30.7687 22.7053L27.8786 17.6065L30.7687 12.5075L33.7394 7.45523L39.6002 7.40864Z" stroke="#0F1C29"/>
</svg>
