<svg width="32" height="31" viewBox="0 0 32 31" fill="none" xmlns="http://www.w3.org/2000/svg">
<path d="M28.9796 4.63741C29.1704 4.47466 29.1931 4.18803 29.0304 3.99725C28.8676 3.80658 28.5811 3.7837 28.3901 3.94651L27.4098 4.78284C27.2191 4.94559 27.1964 5.23222 27.3591 5.42301C27.4489 5.5283 27.5765 5.58236 27.7048 5.58236C27.809 5.58236 27.9138 5.5467 27.9993 5.47374L28.9796 4.63741Z" fill="#0F1C29"/>
<path d="M26.9995 14.0264V14.5852C26.9995 14.8359 27.2028 15.0393 27.4536 15.0393C27.7045 15.0393 27.9077 14.8359 27.9077 14.5852V14.0264C27.9077 13.7756 27.7045 13.5723 27.4536 13.5723C27.2028 13.5723 26.9995 13.7756 26.9995 14.0264Z" fill="#0F1C29"/>
<path d="M4.04097 23.4064C3.56805 23.8793 3.56805 24.6488 4.04097 25.1218C4.51497 25.5958 5.28238 25.596 5.75651 25.1218C6.22942 24.6488 6.22942 23.8793 5.75651 23.4064C5.28244 22.9323 4.51503 22.9322 4.04097 23.4064ZM5.11425 24.4796C4.99552 24.5983 4.80286 24.5992 4.68317 24.4796C4.56432 24.3607 4.56432 24.1673 4.68317 24.0485C4.8019 23.9298 4.99461 23.9289 5.11425 24.0485C5.2331 24.1673 5.2331 24.3608 5.11425 24.4796Z" fill="#0F1C29"/>
<path d="M9.31563 21.5623C9.78976 21.0881 9.78982 20.3209 9.31569 19.8468C8.84162 19.3727 8.07433 19.3727 7.6002 19.8468C7.12607 20.3209 7.12613 21.0881 7.6002 21.5623C8.07421 22.0363 8.8415 22.0364 9.31563 21.5623ZM8.2424 20.489C8.3618 20.3696 8.55451 20.37 8.67343 20.4889V20.489C8.79258 20.6081 8.7927 20.8008 8.67343 20.9201C8.55427 21.0392 8.36162 21.0392 8.24234 20.92C8.12343 20.8011 8.12301 20.6084 8.2424 20.489Z" fill="#0F1C29"/>
<path d="M6.1626 21.88C5.9852 22.0574 5.9852 22.3449 6.16254 22.5222L6.64086 23.0006C6.72956 23.0893 6.84575 23.1336 6.962 23.1336C7.07819 23.1336 7.19444 23.0893 7.28308 23.0006C7.46048 22.8233 7.46048 22.5358 7.28314 22.3585L6.80482 21.8801C6.62736 21.7028 6.33982 21.7027 6.1626 21.88Z" fill="#0F1C29"/>
<path d="M15.7663 7.05954H17.8807C18.1315 7.05954 18.3348 6.85623 18.3348 6.60545C18.3348 6.35468 18.1315 6.15137 17.8807 6.15137H15.7663C15.5155 6.15137 15.3123 6.35468 15.3123 6.60545C15.3123 6.85623 15.5155 7.05954 15.7663 7.05954Z" fill="#0F1C29"/>
<path d="M31.4754 30.0918H23.9269V28.2742C23.9269 27.8035 23.544 27.4206 23.0732 27.4206H22.2086V25.4572C22.2086 25.0669 21.891 24.7495 21.5008 24.7495H20.9307L18.8222 8.45813H19.6173C20.1896 8.45813 20.6552 7.99254 20.6552 7.42021V5.65895L25.5062 6.17982V19.6448C25.5062 19.8072 25.5928 19.9571 25.7334 20.0382C25.8719 20.1181 26.0451 20.1204 26.1877 20.0378C27.5307 19.2606 28.6103 18.035 29.3964 16.3949C29.5049 16.1688 29.4094 15.8975 29.1833 15.7892C28.9573 15.6807 28.6859 15.7761 28.5775 16.0023C28.0128 17.1803 27.2872 18.1157 26.4143 18.7929C26.4143 18.2304 26.4143 4.90577 26.4143 4.20854L29.3398 1.71269C30.2344 6.89558 30.1922 11.1466 29.2139 14.3515C29.1407 14.5913 29.2758 14.8451 29.5156 14.9183C29.7554 14.9915 30.0093 14.8565 30.0825 14.6166C31.1194 11.2201 31.1551 6.73811 30.1887 1.29523C30.1413 1.02847 29.9533 0.805848 29.6981 0.714364C29.443 0.622881 29.1566 0.675192 28.9504 0.851014L25.8321 3.51136L12.6074 0.932568C12.3609 0.884556 12.1228 1.04524 12.0748 1.29136C12.0268 1.53747 12.1874 1.77596 12.4336 1.82397L25.5061 4.37316V5.2665C24.7771 5.18815 4.80663 3.04371 4.13301 2.97142L4.2409 2.77507C4.99777 1.39822 6.54246 0.675252 8.08466 0.975918L10.618 1.46997C10.8648 1.51816 11.1026 1.35729 11.1507 1.11118C11.1987 0.865061 11.038 0.626574 10.7919 0.578562L8.25848 0.0845147C6.32734 -0.292136 4.39287 0.613375 3.4451 2.33758L3.00875 3.13138C2.93555 3.26446 2.93379 3.42533 3.00402 3.56004C3.07426 3.69475 3.20715 3.78539 3.35821 3.80161L4.81202 3.9577V4.80672C4.81202 5.36216 5.26393 5.81407 5.81943 5.81407H6.29991V19.2692L4.42683 21.1422C4.2495 21.3196 4.2495 21.607 4.42683 21.7844C4.60417 21.9616 4.89164 21.9617 5.06903 21.7844L7.46304 19.3904C8.10119 18.7522 9.13426 18.7522 9.77259 19.3904C10.4093 20.0272 10.4093 21.0632 9.77259 21.6999L5.98338 25.4891C5.34675 26.1258 4.31059 26.1259 3.67383 25.4891C3.03702 24.8523 3.03702 23.8163 3.67383 23.1795L3.78524 23.0681C3.96257 22.8907 3.96257 22.6033 3.78524 22.4259C3.60784 22.2486 3.32037 22.2486 3.14304 22.4259L3.03163 22.5373C2.04081 23.5282 2.04081 25.1404 3.03163 26.1313C3.11973 26.2194 3.21297 26.2993 3.31002 26.3717L2.09997 30.0917H1.38451C1.13367 30.0917 0.93042 30.295 0.93042 30.5458C0.93042 30.7966 1.13367 30.9999 1.38451 30.9999H31.4754C31.7262 30.9999 31.9295 30.7966 31.9295 30.5458C31.9295 30.295 31.7261 30.0918 31.4754 30.0918ZM21.3004 27.4206H12.3479V25.6576H21.3004V27.4206ZM19.6695 22.0803L15.0157 20.2748L19.2026 18.4725L19.6695 22.0803ZM19.0253 17.1026L15.422 15.3633L18.5751 13.6239L19.0253 17.1026ZM17.9276 8.62154L18.3736 12.0674L15.85 10.4309L17.9276 8.62154ZM16.7011 8.48537L15.616 9.4303L15.7383 8.48537H16.7011ZM15.3854 11.212L17.9971 12.9056L14.9485 14.5872L15.3854 11.212ZM14.759 16.0517L18.4219 17.8198L14.3006 19.5938L14.759 16.0517ZM14.1308 20.9056L19.0624 22.8189L15.5176 24.744C15.5145 24.7457 15.5117 24.7478 15.5086 24.7495H13.6333L14.1308 20.9056ZM17.4105 24.7495L19.8439 23.4279L20.015 24.7495H17.4105ZM19.747 7.42027C19.747 7.49183 19.6888 7.55001 19.6172 7.55001H14.031C13.9595 7.55001 13.9013 7.49183 13.9013 7.42027V4.93368L19.747 5.56141V7.42027H19.747ZM5.72013 4.80672V4.05524L7.78762 4.27726V4.80678C7.78762 4.86145 7.74318 4.90595 7.68845 4.90595H5.81937C5.76469 4.90589 5.72013 4.86139 5.72013 4.80672ZM10.4147 22.3422C11.4055 21.3514 11.4055 19.7392 10.4147 18.7483C9.53114 17.8648 8.18038 17.779 7.20797 18.4299V5.81407H7.68851C8.24395 5.81407 8.69586 5.36216 8.69586 4.80672V4.37473L12.9932 4.83621V7.42027C12.9932 7.9926 13.4588 8.45819 14.0311 8.45819H14.8262L12.7177 24.7495H12.1476C11.7574 24.7495 11.4399 25.067 11.4399 25.4573V27.4206H10.5752C10.1045 27.4206 9.72155 27.8035 9.72155 28.2743V30.0919H8.11481L6.77719 25.9798L10.4147 22.3422ZM3.05488 30.0918L4.13295 26.7776C4.36005 26.8419 4.59424 26.8745 4.82861 26.8745C5.23783 26.8744 5.64699 26.7763 6.01765 26.5804L7.15983 30.0918H3.05488ZM10.6296 30.0918V28.3288H23.0187V30.0918H10.6296Z" fill="#0F1C29"/>
</svg>
