<svg width="32" height="29" viewBox="0 0 32 29" fill="none" xmlns="http://www.w3.org/2000/svg">
<path d="M31.9294 19.0422C31.9294 18.3166 31.8204 17.6001 31.6055 16.9127C31.5308 16.6733 31.2761 16.5399 31.0366 16.6148C30.7972 16.6897 30.6638 16.9444 30.7387 17.1838C30.9261 17.7833 31.0212 18.4087 31.0212 19.0422C31.0212 21.9678 28.9617 24.4907 26.1524 25.114V23.3834C26.1524 22.8889 25.7501 22.4865 25.2555 22.4865H24.3993C23.9048 22.4865 23.5024 22.8889 23.5024 23.3834V25.126C20.6628 24.5237 18.5801 21.9949 18.5801 19.0421C18.5801 16.5297 20.0672 14.2911 22.3755 13.3136H27.2257C28.3289 13.781 29.2687 14.5512 29.9466 15.5472C30.0345 15.6763 30.1773 15.7458 30.3225 15.7458C30.4104 15.7458 30.4994 15.7203 30.5776 15.667C30.7849 15.5259 30.8386 15.2434 30.6974 15.0361C30.2387 14.3621 29.6747 13.7786 29.0297 13.3029C29.638 13.227 30.1106 12.7077 30.1106 12.0792V11.4912C30.1106 10.8106 29.5568 10.2568 28.8763 10.2568H23.7205C23.4696 10.2568 23.2664 10.4602 23.2664 10.711C23.2664 10.9618 23.4696 11.1651 23.7205 11.1651H28.8763C29.056 11.1651 29.2023 11.3114 29.2023 11.4912V12.0792C29.2023 12.259 29.056 12.4053 28.8763 12.4053H27.3164C27.3147 12.4053 27.3131 12.4053 27.3114 12.4053H22.2895C22.2882 12.4053 22.2869 12.4053 22.2856 12.4053H20.725C20.5452 12.4053 20.3989 12.259 20.3989 12.0792V11.4912C20.3989 11.3114 20.5452 11.1651 20.725 11.1651H21.7852C22.036 11.1651 22.2393 10.9618 22.2393 10.711C22.2393 10.4602 22.036 10.2568 21.7852 10.2568H20.725C20.0444 10.2568 19.4906 10.8106 19.4906 11.4912V12.0792C19.4906 12.7067 19.9617 13.2253 20.5686 13.3025C18.7691 14.6245 17.6719 16.7322 17.6719 19.0421C17.6719 20.3259 18.0156 21.54 18.6198 22.5902V27.4763C18.6198 27.9599 19.0133 28.3534 19.4968 28.3534H20.3926C20.8762 28.3534 21.2697 27.9599 21.2697 27.4763V25.2358C21.9494 25.6247 22.701 25.905 23.5024 26.0524V27.4566C23.5024 27.9511 23.9048 28.3535 24.3993 28.3535H25.2555C25.7501 28.3535 26.1524 27.9511 26.1524 27.4566V26.0419C26.9335 25.8918 27.6668 25.6145 28.3315 25.2332V27.4764C28.3315 27.96 28.725 28.3535 29.2086 28.3535H30.1043C30.588 28.3535 30.9814 27.96 30.9814 27.4764V22.5841C31.5856 21.5342 31.9294 20.3218 31.9294 19.0422ZM20.3615 27.4452H19.5281V23.8362C19.7843 24.1183 20.0629 24.3803 20.3615 24.6188V27.4452ZM25.2442 27.4452H24.4107V23.3949H25.2442V27.4452ZM30.0732 27.4452H29.2398V24.6145C29.5383 24.3756 29.817 24.1134 30.0732 23.8309V27.4452Z" fill="#0F1C29"/>
<path d="M17.6711 23.195H14.944V20.7056H16.396C16.6468 20.7056 16.8501 20.5023 16.8501 20.2514C16.8501 20.0006 16.6468 19.7973 16.396 19.7973H14.944V15.0127H17.5898C17.8407 15.0127 18.044 14.8094 18.044 14.5586C18.044 14.3077 17.8407 14.1044 17.5898 14.1044H14.944V11.615H18.1501C18.4009 11.615 18.6042 11.4116 18.6042 11.1608C18.6042 10.91 18.4009 10.7067 18.1501 10.7067H14.944V8.57234C14.944 7.61237 15.725 6.83138 16.685 6.83138H18.848C19.808 6.83138 20.5889 7.61237 20.5889 8.57234V8.89484C20.5889 9.14564 20.7922 9.34897 21.0431 9.34897C21.2939 9.34897 21.4972 9.14564 21.4972 8.89484V8.57234C21.4972 7.30392 20.6009 6.24137 19.4086 5.98336V5.20177C19.4086 4.67467 18.9798 4.24585 18.4527 4.24585H18.2207V3.73074C18.2207 1.67357 16.547 0 14.4899 0C13.0779 0 11.8468 0.788558 11.2134 1.94835C10.58 0.788558 9.34878 0 7.93678 0C5.87968 0 4.20611 1.67357 4.20611 3.73074V4.24585H3.97401C3.44698 4.24585 3.01815 4.67467 3.01815 5.20177V5.98336C1.82572 6.24131 0.929443 7.30386 0.929443 8.57234V16.5873C0.929443 16.8381 1.13271 17.0415 1.38358 17.0415C1.63444 17.0415 1.83771 16.8381 1.83771 16.5873V15.0127H7.48259V19.7973H1.83771V18.5227C1.83771 18.2719 1.63444 18.0686 1.38358 18.0686C1.13271 18.0686 0.929443 18.2719 0.929443 18.5227V27.8995C0.929443 28.1503 1.13271 28.3537 1.38358 28.3537C1.63444 28.3537 1.83771 28.1503 1.83771 27.8995V24.1033H7.48259V27.8995C7.48259 28.1503 7.68586 28.3537 7.93672 28.3537C8.18759 28.3537 8.39086 28.1503 8.39086 27.8995V24.1033H14.0358V27.8995C14.0358 28.1503 14.2391 28.3537 14.4899 28.3537C14.7408 28.3537 14.9441 28.1503 14.9441 27.8995V24.1033H17.6712C17.922 24.1033 18.1253 23.9 18.1253 23.6492C18.1253 23.3984 17.922 23.195 17.6711 23.195ZM11.8996 5.15411C11.9258 5.15411 11.9471 5.17549 11.9471 5.20177V5.92311H10.4795V5.20177C10.4795 5.17549 10.5009 5.15411 10.5271 5.15411H11.8996ZM10.1319 6.83138H12.2948C13.2548 6.83138 14.0358 7.61237 14.0358 8.57234V10.7067H8.39086V8.57234C8.39086 7.61237 9.17185 6.83138 10.1319 6.83138ZM8.39086 11.615H14.0358V14.1044H8.39086V11.615ZM14.0357 15.0127V19.7973H8.3908V15.0127H14.0357ZM18.5004 5.20177V5.92311H17.0327V5.20177C17.0327 5.17549 17.0541 5.15411 17.0803 5.15411H18.4527C18.4789 5.15411 18.5004 5.17549 18.5004 5.20177ZM14.4899 0.908267C16.0462 0.908267 17.3123 2.17445 17.3123 3.73074V4.24585H17.0802C16.5532 4.24585 16.1243 4.67467 16.1243 5.20177V5.98336C15.4475 6.12977 14.8661 6.5351 14.4899 7.09066C14.1137 6.5351 13.5322 6.12977 12.8554 5.98336V5.20177C12.8554 4.67467 12.4266 4.24585 11.8996 4.24585H11.6675V3.73074C11.6675 2.17445 12.9336 0.908267 14.4899 0.908267ZM5.11425 3.73074C5.11425 2.17445 6.38038 0.908267 7.93666 0.908267C9.49301 0.908267 10.7591 2.17445 10.7591 3.73074V4.24585H10.527C10 4.24585 9.57118 4.67467 9.57118 5.20177V5.98336C8.8944 6.12977 8.31287 6.5351 7.93666 7.09066C7.56046 6.5351 6.97899 6.12977 6.30221 5.98336V5.20177C6.30221 4.67467 5.87338 4.24585 5.34635 4.24585H5.11425V3.73074ZM3.97389 5.15411H5.34635C5.37262 5.15411 5.39394 5.17549 5.39394 5.20177V5.92311H3.9263V5.20177C3.9263 5.17549 3.94767 5.15411 3.97389 5.15411ZM3.57868 6.83138H5.74162C6.7016 6.83138 7.48259 7.61237 7.48259 8.57234V10.7067H1.83771V8.57234C1.83771 7.61237 2.6187 6.83138 3.57868 6.83138ZM1.83771 11.615H7.48259V14.1044H1.83771V11.615ZM1.83771 20.7056H7.48259V23.195H1.83771V20.7056ZM8.39086 20.7056H14.0358V23.195H8.39086V20.7056Z" fill="#0F1C29"/>
</svg>
