<svg width="30" height="28" viewBox="0 0 30 28" fill="none" xmlns="http://www.w3.org/2000/svg">
<path d="M11.6861 27.3733H10.4821C10.3745 27.3733 10.2714 27.3306 10.1954 27.2546C10.1194 27.1785 10.0767 27.0754 10.0767 26.9679C10.0767 26.8604 10.1194 26.7573 10.1954 26.6812C10.2714 26.6052 10.3745 26.5625 10.4821 26.5625H11.6861C11.7936 26.5625 11.8968 26.6052 11.9728 26.6812C12.0488 26.7573 12.0915 26.8604 12.0915 26.9679C12.0915 27.0754 12.0488 27.1785 11.9728 27.2546C11.8968 27.3306 11.7936 27.3733 11.6861 27.3733Z" fill="#0F1C29"/>
<path d="M17.67 27.3733H14.5241C14.4166 27.3733 14.3135 27.3306 14.2374 27.2545C14.1614 27.1785 14.1187 27.0754 14.1187 26.9679C14.1187 26.8603 14.1614 26.7572 14.2374 26.6812C14.3135 26.6052 14.4166 26.5625 14.5241 26.5625H17.0283C15.3803 23.0097 14.3782 19.1918 14.0688 15.2877L13.7242 11.0354C10.9233 10.0981 7.89336 10.0973 5.09194 11.0334L4.75383 15.2881C4.58745 17.3426 4.2312 19.3772 3.68964 21.366C3.20096 23.1479 2.56484 24.886 1.78788 26.5625H3.63085C3.73837 26.5625 3.84149 26.6052 3.91752 26.6812C3.99355 26.7572 4.03626 26.8603 4.03626 26.9679C4.03626 27.0754 3.99355 27.1785 3.91752 27.2545C3.84149 27.3306 3.73837 27.3733 3.63085 27.3733H1.14572C1.07682 27.3734 1.00903 27.356 0.948735 27.3226C0.888442 27.2893 0.837639 27.2411 0.801124 27.1827C0.764609 27.1243 0.743586 27.0575 0.74004 26.9887C0.736493 26.9199 0.75054 26.8513 0.780855 26.7895C1.66272 24.9811 2.37444 23.0946 2.9068 21.1543C3.43421 19.2136 3.78109 17.2283 3.94302 15.2237L4.30383 10.7034C4.31001 10.6251 4.33882 10.5502 4.38675 10.488C4.43469 10.4257 4.49968 10.3787 4.57383 10.3527C7.69921 9.2431 11.1113 9.2431 14.2367 10.3527C14.3113 10.3783 14.3769 10.4251 14.4254 10.4874C14.4739 10.5496 14.5031 10.6247 14.5095 10.7034L14.8744 15.2245C15.1931 19.2438 16.2647 23.1674 18.0333 26.7907C18.0635 26.8525 18.0775 26.9211 18.0739 26.9898C18.0703 27.0586 18.0493 27.1253 18.0128 27.1836C17.9762 27.242 17.9255 27.2901 17.8652 27.3234C17.805 27.3567 17.7373 27.3742 17.6684 27.3741L17.67 27.3733Z" fill="#0F1C29"/>
<path d="M7.64431 27.3733H6.46864C6.36112 27.3733 6.258 27.3306 6.18197 27.2546C6.10594 27.1785 6.06323 27.0754 6.06323 26.9679C6.06323 26.8604 6.10594 26.7573 6.18197 26.6812C6.258 26.6052 6.36112 26.5625 6.46864 26.5625H7.64431C7.75183 26.5625 7.85495 26.6052 7.93098 26.6812C8.007 26.7573 8.04972 26.8604 8.04972 26.9679C8.04972 27.0754 8.007 27.1785 7.93098 27.2546C7.85495 27.3306 7.75183 27.3733 7.64431 27.3733Z" fill="#0F1C29"/>
<path d="M28.7132 27.3742H14.7138C14.6062 27.3742 14.5031 27.3315 14.4271 27.2554C14.3511 27.1794 14.3083 27.0763 14.3083 26.9688C14.3083 26.8612 14.3511 26.7581 14.4271 26.6821C14.5031 26.6061 14.6062 26.5634 14.7138 26.5634H28.0723C26.6933 23.573 25.8548 20.3621 25.5956 17.0793L25.3078 13.4947C24.1695 13.0157 22.947 12.7689 21.7121 12.7689C20.4771 12.7689 19.2546 13.0157 18.1163 13.4947L17.8265 17.0793C17.6887 18.8241 17.3879 20.5522 16.9281 22.2409C16.815 22.6565 16.6885 23.0724 16.5579 23.4847C16.5234 23.5844 16.4513 23.6667 16.3571 23.7141C16.2629 23.7615 16.1539 23.7703 16.0532 23.7386C15.9526 23.707 15.8683 23.6373 15.8182 23.5445C15.7681 23.4517 15.7561 23.343 15.7848 23.2415C15.9121 22.8397 16.0358 22.4343 16.1456 22.0293C16.5927 20.3896 16.8853 18.7116 17.0197 17.0173L17.3294 13.1862C17.3353 13.1128 17.3611 13.0424 17.4039 12.9826C17.4468 12.9227 17.5051 12.8757 17.5727 12.8465C18.8744 12.2608 20.2856 11.958 21.7131 11.958C23.1405 11.958 24.5517 12.2608 25.8535 12.8465C25.9211 12.8757 25.9795 12.9228 26.0223 12.9828C26.0652 13.0427 26.0909 13.1132 26.0967 13.1866L26.4028 17.0169C26.6722 20.4141 27.5798 23.73 29.0781 26.7908C29.1083 26.8526 29.1223 26.9212 29.1187 26.9899C29.1151 27.0587 29.094 27.1254 29.0575 27.1837C29.021 27.2421 28.9703 27.2902 28.91 27.3235C28.8498 27.3568 28.782 27.3743 28.7132 27.3742Z" fill="#0F1C29"/>
<path d="M14.3214 13.7835H4.49842C4.3909 13.7835 4.28779 13.7408 4.21176 13.6647C4.13573 13.5887 4.09302 13.4856 4.09302 13.3781C4.09302 13.2705 4.13573 13.1674 4.21176 13.0914C4.28779 13.0154 4.3909 12.9727 4.49842 12.9727H14.3214C14.4289 12.9727 14.532 13.0154 14.6081 13.0914C14.6841 13.1674 14.7268 13.2705 14.7268 13.3781C14.7268 13.4856 14.6841 13.5887 14.6081 13.6647C14.532 13.7408 14.4289 13.7835 14.3214 13.7835Z" fill="#0F1C29"/>
<path d="M25.8997 16.2151H17.5241C17.4165 16.2151 17.3134 16.1724 17.2374 16.0964C17.1614 16.0203 17.1187 15.9172 17.1187 15.8097C17.1187 15.7022 17.1614 15.5991 17.2374 15.523C17.3134 15.447 17.4165 15.4043 17.5241 15.4043H25.8997C26.0073 15.4043 26.1104 15.447 26.1864 15.523C26.2624 15.5991 26.3051 15.7022 26.3051 15.8097C26.3051 15.9172 26.2624 16.0203 26.1864 16.0964C26.1104 16.1724 26.0073 16.2151 25.8997 16.2151Z" fill="#0F1C29"/>
<path d="M10.4622 7.91676C10.4029 7.9166 10.3443 7.90342 10.2906 7.87815C10.2369 7.85289 10.1895 7.81614 10.1515 7.77052C10.1136 7.7249 10.0862 7.67151 10.0711 7.61412C10.0561 7.55673 10.0538 7.49674 10.0645 7.43838C10.0781 7.37027 10.0854 7.30107 10.0864 7.23162C10.0863 7.10513 10.0573 6.98033 10.0017 6.86676C9.97065 6.80245 9.95716 6.7311 9.96257 6.65991C9.96798 6.58873 9.9921 6.52023 10.0325 6.46135C10.0735 6.40253 10.1292 6.3555 10.1941 6.32498C10.259 6.29446 10.3307 6.28151 10.4022 6.28743L10.465 6.29473H10.4699C10.6833 6.29782 10.8925 6.23443 11.0683 6.11333C11.244 5.99224 11.3778 5.81945 11.451 5.61892C11.4701 5.56624 11.4999 5.51809 11.5386 5.47751C11.5772 5.43693 11.6239 5.40481 11.6756 5.38317C11.7273 5.36153 11.7829 5.35085 11.8389 5.35179C11.895 5.35273 11.9502 5.36528 12.0011 5.38865C12.5222 5.62466 13.0884 5.74473 13.6604 5.74054C15.4442 5.74054 16.8956 4.635 16.8956 3.27608C16.8956 1.91716 15.4446 0.811216 13.6604 0.811216C11.8763 0.811216 10.4253 1.91676 10.4253 3.27608C10.4259 3.3032 10.4279 3.33026 10.4314 3.35716C10.4384 3.42617 10.4276 3.49582 10.4001 3.55947C10.3725 3.62312 10.3291 3.67863 10.2739 3.72068C10.2187 3.76274 10.1537 3.78995 10.085 3.79969C10.0164 3.80944 9.94634 3.8014 9.88166 3.77635C9.59971 3.66363 9.28729 3.65266 8.99812 3.74532C8.70896 3.83799 8.46111 4.02851 8.2972 4.28412C8.13328 4.53973 8.06355 4.84447 8.09997 5.14593C8.1364 5.44739 8.27672 5.72674 8.4968 5.93595C8.54631 5.98356 8.58291 6.04296 8.60317 6.1086C8.62343 6.17423 8.62668 6.24393 8.61262 6.31117C8.59856 6.3784 8.56764 6.44096 8.52278 6.49297C8.47791 6.54498 8.42057 6.58474 8.35612 6.60851C8.18514 6.67156 8.03744 6.78523 7.93271 6.93436C7.82797 7.0835 7.77118 7.26101 7.76991 7.44324C7.77891 7.49584 7.77745 7.5497 7.76564 7.60174C7.75382 7.65378 7.73187 7.70298 7.70104 7.74654C7.67021 7.79009 7.6311 7.82715 7.58595 7.85559C7.54079 7.88403 7.49048 7.9033 7.43788 7.9123C7.38528 7.9213 7.33143 7.91984 7.27939 7.90803C7.22735 7.89621 7.17814 7.87426 7.13459 7.84343C7.09103 7.8126 7.05398 7.77349 7.02554 7.72834C6.99709 7.68318 6.97783 7.63287 6.96883 7.58027C6.96157 7.53497 6.95832 7.48912 6.9591 7.44324C6.9599 7.18742 7.01821 6.93506 7.12971 6.70481C7.24122 6.47457 7.40307 6.27235 7.60329 6.11311C7.39066 5.77503 7.27805 5.38368 7.27846 4.98429C7.27887 4.58491 7.39229 4.19379 7.60561 3.85615C7.81893 3.51851 8.12345 3.24813 8.48396 3.07625C8.84446 2.90437 9.24625 2.83802 9.64288 2.88487C9.88207 1.26324 11.5929 0 13.6604 0C15.8902 0 17.7064 1.46919 17.7064 3.27568C17.7064 5.08216 15.8914 6.55135 13.6604 6.55135C13.103 6.55405 12.5494 6.45981 12.0242 6.27284C11.7621 6.67404 11.3541 6.95744 10.8867 7.06297C10.8925 7.11941 10.8955 7.1761 10.8956 7.23284C10.8946 7.35108 10.883 7.469 10.8607 7.58514C10.8435 7.67825 10.7942 7.7624 10.7214 7.82298C10.6486 7.88355 10.5569 7.91673 10.4622 7.91676Z" fill="#0F1C29"/>
<path d="M19.9482 9.59539C19.8646 9.5954 19.783 9.56954 19.7146 9.52135C19.6462 9.47315 19.5945 9.40499 19.5663 9.3262C19.4662 9.03893 19.4551 8.72809 19.5347 8.43444C19.6143 8.14079 19.7808 7.87805 20.0123 7.68066C19.8391 7.3876 19.7499 7.05247 19.7546 6.71207C19.7593 6.37167 19.8577 6.03915 20.039 5.75099C20.2203 5.46283 20.4774 5.23017 20.7822 5.07855C21.087 4.92693 21.4277 4.8622 21.7669 4.89147C22.0061 3.51309 23.4647 2.45215 25.2234 2.45215C27.1482 2.45215 28.7139 3.72512 28.7139 5.28999C28.7139 6.85485 27.1482 8.12782 25.2234 8.12782C24.7605 8.12833 24.3007 8.05273 23.8624 7.90404C23.6414 8.2207 23.3149 8.44834 22.9413 8.5462C22.9438 8.57985 22.945 8.6131 22.945 8.64674C22.9456 8.91011 22.8756 9.16883 22.7423 9.39593C22.7152 9.4418 22.6794 9.48189 22.6369 9.51391C22.5944 9.54593 22.5459 9.56927 22.4944 9.58257C22.4428 9.59588 22.3891 9.5989 22.3364 9.59147C22.2837 9.58403 22.233 9.56629 22.1871 9.53924C22.1412 9.5122 22.1011 9.47638 22.0691 9.43385C22.0371 9.39131 22.0138 9.34288 22.0004 9.29132C21.9871 9.23977 21.9841 9.1861 21.9915 9.13337C21.999 9.08065 22.0167 9.02991 22.0438 8.98404C22.1031 8.88155 22.134 8.76514 22.1334 8.64674C22.1321 8.54366 22.1088 8.44205 22.0649 8.34877C22.0349 8.28306 22.023 8.21053 22.0305 8.1387C22.0379 8.06686 22.0644 7.99831 22.1072 7.94016C22.1501 7.882 22.2077 7.83633 22.274 7.80789C22.3404 7.77945 22.4132 7.76925 22.4849 7.77837L22.5254 7.78404C22.6926 7.7871 22.8566 7.73766 22.9942 7.64269C23.1319 7.54772 23.2363 7.41199 23.2928 7.25458C23.312 7.20209 23.3418 7.15412 23.3804 7.1137C23.419 7.07328 23.4655 7.04127 23.5171 7.01968C23.5686 6.9981 23.6241 6.9874 23.6799 6.98827C23.7358 6.98914 23.7909 7.00154 23.8418 7.02472C24.276 7.21915 24.7467 7.3188 25.2226 7.31701C26.7003 7.31701 27.9023 6.40728 27.9023 5.28999C27.9023 4.17269 26.7003 3.26296 25.2226 3.26296C23.7449 3.26296 22.5428 4.17228 22.5428 5.28999C22.5434 5.30586 22.5447 5.32169 22.5469 5.33742C22.5547 5.40769 22.5446 5.47881 22.5173 5.54406C22.4901 5.60932 22.4467 5.66656 22.3912 5.71039C22.3366 5.75375 22.2717 5.78227 22.2028 5.79321C22.1339 5.80415 22.0633 5.79713 21.998 5.77282C21.8396 5.70772 21.6676 5.68278 21.4972 5.70023C21.3269 5.71768 21.1635 5.77698 21.0216 5.87284C20.8797 5.9687 20.7637 6.09816 20.684 6.24969C20.6042 6.40121 20.5632 6.57011 20.5645 6.74134C20.564 6.88283 20.5927 7.02289 20.649 7.15273C20.7052 7.28256 20.7877 7.39937 20.8912 7.4958C20.9416 7.54322 20.979 7.60275 20.9999 7.66874C21.0208 7.73472 21.0245 7.80495 21.0105 7.87274C20.9966 7.94053 20.9655 8.00362 20.9203 8.05601C20.8751 8.10839 20.8172 8.14833 20.7522 8.17201C20.5805 8.23448 20.4401 8.36176 20.3612 8.52654C20.2823 8.69131 20.2712 8.88045 20.3301 9.05336C20.352 9.11457 20.3589 9.18015 20.3502 9.24456C20.3414 9.30898 20.3173 9.37034 20.2798 9.42349C20.2424 9.47663 20.1927 9.51999 20.135 9.5499C20.0773 9.57982 20.0132 9.59542 19.9482 9.59539Z" fill="#0F1C29"/>
</svg>
