<svg width="31" height="22" viewBox="0 0 31 22" fill="none" xmlns="http://www.w3.org/2000/svg">
<path d="M13.6823 12.0484C12.4439 13.2868 12.4443 15.3044 13.6823 16.5426C14.9292 17.7893 16.9448 17.7741 18.1765 16.5426V16.5425C19.4155 15.3035 19.4155 13.2874 18.1765 12.0484C16.9375 10.8094 14.9213 10.8094 13.6823 12.0484ZM15.9294 11.9976C16.3784 11.9976 16.8273 12.1285 17.2141 12.3893L15.7606 13.8428L13.7113 13.6956C13.8122 13.3197 14.0093 12.9644 14.3038 12.6699C14.752 12.2216 15.3406 11.9976 15.9294 11.9976ZM13.6488 14.5723L15.5184 14.7066L15.6526 16.5762C15.1593 16.5168 14.6816 16.2989 14.3038 15.9212C13.926 15.5433 13.7081 15.0656 13.6488 14.5723ZM17.555 15.9211C17.2605 16.2156 16.9052 16.4127 16.5293 16.5137L16.3821 14.4643L17.8356 13.0108C18.4383 13.9044 18.345 15.131 17.555 15.9211Z" fill="#0F1C29"/>
<path d="M30.49 12.8882C30.7327 12.8882 30.9294 12.6915 30.9294 12.4488V11.3131C30.9294 10.8629 30.5632 10.4966 30.1129 10.4966H28.8038C28.3535 10.4966 27.9873 10.8629 27.9873 11.3131V11.4834H25.0856C25.0098 11.3511 24.8676 11.2618 24.7043 11.2618C24.5409 11.2618 24.3986 11.3511 24.3229 11.4834H22.0755C21.3999 10.0129 20.2119 8.82486 18.7414 8.14934V5.20277C18.7414 4.64666 18.289 4.1942 17.7328 4.1942H17.2823V2.52111H19.2784C19.7985 2.52111 20.2217 2.09795 20.2217 1.57787V0.943242C20.2217 0.423164 19.7985 0 19.2784 0H15.3139C15.0712 0 14.8744 0.196699 14.8744 0.439453C14.8744 0.682207 15.0712 0.878906 15.3139 0.878906H19.2784C19.3139 0.878906 19.3428 0.907734 19.3428 0.943242V1.57793C19.3428 1.61338 19.3139 1.64227 19.2784 1.64227C17.0704 1.64227 14.5659 1.64227 12.5803 1.64227C12.5449 1.64227 12.516 1.61344 12.516 1.57793V0.943242C12.516 0.907793 12.5448 0.878906 12.5803 0.878906H13.5569C13.7996 0.878906 13.9963 0.682207 13.9963 0.439453C13.9963 0.196699 13.7996 0 13.5569 0H12.5803C12.0603 0 11.6371 0.423164 11.6371 0.943242V1.57793C11.6371 2.09801 12.0602 2.52117 12.5803 2.52117H14.5766V4.19426H14.126C13.5699 4.19426 13.1174 4.64672 13.1174 5.20283V8.14939C11.6469 8.82486 10.4588 10.0129 9.78337 11.4834H7.53589C7.46013 11.3511 7.31792 11.2618 7.15456 11.2618C6.9912 11.2618 6.84899 11.3511 6.77323 11.4834H3.87155V11.3132C3.87155 10.8629 3.50528 10.4967 3.05505 10.4967H1.74589C1.29571 10.4966 0.929443 10.8629 0.929443 11.3131V17.2778C0.929443 17.728 1.29571 18.0943 1.74589 18.0943H3.05505C3.50528 18.0943 3.87155 17.728 3.87155 17.2778V17.1074H4.41478C4.65747 17.1074 4.85423 16.9107 4.85423 16.668C4.85423 16.4252 4.65747 16.2285 4.41478 16.2285H3.87155V12.3623H6.71511V16.2285H6.17189C5.92919 16.2285 5.73243 16.4252 5.73243 16.668C5.73243 16.9107 5.92919 17.1074 6.17189 17.1074H6.77323C6.84899 17.2397 6.9912 17.329 7.15456 17.329C7.31792 17.329 7.46013 17.2397 7.53589 17.1074H9.78331C10.8524 19.4347 13.2051 21.0549 15.9294 21.0549C18.6537 21.0549 21.0065 19.4347 22.0755 17.1074H24.3229C24.3987 17.2397 24.5409 17.329 24.7043 17.329C24.8676 17.329 25.0099 17.2397 25.0856 17.1074H27.9873V17.2778C27.9873 17.728 28.3535 18.0943 28.8038 18.0943H30.1129C30.5632 18.0943 30.9294 17.728 30.9294 17.2778V14.2058C30.9294 13.963 30.7327 13.7663 30.49 13.7663C30.2472 13.7663 30.0505 13.963 30.0505 14.2058V17.2153H28.8662C28.8662 16.4844 28.8662 12.1112 28.8662 11.3755H30.0505V12.4487C30.0505 12.6915 30.2472 12.8882 30.49 12.8882ZM2.99265 17.2153H1.80835V11.3755H2.99265V17.2153ZM15.4555 2.52117H16.4034V4.19426H15.4555V2.52117ZM13.9963 5.20283C13.9963 5.13135 14.0545 5.07316 14.126 5.07316H17.7329C17.8044 5.07316 17.8626 5.13135 17.8626 5.20283V7.8181C17.2498 7.63488 16.601 7.53598 15.9294 7.53598C15.2579 7.53598 14.6091 7.63488 13.9963 7.8181V5.20283ZM7.59401 16.2285V12.3623H9.45208C9.26886 12.9751 9.16995 13.6239 9.16995 14.2955C9.16995 14.967 9.26886 15.6158 9.45208 16.2285H7.59401ZM15.9294 20.176C12.6869 20.176 10.0489 17.538 10.0489 14.2955C10.0489 11.0529 12.6869 8.41488 15.9294 8.41488C19.172 8.41488 21.81 11.0528 21.81 14.2954C21.81 17.538 19.172 20.176 15.9294 20.176ZM22.4067 12.3623H24.2649V16.2285H22.4068C22.59 15.6157 22.6889 14.967 22.6889 14.2954C22.6889 13.6239 22.59 12.9751 22.4067 12.3623ZM25.1437 16.2285V12.3623H27.9873V16.2285H25.1437Z" fill="#0F1C29"/>
<path d="M15.9294 10.1584C16.1721 10.1584 16.3689 9.96166 16.3689 9.71891V9.55859C16.3689 9.31584 16.1721 9.11914 15.9294 9.11914C15.6867 9.11914 15.49 9.31584 15.49 9.55859V9.71891C15.49 9.96166 15.6867 10.1584 15.9294 10.1584Z" fill="#0F1C29"/>
<path d="M20.6664 13.8564H20.5061C20.2633 13.8564 20.0667 14.0531 20.0667 14.2959C20.0667 14.5387 20.2633 14.7354 20.5061 14.7354H20.6664C20.9092 14.7354 21.1059 14.5387 21.1059 14.2959C21.1059 14.0531 20.9092 13.8564 20.6664 13.8564Z" fill="#0F1C29"/>
<path d="M15.9294 18.4326C15.6867 18.4326 15.49 18.6293 15.49 18.8721V19.0324C15.49 19.2752 15.6867 19.4719 15.9294 19.4719C16.1721 19.4719 16.3689 19.2752 16.3689 19.0324V18.8721C16.3689 18.6293 16.1721 18.4326 15.9294 18.4326Z" fill="#0F1C29"/>
<path d="M11.3527 13.8564H11.1924C10.9497 13.8564 10.7529 14.0531 10.7529 14.2959C10.7529 14.5387 10.9497 14.7354 11.1924 14.7354H11.3527C11.5954 14.7354 11.7921 14.5387 11.7921 14.2959C11.7921 14.0531 11.5954 13.8564 11.3527 13.8564Z" fill="#0F1C29"/>
</svg>
