<svg width="31" height="30" viewBox="0 0 31 30" fill="none" xmlns="http://www.w3.org/2000/svg">
<path d="M24.4753 17.3018C24.4753 17.3018 20.6902 14.9662 20.6854 14.9633C20.413 14.7952 20.0462 14.8839 19.8786 15.1543C19.7107 15.4253 19.7998 15.7942 20.0696 15.9605C20.0696 15.9605 23.8571 18.2976 23.8595 18.299C24.1318 18.467 24.4983 18.3805 24.6657 18.108C24.8331 17.8354 24.7478 17.4698 24.4753 17.3018Z" fill="#0F1C29"/>
<path d="M18.3834 13.6455C18.0091 13.6454 17.727 14.0017 17.8125 14.3659C17.8466 14.511 17.9463 14.6428 18.0776 14.726C18.1678 14.7831 18.2729 14.8174 18.3821 14.8174C18.5871 14.8174 18.774 14.7137 18.8813 14.5392C19.1097 14.1673 18.8225 13.6456 18.3834 13.6455Z" fill="#0F1C29"/>
<path d="M12.316 15.1241C12.1507 14.8609 11.7696 14.7758 11.5079 14.9411C11.5079 14.9411 7.74721 17.3125 7.74088 17.3165C7.46989 17.4874 7.38721 17.8535 7.5579 18.1242C7.66049 18.2871 7.85848 18.3825 8.05448 18.388C8.16475 18.3911 8.27438 18.3657 8.36608 18.3079C8.36608 18.3079 12.1304 15.9336 12.1331 15.9319C12.404 15.7611 12.4863 15.3953 12.316 15.1241Z" fill="#0F1C29"/>
<path d="M13.8019 13.6006C13.5298 13.6006 13.2913 13.7918 13.2312 14.0569C13.1492 14.418 13.4351 14.7725 13.803 14.7725C14.0746 14.7725 14.3144 14.5813 14.3743 14.316C14.4564 13.9527 14.1732 13.6006 13.8019 13.6006Z" fill="#0F1C29"/>
<path d="M30.7857 26.6858C30.5733 26.4416 30.2033 26.4158 29.959 26.6282C29.3343 27.1714 28.7561 27.7346 27.9363 27.9612C27.025 28.213 26.1589 28.0143 25.3341 27.6019L28.3856 17.3349C28.4616 17.0795 28.3555 16.8049 28.1276 16.6668L25.3044 14.9562V9.96092C25.3044 9.63736 25.0421 9.37498 24.7185 9.37498H23.5466V7.61717C23.5466 7.29362 23.2843 7.03124 22.9607 7.03124H21.115V5.27343C21.115 4.94987 20.8527 4.68749 20.529 4.68749H17.6873V0.585936C17.6873 0.262382 17.4249 0 17.1013 0H14.7576C14.434 0 14.1716 0.262382 14.1716 0.585936V4.68749H11.3298C11.0062 4.68749 10.7439 4.94987 10.7439 5.27343V7.03124H8.89821C8.5746 7.03124 8.31227 7.29362 8.31227 7.61717V9.37498H7.1404C6.81679 9.37498 6.55446 9.63736 6.55446 9.96092V14.9562L3.7313 16.6668C3.50338 16.8049 3.39738 17.0794 3.47332 17.3348C3.47332 17.3348 6.51731 27.5764 6.5186 27.5808C6.46663 27.406 5.52902 27.2909 5.36325 27.2694C3.65718 27.0486 2.35986 27.9033 1.13092 28.9719C0.886701 29.1842 0.86092 29.5542 1.0732 29.7984C1.27588 30.0315 1.65305 30.0707 1.89978 29.8562C3.16588 28.7555 4.59328 27.9165 6.26847 28.7542C7.78393 29.5119 9.3526 29.8368 10.9311 29.0062C12.2038 28.3362 13.4321 27.7577 14.8527 28.4341L16.3133 29.1297C17.5629 29.7247 18.9895 29.711 20.2273 29.092C20.9901 28.7106 21.7653 28.2031 22.6366 28.1432C23.4907 28.0846 24.3159 28.4026 25.0663 28.7781C26.0577 29.2738 27.2182 29.3728 28.2827 29.0694C29.2633 28.7898 29.9769 28.1653 30.7279 27.5123C30.9722 27.3001 30.998 26.93 30.7857 26.6858ZM24.1326 10.5469V14.2462L18.0272 10.5469H24.1326ZM15.3435 1.17187H16.5154V4.68749H15.3435V1.17187ZM11.9158 5.85936H19.9431V7.03124H11.9158V5.85936ZM7.72634 10.5469H13.8317L7.72634 14.2462V10.5469ZM15.3435 27.37C15.3436 27.2658 14.5083 27.0738 14.399 27.0501C13.3792 26.8294 12.2845 26.9695 11.36 27.4562C10.6892 27.8092 10.042 28.221 9.27485 28.3198C9.27344 28.32 9.27204 28.3202 9.27063 28.3204C8.82239 28.3748 8.3636 28.3419 7.92977 28.2154L4.72546 17.4347L15.3435 11.0011C15.3435 11.0011 15.3435 27.3693 15.3435 27.37ZM9.48415 9.37498V8.20311H22.3747V9.37498H9.48415ZM24.251 27.1323C24.2575 26.951 22.6081 26.9527 22.4976 26.9643C21.4805 27.0719 20.6007 27.5952 19.7032 28.044C18.6429 28.5741 17.5518 28.4217 16.5154 27.928V11.0011L27.1334 17.4347L24.251 27.1323Z" fill="#0F1C29"/>
</svg>
