<svg width="29" height="29" viewBox="0 0 29 29" fill="none" xmlns="http://www.w3.org/2000/svg">
<path d="M28.1301 14.3198C27.6779 13.4154 26.7689 12.8535 25.7576 12.8535C24.7462 12.8535 23.8372 13.4154 23.385 14.3198L23.0388 15.0122V15.5723H20.3201V12.4004C20.3201 10.3178 15.3053 9.22852 10.3513 9.22852C5.3973 9.22852 0.382568 10.3178 0.382568 12.4004V25.0879C0.382568 27.1705 5.3973 28.2598 10.3513 28.2598C15.3053 28.2598 20.3201 27.1705 20.3201 25.0879V22.8223H23.0388V23.3823L23.385 24.0747C23.8372 24.9791 24.7462 25.541 25.7576 25.541C26.7689 25.541 27.6779 24.9791 28.1301 24.0747L28.4763 23.3823V15.0122L28.1301 14.3198ZM23.9451 22.8223V15.5723H27.5701V22.8223H23.9451ZM20.3201 18.291H23.0388V20.1035H20.3201V18.291ZM25.7576 13.7598C26.4001 13.7598 26.9778 14.1064 27.2846 14.666H24.2305C24.5378 14.1064 25.115 13.7598 25.7576 13.7598ZM23.0388 16.4785V17.3848H20.3201V16.4785H23.0388ZM10.3513 10.1348C15.8835 10.1348 19.4138 11.4765 19.4138 12.4004C19.4138 12.7516 18.9013 13.1625 17.9656 13.5377C17.6616 12.3678 16.5904 11.4941 15.3357 11.4941C14.6148 11.4941 13.9455 11.7737 13.4412 12.2672C13.0601 12.0637 12.6256 11.9473 12.1638 11.9473C11.6772 11.9473 11.2209 12.0773 10.8253 12.3025C10.3323 11.5336 9.47452 11.041 8.53882 11.041C7.66791 11.041 6.8686 11.4538 6.36065 12.138C6.05207 12.0161 5.71766 11.9473 5.36694 11.9473C4.27537 11.9473 3.29933 12.6147 2.87476 13.5889C1.85477 13.2002 1.28882 12.7679 1.28882 12.4004C1.28882 11.4765 4.81912 10.1348 10.3513 10.1348ZM7.16313 14.5033C5.81508 14.3624 4.6578 14.1408 3.74158 13.878C4.03974 13.2681 4.66596 12.8535 5.36694 12.8535C6.3108 12.8535 7.0793 13.5812 7.16313 14.5033ZM8.08161 14.584C8.05805 13.7965 7.69918 13.0928 7.14183 12.6106C7.48168 12.1965 7.98782 11.9473 8.53882 11.9473C9.19902 11.9473 9.8053 12.3116 10.122 12.8766C9.70471 13.352 9.44915 13.9723 9.44598 14.652C8.97291 14.6393 8.52024 14.6153 8.08161 14.584ZM10.3513 14.666C10.3513 13.6664 11.1642 12.8535 12.1638 12.8535C13.0918 12.8535 13.8503 13.5572 13.9555 14.458C12.8811 14.5876 11.6758 14.666 10.3513 14.666ZM14.8599 14.333C14.7892 13.7575 14.5377 13.2382 14.1644 12.8313C14.4883 12.5549 14.898 12.4004 15.3357 12.4004C16.1971 12.4004 16.9293 13.018 17.1061 13.8332C16.4717 14.0235 15.7218 14.1957 14.8599 14.333ZM1.28882 13.8051C2.9536 14.9696 6.66832 15.5723 10.3513 15.5723C14.0343 15.5723 17.749 14.9696 19.4138 13.8051V14.2129C19.4138 15.1368 15.8835 16.4785 10.3513 16.4785C4.81912 16.4785 1.28882 15.1368 1.28882 14.2129V13.8051ZM10.3513 27.3535C4.81912 27.3535 1.28882 26.0118 1.28882 25.0879V24.6801C2.9536 25.8446 6.66832 26.4473 10.3513 26.4473C14.0343 26.4473 17.749 25.8446 19.4138 24.6801V25.0879C19.4138 26.0118 15.8835 27.3535 10.3513 27.3535ZM10.3513 25.541C4.81912 25.541 1.28882 24.1993 1.28882 23.2754V15.6176C2.9536 16.7821 6.66832 17.3848 10.3513 17.3848C14.0343 17.3848 17.749 16.7821 19.4138 15.6176V23.2754C19.4138 24.1993 15.8835 25.541 10.3513 25.541ZM20.3201 21.916V21.0098H23.0388V21.916H20.3201ZM25.7576 24.6348C25.115 24.6348 24.5373 24.2881 24.2305 23.7285H27.2851C26.9778 24.2881 26.4001 24.6348 25.7576 24.6348Z" fill="#0F1C29"/>
<path d="M24.8513 20.1035H25.7576V21.0098H24.8513V20.1035Z" fill="#0F1C29"/>
<path d="M24.8513 16.4785H25.7576V17.3848H24.8513V16.4785Z" fill="#0F1C29"/>
<path d="M24.8513 18.291H25.7576V19.1973H24.8513V18.291Z" fill="#0F1C29"/>
<path d="M4.20921 9.15202L4.71308 8.39848C4.70176 8.39077 3.55444 7.60369 3.55444 6.5094C3.55444 5.71144 3.98582 5.22977 4.44257 4.72046C4.76157 4.3643 5.08827 3.99954 5.25457 3.53554C5.53777 3.70093 5.82007 3.94109 5.82007 4.22157V4.24377H5.82143C5.82143 4.25148 5.82007 4.25827 5.82007 4.26598C5.82007 5.84965 7.31765 6.86601 7.38108 6.9086L7.88496 6.15505C7.87363 6.1478 6.72632 5.36027 6.72632 4.26598C6.72632 3.46802 7.15769 2.98635 7.61444 2.47704C7.93344 2.12088 8.26015 1.75612 8.42644 1.29212C8.70965 1.45751 8.99194 1.69766 8.99194 1.97815V2.43127H9.89819V1.97815C9.89819 0.754258 8.29096 0.230898 8.22254 0.209148L7.63257 0.0224609V0.64143C7.63257 1.07688 7.36885 1.39316 6.93929 1.87257C6.65246 2.19248 6.32847 2.56132 6.10237 3.03166C5.64244 2.64605 5.09008 2.4648 5.05066 2.45257L4.46069 2.26543V2.8844C4.46069 3.31985 4.19697 3.63613 3.76741 4.11554C3.26897 4.67198 2.64819 5.3648 2.64819 6.5094C2.64819 8.09307 4.14577 9.10943 4.20921 9.15202Z" fill="#0F1C29"/>
<path d="M11.7107 1.95614C11.7107 1.67566 11.993 1.4355 12.2762 1.27011C12.4425 1.73411 12.7692 2.09888 13.0882 2.45503C13.5449 2.96434 13.9763 3.44602 13.9763 4.24397C13.9763 5.33827 12.829 6.12534 12.8186 6.13259L13.3211 6.88659C13.385 6.844 14.8826 5.82764 14.8826 4.24397C14.8826 4.23627 14.8812 4.22947 14.8812 4.22177H14.8826C14.8826 3.94128 15.1649 3.70113 15.4481 3.53574C15.6144 3.99974 15.9411 4.3645 16.2601 4.72066C16.7168 5.22997 17.1482 5.71164 17.1482 6.50959C17.1482 7.60389 16.0009 8.39097 15.9905 8.39822L16.493 9.15222C16.5569 9.10963 18.0544 8.09327 18.0544 6.50959C18.0544 5.365 17.4337 4.67217 16.9352 4.11574C16.5057 3.63633 16.2419 3.32005 16.2419 2.88459V2.26563L15.652 2.45277C15.6126 2.465 15.0665 2.64398 14.608 3.02506C14.3814 2.54702 14.0533 2.17364 13.7634 1.85011C13.3338 1.3707 13.0701 1.05442 13.0701 0.618969V0L12.4801 0.187141C12.4117 0.208891 10.8044 0.73225 10.8044 1.95614V2.40927H11.7107V1.95614Z" fill="#0F1C29"/>
<path d="M8.53882 6.96247H9.44507C9.44507 6.19895 9.72737 5.73405 9.99924 5.46262C10.1954 6.17312 10.6413 6.67065 11.0174 7.0907C11.447 7.57011 11.7107 7.88639 11.7107 8.32184H12.6169C12.6169 7.51754 12.1471 6.99328 11.6926 6.48578C11.2358 5.97647 10.8044 5.4948 10.8044 4.69684V4.06836L10.2081 4.26683C10.1397 4.28994 8.53882 4.84773 8.53882 6.96247Z" fill="#0F1C29"/>
<path d="M2.19507 19.1973H3.10132V20.1035H2.19507V19.1973Z" fill="#0F1C29"/>
<path d="M2.19507 21.0098H3.10132V21.916H2.19507V21.0098Z" fill="#0F1C29"/>
<path d="M2.19507 22.8223H3.10132V23.7285H2.19507V22.8223Z" fill="#0F1C29"/>
<path d="M2.19507 17.3848H3.10132V18.291H2.19507V17.3848Z" fill="#0F1C29"/>
<path d="M17.6013 18.7441H18.5076V19.6504H17.6013V18.7441Z" fill="#0F1C29"/>
<path d="M17.6013 22.3691H18.5076V23.2754H17.6013V22.3691Z" fill="#0F1C29"/>
<path d="M17.6013 20.5566H18.5076V21.4629H17.6013V20.5566Z" fill="#0F1C29"/>
<path d="M17.6013 16.9316H18.5076V17.8379H17.6013V16.9316Z" fill="#0F1C29"/>
<path d="M14.4294 18.291H6.27319C5.52372 18.291 4.91382 18.9009 4.91382 19.6504V23.2754C4.91382 24.0249 5.52372 24.6348 6.27319 24.6348H14.4294C15.1789 24.6348 15.7888 24.0249 15.7888 23.2754V19.6504C15.7888 18.9009 15.1789 18.291 14.4294 18.291ZM14.8826 23.2754C14.8826 23.5251 14.6791 23.7285 14.4294 23.7285H6.27319C6.02352 23.7285 5.82007 23.5251 5.82007 23.2754V19.6504C5.82007 19.4007 6.02352 19.1973 6.27319 19.1973H14.4294C14.6791 19.1973 14.8826 19.4007 14.8826 19.6504V23.2754Z" fill="#0F1C29"/>
</svg>
