<svg width="23" height="23" viewBox="0 0 23 23" fill="none" xmlns="http://www.w3.org/2000/svg">
<path d="M11.1836 5.58801C8.06341 5.58801 5.54522 8.1062 5.54522 11.2264C5.54522 14.3467 8.06341 16.8649 11.1836 16.8649C14.3039 16.8649 16.8221 14.3467 16.8221 11.2264C16.8221 8.1062 14.3039 5.58801 11.1836 5.58801ZM11.1836 14.891C9.1658 14.891 7.51908 13.2443 7.51908 11.2264C7.51908 9.20859 9.1658 7.56187 11.1836 7.56187C13.2015 7.56187 14.8482 9.20859 14.8482 11.2264C14.8482 13.2443 13.2015 14.891 11.1836 14.891ZM17.053 4.04301C16.3245 4.04301 15.7362 4.63132 15.7362 5.35984C15.7362 6.08835 16.3245 6.67666 17.053 6.67666C17.7815 6.67666 18.3698 6.0911 18.3698 5.35984C18.37 5.18685 18.3361 5.01551 18.27 4.85565C18.2039 4.69579 18.1069 4.55054 17.9846 4.42822C17.8623 4.30589 17.717 4.20891 17.5572 4.14281C17.3973 4.07671 17.226 4.04279 17.053 4.04301ZM22.1746 11.2264C22.1746 9.70893 22.1883 8.20516 22.1031 6.6904C22.0179 4.93097 21.6165 3.36948 20.3299 2.0829C19.0406 0.793564 17.4819 0.394944 15.7224 0.309721C14.2049 0.224499 12.7012 0.238244 11.1864 0.238244C9.66889 0.238244 8.16512 0.224499 6.65036 0.309721C4.89093 0.394944 3.32944 0.796314 2.04286 2.0829C0.753525 3.37223 0.354905 4.93097 0.269682 6.6904C0.18446 8.20791 0.198205 9.71168 0.198205 11.2264C0.198205 12.7412 0.18446 14.2477 0.269682 15.7625C0.354905 17.5219 0.756275 19.0834 2.04286 20.37C3.33219 21.6593 4.89093 22.0579 6.65036 22.1431C8.16787 22.2284 9.67163 22.2146 11.1864 22.2146C12.7039 22.2146 14.2077 22.2284 15.7224 22.1431C17.4819 22.0579 19.0434 21.6566 20.3299 20.37C21.6193 19.0806 22.0179 17.5219 22.1031 15.7625C22.1911 14.2477 22.1746 12.7439 22.1746 11.2264ZM19.7554 17.7088C19.5547 18.2092 19.3128 18.5831 18.9251 18.9679C18.5375 19.3556 18.1664 19.5975 17.666 19.7982C16.22 20.3727 12.7864 20.2435 11.1836 20.2435C9.58091 20.2435 6.14453 20.3727 4.6985 19.8009C4.19816 19.6002 3.82428 19.3583 3.43941 18.9707C3.05178 18.5831 2.80986 18.2119 2.60917 17.7116C2.03736 16.2628 2.16657 12.8292 2.16657 11.2264C2.16657 9.6237 2.03736 6.18732 2.60917 4.74129C2.80986 4.24095 3.05178 3.86707 3.43941 3.48219C3.82703 3.09732 4.19816 2.85265 4.6985 2.65196C6.14453 2.08015 9.58091 2.20936 11.1836 2.20936C12.7864 2.20936 16.2228 2.08015 17.6688 2.65196C18.1691 2.85265 18.543 3.09457 18.9279 3.48219C19.3155 3.86982 19.5574 4.24095 19.7581 4.74129C20.3299 6.18732 20.2007 9.6237 20.2007 11.2264C20.2007 12.8292 20.3299 16.2628 19.7554 17.7088Z" fill="#0F1C29"/>
</svg>
