<svg width="14" height="20" viewBox="0 0 14 20" fill="none" xmlns="http://www.w3.org/2000/svg">
<path fill-rule="evenodd" clip-rule="evenodd" d="M6.62737 8.08974C8.05737 8.08974 9.21661 6.93049 9.21661 5.5005C9.21661 4.0705 8.05737 2.91125 6.62737 2.91125C5.19737 2.91125 4.03813 4.0705 4.03813 5.5005C4.03813 6.93049 5.19737 8.08974 6.62737 8.08974ZM6.62737 10.0897C9.16194 10.0897 11.2166 8.03506 11.2166 5.5005C11.2166 2.96593 9.16194 0.911255 6.62737 0.911255C4.0928 0.911255 2.03813 2.96593 2.03813 5.5005C2.03813 8.03506 4.0928 10.0897 6.62737 10.0897Z" fill="#0F1C29"/>
<path fill-rule="evenodd" clip-rule="evenodd" d="M12.2063 19.1532C11.8683 19.59 11.2402 19.67 10.8034 19.332L6.51885 16.016C6.08209 15.678 6.00206 15.0499 6.34011 14.6132C6.67815 14.1764 7.30626 14.0964 7.74302 14.4344L12.0276 17.7504C12.4644 18.0884 12.5444 18.7165 12.2063 19.1532Z" fill="#0F1C29"/>
<path fill-rule="evenodd" clip-rule="evenodd" d="M6.81749 13.8012C6.55422 14.2867 5.94723 14.4668 5.46174 14.2036L0.69914 11.6207C0.213652 11.3574 0.0335121 10.7504 0.296785 10.2649C0.560058 9.77944 1.16705 9.5993 1.65254 9.86259L6.41513 12.4454C6.90062 12.7087 7.08076 13.3157 6.81749 13.8012Z" fill="#0F1C29"/>
<path fill-rule="evenodd" clip-rule="evenodd" d="M13.0809 10.2649C12.8176 9.77945 12.2107 9.59932 11.7252 9.86261L6.96257 12.4454C6.47708 12.7087 6.29694 13.3157 6.56021 13.8012C6.82349 14.2867 7.43048 14.4669 7.91596 14.2036L12.6786 11.6207C13.164 11.3575 13.3442 10.7504 13.0809 10.2649Z" fill="#0F1C29"/>
<path fill-rule="evenodd" clip-rule="evenodd" d="M1.04867 19.1536C1.3867 19.5903 2.01477 19.6704 2.45152 19.3323L7.3479 15.5425C7.78464 15.2044 7.86467 14.5763 7.52664 14.1396C7.18862 13.7028 6.56054 13.6228 6.1238 13.9608L1.22742 17.7507C0.790675 18.0887 0.710647 18.7168 1.04867 19.1536Z" fill="#0F1C29"/>
</svg>
