<svg width="26" height="15" viewBox="0 0 26 15" fill="none" xmlns="http://www.w3.org/2000/svg">
<path d="M25.0679 12.7137C25.0383 12.65 25.0108 12.5972 24.9852 12.5549C24.5619 11.7925 23.7529 10.8566 22.5588 9.74717L22.5336 9.72176L22.521 9.70931L22.5082 9.69654H22.4954C21.9534 9.17991 21.6102 8.83254 21.4665 8.65469C21.2036 8.31591 21.1446 7.97299 21.2884 7.62553C21.3899 7.36301 21.7713 6.80861 22.4317 5.96156C22.7791 5.51266 23.0542 5.15287 23.2573 4.88181C24.7226 2.93384 25.3578 1.68905 25.163 1.14698L25.0873 1.0203C25.0364 0.944035 24.9052 0.874267 24.6937 0.81064C24.4817 0.747146 24.2108 0.736645 23.8804 0.77896L20.2219 0.804232C20.1626 0.783231 20.078 0.785189 19.9677 0.81064C19.8576 0.836091 19.8025 0.848861 19.8025 0.848861L19.7388 0.880674L19.6883 0.918895C19.6459 0.944168 19.5993 0.988619 19.5485 1.05216C19.4979 1.11547 19.4556 1.18978 19.4218 1.27445C19.0235 2.29921 18.5706 3.25197 18.0623 4.1327C17.7489 4.65787 17.4612 5.11301 17.1983 5.49837C16.9359 5.88361 16.7156 6.16744 16.5379 6.34938C16.36 6.5315 16.1993 6.67739 16.0551 6.78761C15.9111 6.89787 15.8011 6.94445 15.725 6.92741C15.6487 6.91037 15.5768 6.89346 15.5088 6.87655C15.3903 6.80029 15.295 6.69657 15.2231 6.56531C15.1509 6.43405 15.1024 6.26884 15.077 6.06982C15.0517 5.87066 15.0367 5.69936 15.0325 5.55533C15.0285 5.41148 15.0303 5.208 15.0389 4.94548C15.0477 4.68283 15.0517 4.50512 15.0517 4.41195C15.0517 4.09007 15.058 3.74075 15.0705 3.36388C15.0834 2.98701 15.0937 2.6884 15.1024 2.46842C15.111 2.24822 15.115 2.01524 15.115 1.76963C15.115 1.52402 15.1001 1.33141 15.0705 1.1916C15.0414 1.05198 14.9966 0.916448 14.9375 0.785055C14.8781 0.653796 14.7912 0.552259 14.6771 0.480178C14.5628 0.408186 14.4207 0.351054 14.2515 0.308606C13.8026 0.207025 13.231 0.152074 12.5364 0.143531C10.9612 0.126623 9.94912 0.228338 9.50026 0.448542C9.32242 0.54158 9.16148 0.668701 9.01758 0.829505C8.8651 1.01589 8.84383 1.11761 8.95391 1.13434C9.46213 1.21047 9.82191 1.39259 10.0337 1.68051L10.11 1.83308C10.1693 1.94316 10.2286 2.13805 10.2879 2.41748C10.3471 2.6969 10.3853 3.00601 10.4022 3.34461C10.4444 3.96295 10.4444 4.49226 10.4022 4.93258C10.3598 5.37308 10.3197 5.716 10.2815 5.96161C10.2433 6.20722 10.1861 6.40624 10.11 6.55864C10.0337 6.71108 9.98289 6.80425 9.95744 6.83807C9.93204 6.87188 9.91086 6.89319 9.89404 6.90156C9.78396 6.94374 9.66947 6.96523 9.55098 6.96523C9.43232 6.96523 9.28842 6.90587 9.11907 6.78725C8.94977 6.66863 8.77406 6.50569 8.59195 6.29817C8.40983 6.0906 8.20444 5.80054 7.9757 5.42794C7.74713 5.05534 7.50997 4.61498 7.26436 4.10685L7.06115 3.73834C6.93412 3.50128 6.76059 3.15609 6.54039 2.70309C6.32005 2.24991 6.1253 1.81155 5.95599 1.38809C5.88832 1.21025 5.78665 1.07485 5.65116 0.981677L5.58758 0.943456C5.54531 0.90964 5.47745 0.873733 5.38437 0.835468C5.29115 0.797247 5.19389 0.769838 5.09217 0.752974L1.6114 0.778248C1.25571 0.778248 1.01437 0.858827 0.887296 1.01976L0.836439 1.09589C0.811032 1.1383 0.798218 1.20602 0.798218 1.29924C0.798218 1.39241 0.823624 1.50676 0.874482 1.64216C1.38261 2.83639 1.93519 3.98814 2.53222 5.09757C3.12925 6.207 3.64806 7.10067 4.08833 7.77779C4.52869 8.4554 4.97756 9.09492 5.43492 9.69605C5.89228 10.2974 6.19502 10.6828 6.34314 10.8521C6.49144 11.0217 6.60793 11.1485 6.6926 11.2332L7.01025 11.538C7.2135 11.7413 7.51197 11.9848 7.90579 12.2684C8.29971 12.5522 8.7358 12.8317 9.21429 13.1071C9.69288 13.3822 10.2496 13.6066 10.8849 13.7802C11.5201 13.9539 12.1383 14.0236 12.7396 13.99H14.2005C14.4968 13.9644 14.7213 13.8712 14.8739 13.7104L14.9244 13.6468C14.9584 13.5962 14.9902 13.5177 15.0196 13.412C15.0493 13.3062 15.0641 13.1895 15.0641 13.0627C15.0554 12.6986 15.0831 12.3704 15.1465 12.0783C15.2098 11.7862 15.282 11.566 15.3627 11.4177C15.4434 11.2696 15.5344 11.1445 15.6357 11.0432C15.7373 10.9416 15.8096 10.88 15.8521 10.8589C15.8942 10.8376 15.9279 10.8231 15.9533 10.8144C16.1566 10.7467 16.3958 10.8123 16.6713 11.0115C16.9466 11.2105 17.2048 11.4563 17.4463 11.7483C17.6877 12.0406 17.9777 12.3686 18.3164 12.7327C18.6553 13.097 18.9516 13.3677 19.2056 13.5458L19.4596 13.6983C19.6292 13.8 19.8494 13.8931 20.1205 13.9778C20.391 14.0624 20.6281 14.0836 20.8317 14.0413L24.0837 13.9906C24.4053 13.9906 24.6556 13.9373 24.8331 13.8316C25.011 13.7258 25.1167 13.6092 25.1508 13.4823C25.1848 13.3553 25.1866 13.2113 25.1572 13.0502C25.1271 12.8895 25.0974 12.7772 25.0679 12.7137Z" fill="#0F1C29"/>
</svg>
