<svg width="31" height="25" viewBox="0 0 31 25" fill="none" xmlns="http://www.w3.org/2000/svg">
<circle cx="15.5887" cy="14.98" r="9.03668" stroke="#0F1C29"/>
<path fill-rule="evenodd" clip-rule="evenodd" d="M14.5504 15.2428L15.3379 5.45703L15.8379 5.45703L16.5339 15.2428L14.5504 15.2428Z" fill="#0F1C29"/>
<path fill-rule="evenodd" clip-rule="evenodd" d="M15.3389 2.87504V0.359375L15.8389 0.359375V2.87504H15.3389Z" fill="#0F1C29"/>
<path fill-rule="evenodd" clip-rule="evenodd" d="M13.6672 3.10572L13.3389 0.611572L13.8346 0.546309L14.163 3.04046L13.6672 3.10572Z" fill="#0F1C29"/>
<path fill-rule="evenodd" clip-rule="evenodd" d="M17.677 3.10572L18.0054 0.611572L17.5096 0.546309L17.1813 3.04046L17.677 3.10572Z" fill="#0F1C29"/>
<path fill-rule="evenodd" clip-rule="evenodd" d="M12.0398 3.55275L11.3887 1.1228L11.8716 0.993393L12.5227 3.42334L12.0398 3.55275Z" fill="#0F1C29"/>
<path fill-rule="evenodd" clip-rule="evenodd" d="M19.3045 3.55275L19.9556 1.1228L19.4726 0.993393L18.8215 3.42334L19.3045 3.55275Z" fill="#0F1C29"/>
<path fill-rule="evenodd" clip-rule="evenodd" d="M10.4847 4.20833L9.52197 1.88416L9.98391 1.69281L10.9466 4.01699L10.4847 4.20833Z" fill="#0F1C29"/>
<path fill-rule="evenodd" clip-rule="evenodd" d="M20.86 4.20833L21.8228 1.88416L21.3608 1.69281L20.3981 4.01699L20.86 4.20833Z" fill="#0F1C29"/>
<path fill-rule="evenodd" clip-rule="evenodd" d="M9.02834 5.06132L7.77051 2.88269L8.20352 2.63269L9.46135 4.81132L9.02834 5.06132Z" fill="#0F1C29"/>
<path fill-rule="evenodd" clip-rule="evenodd" d="M22.3159 5.06132L23.5737 2.88269L23.1407 2.63269L21.8829 4.81132L22.3159 5.06132Z" fill="#0F1C29"/>
<path fill-rule="evenodd" clip-rule="evenodd" d="M7.69648 6.09701L6.16504 4.1012L6.56172 3.79682L8.09316 5.79263L7.69648 6.09701Z" fill="#0F1C29"/>
<path fill-rule="evenodd" clip-rule="evenodd" d="M23.6478 6.09701L25.1792 4.1012L24.7825 3.79682L23.2511 5.79263L23.6478 6.09701Z" fill="#0F1C29"/>
<path fill-rule="evenodd" clip-rule="evenodd" d="M6.51029 7.29777L4.73145 5.51892L5.085 5.16537L6.86384 6.94421L6.51029 7.29777Z" fill="#0F1C29"/>
<path fill-rule="evenodd" clip-rule="evenodd" d="M24.8339 7.29777L26.6128 5.51892L26.2592 5.16537L24.4804 6.94421L24.8339 7.29777Z" fill="#0F1C29"/>
<path fill-rule="evenodd" clip-rule="evenodd" d="M5.49142 8.64301L3.49561 7.11157L3.79999 6.7149L5.7958 8.24634L5.49142 8.64301Z" fill="#0F1C29"/>
<path fill-rule="evenodd" clip-rule="evenodd" d="M25.8533 8.64301L27.8491 7.11157L27.5447 6.7149L25.5489 8.24634L25.8533 8.64301Z" fill="#0F1C29"/>
<path fill-rule="evenodd" clip-rule="evenodd" d="M4.65715 10.1098L2.47852 8.85193L2.72852 8.41892L4.90715 9.67675L4.65715 10.1098Z" fill="#0F1C29"/>
<path fill-rule="evenodd" clip-rule="evenodd" d="M26.6871 10.1098L28.8657 8.85193L28.6157 8.41892L26.4371 9.67675L26.6871 10.1098Z" fill="#0F1C29"/>
<path fill-rule="evenodd" clip-rule="evenodd" d="M4.02095 11.6729L1.69678 10.7102L1.88812 10.2483L4.21229 11.211L4.02095 11.6729Z" fill="#0F1C29"/>
<path fill-rule="evenodd" clip-rule="evenodd" d="M27.3238 11.6729L29.6479 10.7102L29.4566 10.2483L27.1324 11.211L27.3238 11.6729Z" fill="#0F1C29"/>
<path fill-rule="evenodd" clip-rule="evenodd" d="M3.59401 13.3058L1.16406 12.6547L1.29347 12.1717L3.72342 12.8228L3.59401 13.3058Z" fill="#0F1C29"/>
<path fill-rule="evenodd" clip-rule="evenodd" d="M27.7502 13.3058L30.1802 12.6547L30.0508 12.1717L27.6208 12.8228L27.7502 13.3058Z" fill="#0F1C29"/>
<path fill-rule="evenodd" clip-rule="evenodd" d="M3.38477 14.9802L0.890625 14.6519L0.955888 14.1561L3.45003 14.4845L3.38477 14.9802Z" fill="#0F1C29"/>
<path fill-rule="evenodd" clip-rule="evenodd" d="M27.9595 14.9802L30.4536 14.6519L30.3883 14.1561L27.8942 14.4845L27.9595 14.9802Z" fill="#0F1C29"/>
<path fill-rule="evenodd" clip-rule="evenodd" d="M3.39506 16.6677H0.879395L0.879395 16.1677H3.39506V16.6677Z" fill="#0F1C29"/>
<path fill-rule="evenodd" clip-rule="evenodd" d="M27.9497 16.6677H30.4653V16.1677H27.9497V16.6677Z" fill="#0F1C29"/>
</svg>
