<svg width="24" height="17" viewBox="0 0 24 17" fill="none" xmlns="http://www.w3.org/2000/svg">
<line x1="0.019043" y1="16.4995" x2="6.39795" y2="16.4995" stroke="black"/>
<line x1="8.41016" y1="16.4995" x2="14.7891" y2="16.4995" stroke="black"/>
<line x1="16.8013" y1="16.4995" x2="23.1802" y2="16.4995" stroke="black"/>
<line x1="0.019043" y1="14.5923" x2="6.39795" y2="14.5923" stroke="black"/>
<line x1="8.41016" y1="14.5923" x2="14.7891" y2="14.5923" stroke="black"/>
<line x1="16.8013" y1="14.5923" x2="23.1802" y2="14.5923" stroke="black"/>
<line x1="0.019043" y1="12.6846" x2="6.39795" y2="12.6846" stroke="black"/>
<line x1="8.41016" y1="12.6846" x2="14.7891" y2="12.6846" stroke="black"/>
<line x1="16.8013" y1="12.6846" x2="23.1802" y2="12.6846" stroke="black"/>
<line x1="0.019043" y1="10.7773" x2="6.39795" y2="10.7773" stroke="black"/>
<line x1="8.41016" y1="10.7773" x2="14.7891" y2="10.7773" stroke="black"/>
<line x1="16.8013" y1="10.7773" x2="23.1802" y2="10.7773" stroke="black"/>
<line x1="16.8013" y1="6.96289" x2="23.1802" y2="6.96289" stroke="black"/>
<line x1="0.019043" y1="8.87012" x2="6.39795" y2="8.87012" stroke="black"/>
<line x1="8.41016" y1="8.87012" x2="14.7891" y2="8.87012" stroke="black"/>
<line x1="16.8013" y1="8.87012" x2="23.1802" y2="8.87012" stroke="black"/>
<line x1="16.8013" y1="5.05566" x2="23.1802" y2="5.05566" stroke="black"/>
<line x1="0.019043" y1="6.96289" x2="6.39795" y2="6.96289" stroke="black"/>
<line x1="0.019043" y1="5.05566" x2="6.39795" y2="5.05566" stroke="black"/>
<line x1="0.019043" y1="3.14795" x2="6.39795" y2="3.14795" stroke="black"/>
<line x1="0.019043" y1="1.24072" x2="6.39795" y2="1.24072" stroke="black"/>
</svg>
