<svg width="32" height="29" viewBox="0 0 32 29" fill="none" xmlns="http://www.w3.org/2000/svg">
<path d="M21.6496 12.4718C21.6442 12.4633 21.6381 12.4554 21.6313 12.4481C19.7724 10.4566 17.3009 9.35986 14.6721 9.35986C12.0435 9.35986 9.57224 10.4564 7.71345 12.4477C7.68456 12.4784 7.66797 12.5204 7.66797 12.5646C7.66797 12.6083 7.68413 12.6502 7.71299 12.681L8.73058 13.7713C8.75941 13.8021 8.79847 13.8195 8.83922 13.8195C8.87997 13.8195 8.91906 13.8021 8.94785 13.7713C10.4794 12.1304 12.5123 11.2268 14.6721 11.2268C16.832 11.2268 18.8649 12.1304 20.3964 13.7712C20.4252 13.8021 20.4643 13.8194 20.505 13.8194C20.5458 13.8194 20.5849 13.8021 20.6137 13.7712L21.6312 12.681C21.6601 12.6501 21.6763 12.6083 21.6763 12.5646C21.6763 12.5315 21.667 12.4992 21.6496 12.4718Z" fill="#0F1C29"/>
<path d="M14.6717 12.2432C12.7646 12.2432 10.9698 13.0409 9.61774 14.4895C9.55775 14.5538 9.55775 14.6581 9.61777 14.7223L10.6322 15.8091C10.661 15.84 10.7001 15.8574 10.7408 15.8574C10.7816 15.8574 10.8207 15.84 10.8495 15.8091C11.8721 14.7135 13.2295 14.1101 14.6717 14.1101C16.1139 14.1101 17.4713 14.7135 18.4939 15.8091C18.5227 15.84 18.5618 15.8574 18.6025 15.8574C18.6433 15.8574 18.6824 15.84 18.7112 15.8091L19.7256 14.7223C19.7544 14.6915 19.7706 14.6496 19.7706 14.6059C19.7706 14.5622 19.7545 14.5204 19.7256 14.4895C18.3735 13.041 16.5787 12.2432 14.6717 12.2432Z" fill="#0F1C29"/>
<path d="M14.6718 15.126C13.4824 15.126 12.3631 15.6234 11.5199 16.5268C11.491 16.5577 11.4749 16.5996 11.4749 16.6433C11.4749 16.6869 11.491 16.7288 11.5199 16.7597L12.5343 17.8465C12.5631 17.8774 12.6022 17.8947 12.6429 17.8947C12.6837 17.8947 12.7228 17.8774 12.7516 17.8465C13.2654 17.296 13.9473 16.9929 14.6718 16.9929C15.3963 16.9929 16.0782 17.2961 16.592 17.8465C16.6208 17.8774 16.6599 17.8947 16.7006 17.8947C16.7413 17.8947 16.7804 17.8774 16.8092 17.8465L17.8237 16.7597C17.8836 16.6954 17.8836 16.5911 17.8237 16.5269C16.9805 15.6234 15.8611 15.126 14.6718 15.126Z" fill="#0F1C29"/>
<path d="M14.6718 18.1812C14.2563 18.1812 13.8657 18.3544 13.5721 18.6691C13.5121 18.7334 13.5121 18.8376 13.5721 18.9019L14.5631 19.9636C14.592 19.9944 14.631 20.0118 14.6718 20.0118C14.7125 20.0118 14.7516 19.9944 14.7804 19.9636L15.7714 18.9019C15.8314 18.8376 15.8314 18.7334 15.7714 18.6691C15.4778 18.3544 15.0872 18.1812 14.6718 18.1812Z" fill="#0F1C29"/>
<path d="M24.068 4.95246C21.4866 2.37109 17.9855 0.920898 14.3349 0.920898V2.78813C17.4903 2.78813 20.5164 4.0416 22.7476 6.27279L24.068 4.95246Z" fill="#0F1C29"/>
<path d="M10.7724 1.38992C7.24617 2.33476 4.23972 4.64169 2.41442 7.8032L4.03149 8.73681C5.60918 6.00417 8.20779 4.01019 11.2557 3.19352L10.7724 1.38992Z" fill="#0F1C29"/>
<path d="M1.03933 11.123C0.175028 14.3486 0.512837 17.7784 1.98982 20.7734C3.4668 23.7685 5.98222 26.1244 9.06743 27.4023C12.1526 28.6803 15.5972 28.793 18.7594 27.7196C21.9216 26.6462 24.5857 24.4598 26.2554 21.5678L24.6383 20.6342C23.1951 23.1339 20.8924 25.0237 18.1592 25.9515C15.426 26.8793 12.4487 26.7818 9.78199 25.6772C7.1153 24.5727 4.94111 22.5363 3.66448 19.9476C2.38786 17.3588 2.09588 14.3943 2.84293 11.6062L1.03933 11.123Z" fill="#0F1C29"/>
<path d="M27.7835 16.8275L27.7835 24.2475L21.3576 20.5375L27.7835 16.8275Z" fill="#0F1C29"/>
</svg>
