<svg width="28" height="29" viewBox="0 0 28 29" fill="none" xmlns="http://www.w3.org/2000/svg">
<g clip-path="url(#clip0)">
<path d="M24.7393 4.17675L13.9735 0.947018C13.823 0.901775 13.6622 0.901775 13.5115 0.947018L2.74565 4.17675C2.40552 4.27876 2.17261 4.59182 2.17261 4.9469V16.7892C2.17261 18.3295 2.79615 19.9063 4.02591 21.4757C4.96519 22.6743 6.26459 23.8779 7.88808 25.0531C10.6154 27.0273 13.3009 28.2384 13.4139 28.2889C13.5184 28.3357 13.6304 28.3591 13.7425 28.3591C13.8544 28.3591 13.9665 28.3358 14.071 28.2889C14.184 28.2384 16.8695 27.0273 19.5968 25.0531C21.2202 23.8779 22.5196 22.6743 23.4589 21.4757C24.6887 19.9063 25.3122 18.3296 25.3122 16.7892V4.9469C25.3122 4.59182 25.0794 4.27876 24.7393 4.17675ZM23.7041 16.7892C23.7041 19.5152 20.969 22.0712 18.6745 23.7355C16.6174 25.2275 14.5313 26.2862 13.7425 26.6665C12.9538 26.2862 10.8675 25.2275 8.81047 23.7355C6.51594 22.0712 3.78077 19.5152 3.78077 16.7892V5.54514L13.7425 2.55663L23.7041 5.54514V16.7892Z" fill="#0F1C29"/>
<path fill-rule="evenodd" clip-rule="evenodd" d="M20.0139 11.9431L12.9076 19.0494L7.47095 13.6128L9.19086 11.8929L12.9076 15.6095L18.294 10.2231L20.0139 11.9431Z" fill="#0F1C29"/>
</g>
<defs>
<clipPath id="clip0">
<rect width="27.446" height="27.446" fill="white" transform="translate(0.0192871 0.913086)"/>
</clipPath>
</defs>
</svg>
