<svg width="26" height="27" viewBox="0 0 26 27" fill="none" xmlns="http://www.w3.org/2000/svg">
<line x1="25.9247" y1="13.1489" x2="23.3699" y2="13.1489" stroke="#0F1C29"/>
<line y1="-0.5" x2="2.55479" y2="-0.5" transform="matrix(1 -8.74228e-08 -8.74228e-08 -1 0.318115 12.6489)" stroke="#0F1C29"/>
<circle cx="13.1214" cy="13.3409" r="12.3033" stroke="#0F1C29"/>
<line x1="13.3009" y1="7.16016" x2="13.3009" y2="13.8645" stroke="#0F1C29"/>
<line x1="13.3009" y1="0.537598" x2="13.3009" y2="3.09239" stroke="#0F1C29"/>
<line y1="-0.5" x2="2.55479" y2="-0.5" transform="matrix(4.37114e-08 -1 -1 -4.37114e-08 12.8009 25.8076)" stroke="#0F1C29"/>
<line x1="21.6964" y1="4.36646" x2="19.8114" y2="6.091" stroke="#0F1C29"/>
<line y1="-0.5" x2="2.55479" y2="-0.5" transform="matrix(0.737798 0.675022 0.675022 -0.737798 4.88391 3.99756)" stroke="#0F1C29"/>
<line y1="-0.5" x2="2.55479" y2="-0.5" transform="matrix(-0.737798 -0.675022 -0.675022 0.737798 21.3589 22.3477)" stroke="#0F1C29"/>
<line x1="4.5464" y1="21.9788" x2="6.43132" y2="20.2542" stroke="#0F1C29"/>
<line x1="21.0551" y1="13.3525" x2="12.801" y2="13.3525" stroke="#0F1C29"/>
</svg>
