<svg width="81" height="81" viewBox="0 0 81 81" fill="none" xmlns="http://www.w3.org/2000/svg">
<path d="M42.5726 65.3803C42.1505 65.7872 41.4456 65.4857 41.4456 64.8995V43.3701C41.4456 42.6345 42.042 42.0381 42.7776 42.0381H51.8036C52.5823 42.0381 53.1945 42.7034 53.1324 43.4794C52.4446 52.0581 48.5354 59.6314 42.5726 65.3803ZM37.4498 42.0381H28.4782C27.6864 42.0381 27.067 42.7254 27.1526 43.5124C28.1554 52.7487 33.4525 60.2314 37.6254 64.8116C38.0342 65.2603 38.7817 64.9679 38.7817 64.3609V43.3701C38.7817 42.6345 38.1854 42.0381 37.4498 42.0381ZM28.4171 39.3742H37.4498C38.1854 39.3742 38.7817 38.7779 38.7817 38.0423V16.6086C38.7817 16.0205 38.0738 15.7204 37.6519 16.1299C31.4895 22.1142 27.7436 29.6821 27.0882 37.9361C27.0265 38.7111 27.6397 39.3742 28.4171 39.3742ZM73.5851 0.748546C68.6003 0.804654 65.587 6.32487 68.2226 10.5461L58.2414 20.529C54.9082 17.5305 50.8341 15.3461 46.3288 14.2872C45.6845 14.1357 45.2316 14.9082 45.6862 15.3894C49.7734 19.7188 55.0778 27.3274 55.8169 38.1434C55.8643 38.8381 56.4484 39.3742 57.1448 39.3742H65.7815C66.5686 39.3742 67.1885 38.6945 67.1081 37.9114C66.4975 31.9683 63.96 26.5866 60.1327 22.4037L70.0723 12.4658C74.2909 15.3329 80.0715 12.3028 80.0718 7.15833C80.072 3.61271 77.1306 0.708588 73.5851 0.748546ZM41.4456 16.5077V38.0423C41.4456 38.7779 42.042 39.3742 42.7776 39.3742H51.8039C52.5826 39.3742 53.1948 38.7089 53.1327 37.9329C52.4439 29.3236 48.515 21.7577 42.5761 16.0304C42.1524 15.6218 41.4456 15.919 41.4456 16.5077ZM70.0723 68.9466L60.131 59.007C63.9599 54.8241 66.4975 49.4439 67.1081 43.5009C67.1885 42.7179 66.5686 42.0381 65.7815 42.0381H57.1447C56.4484 42.0381 55.8642 42.5742 55.8167 43.2688C55.0762 54.0878 49.7684 61.695 45.6795 66.0247C45.225 66.5058 45.6778 67.2783 46.3222 67.1268C50.8291 66.0679 54.9082 63.8819 58.2414 60.8834L68.2226 70.8662C65.5788 75.1005 68.6147 80.6195 73.6011 80.664C77.1402 80.6956 80.0722 77.7932 80.0718 74.2539C80.0715 69.1111 74.2925 66.0783 70.0723 68.9466ZM34.0267 14.2589C29.3916 15.3244 25.2076 17.5804 21.8128 20.6888L11.8733 10.7476C14.7404 6.52899 11.7103 0.74838 6.56582 0.748047C3.0202 0.74788 0.115906 3.6893 0.155864 7.23475C0.212138 12.2195 5.73236 15.2329 9.9536 12.5973L19.9365 22.5802C16.1961 26.7373 13.7215 32.0511 13.1193 37.9123C13.0389 38.695 13.6589 39.3742 14.4459 39.3742H23.0742C23.7721 39.3742 24.355 38.8355 24.402 38.1392C24.9907 29.4005 28.7582 21.5662 34.6644 15.3627C35.1206 14.8832 34.671 14.109 34.0267 14.2589ZM35.2921 66.1978C30.8372 61.2035 25.3496 53.1743 24.4478 43.2419C24.3858 42.5587 23.8086 42.0381 23.1226 42.0381H14.4457C13.6586 42.0381 13.0387 42.7179 13.1191 43.5009C13.7296 49.4454 16.2673 54.8256 20.0963 59.007L10.1551 68.9466C5.93648 66.0793 0.155864 69.1096 0.155531 74.254C0.155365 77.7998 3.09695 80.7039 6.6424 80.664C11.6272 80.6077 14.6402 75.0875 12.0048 70.8662L21.9877 60.8834C25.5056 64.0501 29.8544 66.3093 34.6611 67.2933C35.2871 67.4215 35.7166 66.6756 35.2921 66.1978Z" fill="white"/>
</svg>
