<svg width="53" height="53" viewBox="0 0 53 53" fill="none" xmlns="http://www.w3.org/2000/svg">
<path d="M32.9469 19.7734H19.9852V32.7351H32.9469V19.7734Z" fill="white"/>
<path d="M45.6657 14.1319V13.0558C45.6657 9.74213 42.9794 7.05584 39.6657 7.05584H38.5898V0.496094H35.5712V7.05584H31.5139V0.496094H28.4953V7.05584H24.4381V0.496094H21.4195V7.05584H17.3621V0.496094H14.3435V7.05584H13.2676C9.9539 7.05584 7.26761 9.74213 7.26761 13.0558V14.1318H0.707764V17.1504H7.26761V21.2076H0.707764V24.2262H7.26761V28.2834H0.707764V31.302H7.26761V35.3593H0.707764V38.378H7.26761V39.4538C7.26761 42.7675 9.9539 45.4538 13.2676 45.4538H14.3434V52.0137H17.362V45.454H21.4194V52.0137H24.438V45.454H28.4952V52.0137H31.5138V45.454H35.5711V52.0137H38.5897V45.454H39.6656C42.9793 45.454 45.6656 42.7677 45.6656 39.454V38.3782H52.2254V35.3595H45.6657V31.3022H52.2254V28.2836H45.6657V24.2264H52.2254V21.2078H45.6657V17.1506H52.2254V14.1319H45.6657ZM39.6284 39.4168H13.3048V13.0932H39.6284V39.4168Z" fill="white"/>
</svg>
