<svg width="111" height="22" viewBox="0 0 111 22" fill="none" xmlns="http://www.w3.org/2000/svg">
<path d="M21.1405 10.0078C21.1405 10.0078 21.6533 4.15253 21.7054 3.57926C21.7206 3.24596 21.669 2.91299 21.5537 2.6002C21.4384 2.28741 21.2617 2.00121 21.0342 1.75864C20.8067 1.51607 20.5331 1.32211 20.2296 1.18831C19.9261 1.05451 19.599 0.98362 19.2677 0.979859H4.59349C3.91697 0.932637 3.24918 1.15543 2.73448 1.60009C2.21977 2.04474 1.89949 2.67553 1.84289 3.35608C1.77771 4.04313 0.561022 18.1998 0.487151 19.0138C0.443803 19.3604 0.473373 19.7123 0.57394 20.0467C0.674506 20.3811 0.843818 20.6904 1.07087 20.9545C1.29792 21.2187 1.57762 21.4318 1.8918 21.5799C2.20598 21.7281 2.54761 21.808 2.89446 21.8145H17.4817C19.4198 21.8145 20.1715 20.7817 20.3366 19.1888C20.4366 18.2348 20.9145 12.4715 20.9145 12.4715H12.0935L11.7155 16.9264H9.48198L10.4423 5.86796H12.6758L12.3195 10.0078H21.1405Z" fill="#008C95"/>
<path d="M34.7502 2.76053C34.4373 3.67076 31.8692 11.7622 31.8692 11.7622L33.0121 0.970703H24.1954L22.3486 21.8141H28.9926C30.6612 21.8141 31.2305 20.8601 31.5086 20.0943C31.8432 19.184 34.2896 12.3748 34.2896 12.3748L33.3901 21.8141H42.2111L44.0275 0.979456H37.1054C36.5733 0.975565 36.0547 1.14773 35.6292 1.46951C35.2037 1.79128 34.8949 2.24485 34.7502 2.76053Z" fill="#008C95"/>
<path d="M79.4287 0.979492L78.6031 10.48H76.3652L77.1908 0.979492H68.3742C68.3742 0.979492 67.5268 11.0445 67.4356 12.0116C67.3313 13.1713 67.9831 14.8123 69.9341 14.8123H78.2294L78.0469 16.926H67.0097L66.5752 21.8141H84.126C85.3166 21.8141 86.4638 21.0308 86.6202 19.3591C86.7201 18.287 88.2367 0.979492 88.2367 0.979492H79.4287Z" fill="#008C95"/>
<path d="M102.442 0.983398H90.4659L88.6582 21.8136H97.4749L98.0354 15.3676H106.604C108.121 15.3676 109.125 14.5887 109.29 12.8032C109.351 12.1074 110.05 4.21296 110.094 3.51716C110.202 1.97677 108.986 0.983398 107.487 0.983398H102.442ZM98.4135 11.0484L98.848 5.88025H101.06L100.625 11.0484H98.4135Z" fill="#008C95"/>
<path d="M54.4862 7.97687L54.673 5.86759H65.7188L66.1534 0.979492H46.2735L44.4658 21.8097H62.0644C63.1855 21.8097 64.3978 21.1446 64.5543 19.4029C64.6716 18.09 65.2148 11.9022 65.3147 10.7776C65.4451 9.27657 64.4978 7.97687 62.6423 7.97687H54.4862ZM55.9114 17.4774H53.6605L54.0951 12.3136H56.3416L55.9114 17.4774Z" fill="#008C95"/>
</svg>
