<svg width="0" height="0" class="hidden">
  <symbol fill="none" xmlns="http://www.w3.org/2000/svg" viewBox="0 0 14 20" id="social-odnok">
    <path fill-rule="evenodd" clip-rule="evenodd" d="M6.627 8.09a2.59 2.59 0 100-5.179 2.59 2.59 0 000 5.179zm0 2a4.59 4.59 0 100-9.179 4.59 4.59 0 000 9.179zm5.579 9.063a1 1 0 01-1.403.179L6.52 16.016a1 1 0 111.224-1.582l4.285 3.316a1 1 0 01.178 1.403zm-5.389-5.352a1 1 0 01-1.355.403L.699 11.62a1 1 0 01.954-1.758l4.762 2.582a1 1 0 01.402 1.356z" fill="currentColor"></path>
    <path fill-rule="evenodd" clip-rule="evenodd" d="M13.08 10.265a1 1 0 00-1.355-.402l-4.762 2.582a1 1 0 00.953 1.759l4.763-2.583a1 1 0 00.402-1.356z" fill="currentColor"></path>
    <path fill-rule="evenodd" clip-rule="evenodd" d="M1.049 19.154a1 1 0 001.403.178l4.896-3.79a1 1 0 00-1.224-1.581l-4.897 3.79a1 1 0 00-.178 1.403z" fill="currentColor"></path>
  </symbol>
  <symbol fill="none" xmlns="http://www.w3.org/2000/svg" viewBox="0 0 23 23" id="social-insta">
    <path d="M11.184 5.588a5.63 5.63 0 00-5.639 5.638 5.63 5.63 0 005.639 5.639 5.63 5.63 0 005.638-5.639 5.63 5.63 0 00-5.638-5.638zm0 9.303a3.672 3.672 0 01-3.665-3.665 3.672 3.672 0 013.665-3.664 3.672 3.672 0 013.664 3.664 3.672 3.672 0 01-3.664 3.665zm5.869-10.848c-.729 0-1.317.588-1.317 1.317 0 .728.588 1.317 1.317 1.317a1.313 1.313 0 001.217-1.821 1.315 1.315 0 00-1.217-.813zm5.122 7.183c0-1.517.013-3.02-.072-4.536-.085-1.759-.487-3.32-1.773-4.607C19.04.793 17.482.395 15.722.31c-1.517-.086-3.02-.072-4.536-.072C9.67.238 8.166.224 6.65.31 4.89.395 3.33.796 2.043 2.083.753 3.373.355 4.93.27 6.69.184 8.208.198 9.712.198 11.226c0 1.515-.014 3.022.072 4.536.085 1.76.486 3.321 1.773 4.608 1.29 1.29 2.848 1.688 4.607 1.773 1.518.085 3.022.072 4.536.072 1.518 0 3.022.013 4.536-.072 1.76-.085 3.321-.486 4.608-1.773 1.29-1.29 1.688-2.848 1.773-4.608.088-1.514.072-3.018.072-4.536zm-2.42 6.483c-.2.5-.442.874-.83 1.259a3.5 3.5 0 01-1.259.83c-1.446.575-4.88.446-6.482.446-1.603 0-5.04.129-6.485-.443a3.5 3.5 0 01-1.26-.83 3.517 3.517 0 01-.83-1.26c-.572-1.448-.442-4.882-.442-6.485 0-1.602-.13-5.039.442-6.485.2-.5.443-.874.83-1.259.388-.385.76-.63 1.26-.83 1.446-.572 4.882-.443 6.485-.443 1.602 0 5.039-.129 6.485.443.5.2.874.443 1.259.83.387.388.63.759.83 1.26.572 1.445.443 4.882.443 6.484 0 1.603.129 5.037-.446 6.483z" fill="currentColor"></path>
  </symbol>
  <symbol fill="none" xmlns="http://www.w3.org/2000/svg" viewBox="0 0 26 15" id="social-vk">
    <path d="M25.068 12.714a1.675 1.675 0 00-.083-.16c-.423-.761-1.232-1.697-2.426-2.807l-.025-.025-.013-.013-.013-.012h-.013c-.542-.517-.885-.864-1.029-1.042-.262-.34-.321-.682-.178-1.03.102-.262.483-.816 1.144-1.663.347-.45.622-.81.825-1.08 1.466-1.948 2.1-3.193 1.906-3.735l-.076-.127c-.05-.076-.182-.146-.393-.21-.212-.063-.483-.073-.814-.031l-3.658.025a.475.475 0 00-.254.007l-.166.038-.063.032-.05.038a.563.563 0 00-.14.133.87.87 0 00-.127.222 20.737 20.737 0 01-1.36 2.859c-.313.525-.6.98-.864 1.365-.262.386-.482.67-.66.851a4.606 4.606 0 01-.483.439c-.144.11-.254.156-.33.14a9.262 9.262 0 01-.216-.051.845.845 0 01-.286-.312 1.393 1.393 0 01-.146-.495 5.43 5.43 0 01-.044-.515 10.69 10.69 0 01.006-.61c.009-.262.013-.44.013-.533 0-.322.006-.671.018-1.048l.032-.896c.009-.22.013-.453.013-.698 0-.246-.015-.439-.045-.578a1.969 1.969 0 00-.133-.407.684.684 0 00-.26-.305 1.467 1.467 0 00-.425-.171c-.45-.102-1.021-.157-1.716-.165C10.961.127 9.95.228 9.5.449c-.178.093-.339.22-.482.38-.153.187-.174.289-.064.305.508.076.868.259 1.08.547l.076.152c.06.11.119.305.178.584.06.28.097.589.114.928a9.905 9.905 0 010 1.588c-.042.44-.082.783-.12 1.029a2.062 2.062 0 01-.172.597 2.516 2.516 0 01-.153.28.219.219 0 01-.063.063.952.952 0 01-.343.063c-.119 0-.263-.06-.432-.178a3.047 3.047 0 01-.527-.489 6.537 6.537 0 01-.616-.87 15.185 15.185 0 01-.712-1.321l-.203-.369c-.127-.237-.3-.582-.52-1.035a19.323 19.323 0 01-.585-1.315.837.837 0 00-.305-.406L5.588.943a.87.87 0 00-.204-.108 1.348 1.348 0 00-.292-.082l-3.48.025c-.356 0-.598.08-.725.242l-.05.076a.411.411 0 00-.039.203c0 .093.026.208.076.343a41.925 41.925 0 001.658 3.456C3.13 6.207 3.648 7.1 4.088 7.778c.44.677.89 1.317 1.347 1.918.457.601.76.987.908 1.156.148.17.265.296.35.381l.317.305c.204.203.502.447.896.73.394.284.83.564 1.308.84a7.142 7.142 0 001.67.672 5.779 5.779 0 001.856.21h1.46c.297-.026.521-.119.674-.28l.05-.063a.844.844 0 00.096-.235c.03-.106.044-.223.044-.35a4.182 4.182 0 01.082-.984c.064-.292.136-.512.217-.66a1.625 1.625 0 01.49-.56.831.831 0 01.1-.044c.204-.067.443-.002.718.197.276.2.534.445.775.737.242.293.532.62.87.985.34.364.636.635.89.813l.254.152c.17.102.39.195.66.28.271.084.508.106.712.063l3.252-.05c.321 0 .572-.054.75-.16.177-.105.283-.222.317-.349a.983.983 0 00.006-.432c-.03-.16-.06-.273-.09-.336z" fill="currentColor"></path>
  </symbol>
  <symbol fill="none" xmlns="http://www.w3.org/2000/svg" viewBox="0 0 11 23" id="social-fb">
    <path d="M2.846 22.22V11.912H.12V8.2h2.726V5.03c0-2.491 1.61-4.779 5.32-4.779 1.503 0 2.613.144 2.613.144l-.087 3.466s-1.133-.011-2.37-.011c-1.337 0-1.551.617-1.551 1.64V8.2h4.027l-.175 3.712H6.77V22.22H2.846z" fill="currentColor"></path>
  </symbol>
</svg>