<svg width="0" height="0" class="hidden">
  <symbol fill="none" xmlns="http://www.w3.org/2000/svg" viewBox="0 0 57 49" id="perspective-icon-1">
    <path d="M12.39 47.287c5.75 0 10.413-4.662 10.413-10.414 0-3.672-1.9-6.9-4.773-8.755v-17.04a5.64 5.64 0 10-11.28 0v17.04a10.405 10.405 0 00-4.774 8.755c0 5.752 4.662 10.414 10.414 10.414z" stroke="#008C95" stroke-width="2"></path>
    <path d="M12.39 44.59a7.773 7.773 0 007.772-7.773c0-2.741-1.543-5.63-4.913-6.535V14.354a1 1 0 00-1-1h-4.056a1 1 0 00-1 1v15.928c-3.514 1.087-4.576 3.794-4.576 6.535a7.772 7.772 0 007.773 7.772z" fill="#008C95"></path>
    <path d="M40.277 19.24a6.11 6.11 0 01-.746 1.075 5.56 5.56 0 01-.97.9 4.705 4.705 0 01-1.153.622c-.41.154-.84.23-1.291.23a3.046 3.046 0 01-1.906-.67 2.55 2.55 0 01-.621-.768 2.188 2.188 0 01-.23-1.005c0-.358.072-.69.216-.998.144-.312.33-.596.558-.852.233-.256.494-.484.782-.684.293-.2.589-.37.887-.51a1.412 1.412 0 01-.566-.23 1.737 1.737 0 01-.425-.419 1.851 1.851 0 01-.266-.544c-.06-.2-.09-.403-.09-.607 0-.284.05-.552.153-.803.102-.256.24-.491.412-.705.177-.219.382-.414.614-.587a4.114 4.114 0 011.529-.726c.275-.065.54-.097.796-.097.381 0 .73.076 1.047.23.316.149.596.368.838.656l-1.013.74a3.122 3.122 0 00-.32-.377 1.78 1.78 0 00-.37-.307 1.729 1.729 0 00-.427-.21 1.472 1.472 0 00-.481-.076c-.214 0-.426.04-.635.119a1.766 1.766 0 00-.552.32 1.625 1.625 0 00-.398.49c-.098.19-.146.4-.146.628 0 .237.05.458.153.663.103.2.238.374.405.523a1.89 1.89 0 001.243.475c.26 0 .502-.042.726-.126l.104.287a7.754 7.754 0 00-1.13.467 4.589 4.589 0 00-1.006.677 3.32 3.32 0 00-.726.922A2.534 2.534 0 0035 19.149c0 .256.037.494.112.713.074.218.181.41.32.572.145.163.32.29.524.384.21.093.445.14.705.14.27 0 .573-.054.908-.161a5.595 5.595 0 001.864-1.061c.265-.233.465-.47.6-.712l.244.216zm5.515-2.52l-.523 1.215a1.705 1.705 0 00-.343-.216.784.784 0 00-.376-.098c-.103 0-.2.02-.294.063a.954.954 0 00-.244.167c-.074.07-.14.149-.195.238a1.682 1.682 0 00-.14.25l-.14.399a35.231 35.231 0 00.53 1.068c.085.158.154.284.21.377.089.135.177.274.266.419.088.14.186.267.293.383a.355.355 0 00.167.105.885.885 0 00.44-.014 1.18 1.18 0 00.224-.09l.174.223a2.278 2.278 0 01-.544.586 1.45 1.45 0 01-.35.203.874.874 0 01-.37.083.768.768 0 01-.3-.055.872.872 0 01-.23-.133 1.31 1.31 0 01-.195-.21l-.189-.244a4.32 4.32 0 01-.167-.286 24.878 24.878 0 00-.175-.356c-.06-.121-.121-.237-.181-.35a2.57 2.57 0 00-.175-.292 4.834 4.834 0 01-.126.44c-.023.07-.044.123-.063.16-.07.149-.158.303-.265.46-.107.159-.23.303-.37.434-.135.125-.284.23-.447.314a1.205 1.205 0 01-.991.021 1.688 1.688 0 01-.426-.245l.44-1.158c.15.093.312.176.489.25.177.07.353.106.53.106a1.2 1.2 0 00.175-.014.771.771 0 00.335-.154.403.403 0 00.105-.147c.032-.06.067-.14.104-.237l.112-.293c.042-.112.084-.23.126-.356l-1.313-2.101a.672.672 0 00-.223-.168.538.538 0 00-.489-.02.823.823 0 00-.202.118l-.189-.244a2.141 2.141 0 01.53-.545c.108-.079.222-.142.343-.188a.941.941 0 01.37-.077.81.81 0 01.426.119c.13.074.251.167.363.279.111.111.214.232.307.363.093.13.177.251.251.363.037.05.077.116.119.195.046.075.09.15.133.224.05.083.1.174.146.272.047-.112.096-.224.147-.335a7.974 7.974 0 01.251-.551c.07-.131.149-.252.237-.364a1.77 1.77 0 01.294-.293 1.37 1.37 0 01.362-.195 1.14 1.14 0 01.426-.077c.145 0 .284.018.42.056.134.037.264.088.39.153z" fill="#0F1C29"></path>
    <path d="M39.6 7.409l5.861.046 2.97 5.053 2.89 5.099-2.89 5.098-2.97 5.053-5.86.046-5.862-.046-2.97-5.053-2.89-5.098 2.89-5.1 2.97-5.052L39.6 7.41z" stroke="#0F1C29"></path>
  </symbol>
  <symbol fill="none" xmlns="http://www.w3.org/2000/svg" viewBox="0 0 30 28" id="smartphone-icon-6">
    <path d="M11.686 27.373h-1.204a.405.405 0 110-.81h1.204a.406.406 0 110 .81z" fill="#0F1C29"></path>
    <path d="M17.67 27.373h-3.146a.405.405 0 010-.81h2.504a32.987 32.987 0 01-2.96-11.275l-.344-4.253a13.61 13.61 0 00-8.632-.002l-.338 4.255a33.391 33.391 0 01-1.064 6.078 33.31 33.31 0 01-1.902 5.197H3.63a.406.406 0 110 .81H1.146a.405.405 0 01-.365-.584 32.438 32.438 0 002.126-5.635c.527-1.94.874-3.926 1.036-5.93l.36-4.52a.405.405 0 01.27-.351 14.44 14.44 0 019.664 0 .406.406 0 01.272.35l.365 4.522a32.164 32.164 0 003.16 11.566.405.405 0 01-.366.583h.002z" fill="#0F1C29"></path>
    <path d="M7.644 27.373H6.47a.406.406 0 110-.81h1.175a.406.406 0 110 .81zm21.069.001h-14a.405.405 0 110-.81h13.36a27.89 27.89 0 01-2.477-9.485l-.288-3.584a9.27 9.27 0 00-7.192 0l-.29 3.584a28.055 28.055 0 01-1.268 6.406.405.405 0 01-.773-.244 27.24 27.24 0 001.235-6.224l.31-3.83a.406.406 0 01.243-.34 10.09 10.09 0 018.28 0 .404.404 0 01.244.34l.306 3.83a27.104 27.104 0 002.675 9.774.405.405 0 01-.365.583zm-14.392-13.59H4.498a.405.405 0 110-.811h9.823a.406.406 0 010 .81z" fill="#0F1C29"></path>
    <path d="M25.9 16.215h-8.376a.405.405 0 110-.81H25.9a.405.405 0 110 .81zM10.462 7.917a.406.406 0 01-.397-.479 1.14 1.14 0 00.021-.206.831.831 0 00-.084-.365.405.405 0 01.4-.58l.063.008h.005a1.029 1.029 0 00.981-.676.405.405 0 01.55-.23 3.952 3.952 0 001.66.352c1.783 0 3.235-1.106 3.235-2.465 0-1.359-1.451-2.465-3.236-2.465-1.784 0-3.235 1.106-3.235 2.465 0 .027.003.054.006.081a.407.407 0 01-.55.42 1.306 1.306 0 00-1.384 2.159.405.405 0 01-.14.673.896.896 0 00-.587.834.406.406 0 01-.801.137.782.782 0 01-.01-.137 1.706 1.706 0 01.644-1.33 2.116 2.116 0 012.04-3.228C9.883 1.263 11.593 0 13.66 0c2.23 0 4.046 1.47 4.046 3.276 0 1.806-1.815 3.275-4.046 3.275a4.809 4.809 0 01-1.636-.278c-.262.401-.67.684-1.137.79a1.69 1.69 0 01-.026.522.405.405 0 01-.399.332zm9.486 1.678a.406.406 0 01-.382-.269 1.51 1.51 0 01.446-1.645 1.854 1.854 0 011.755-2.79c.24-1.378 1.698-2.439 3.456-2.439 1.925 0 3.49 1.273 3.49 2.838 0 1.565-1.565 2.838-3.49 2.838-.462 0-.922-.075-1.36-.224a1.625 1.625 0 01-.922.642 1.473 1.473 0 01-.199.85A.407.407 0 0122 9.29a.406.406 0 01.044-.307.667.667 0 00.09-.337.721.721 0 00-.07-.298.405.405 0 01.42-.57l.041.005a.8.8 0 00.768-.53.406.406 0 01.549-.23c.434.195.905.295 1.38.293 1.478 0 2.68-.91 2.68-2.027s-1.202-2.027-2.68-2.027c-1.477 0-2.68.91-2.68 2.027a.47.47 0 00.005.047.416.416 0 01-.344.456.405.405 0 01-.205-.02 1.039 1.039 0 00-1.434.968 1.025 1.025 0 00.327.755.406.406 0 01-.139.676.698.698 0 00-.422.881.406.406 0 01-.382.542z" fill="#0F1C29"></path>
  </symbol>
  <symbol fill="none" xmlns="http://www.w3.org/2000/svg" viewBox="0 0 31 30" id="smartphone-icon-5">
    <path d="M24.475 17.302l-3.79-2.339a.593.593 0 00-.806.191.593.593 0 00.19.806l3.79 2.339a.59.59 0 00.807-.191.59.59 0 00-.19-.806zm-6.092-3.656a.59.59 0 00-.57.72.601.601 0 00.57.451.582.582 0 00.498-.278c.229-.372-.058-.893-.498-.893zm-6.067 1.478a.603.603 0 00-.808-.183L7.74 17.317a.59.59 0 00-.183.807.61.61 0 00.496.264c.11.003.22-.022.312-.08l3.767-2.376a.59.59 0 00.183-.808zm1.486-1.524a.588.588 0 00-.57.457.593.593 0 00.571.716.589.589 0 00.571-.457.59.59 0 00-.572-.715z" fill="#0F1C29"></path>
    <path d="M30.786 26.686a.586.586 0 00-.827-.058c-.625.543-1.203 1.107-2.023 1.333-.911.252-1.777.053-2.602-.36l3.052-10.266a.586.586 0 00-.258-.668l-2.824-1.71V9.96a.586.586 0 00-.585-.586h-1.172V7.617a.586.586 0 00-.586-.586h-1.846V5.273a.586.586 0 00-.586-.586h-2.842V.586A.586.586 0 0017.101 0h-2.343a.586.586 0 00-.586.586v4.101H11.33a.586.586 0 00-.586.586v1.758H8.898a.586.586 0 00-.586.586v1.758H7.14a.586.586 0 00-.586.586v4.995l-2.823 1.71a.586.586 0 00-.258.669L6.52 27.58c-.052-.175-.99-.29-1.156-.312-1.706-.22-3.003.634-4.232 1.703a.586.586 0 00-.058.826c.203.234.58.273.827.058 1.266-1.1 2.693-1.94 4.368-1.102 1.516.758 3.085 1.083 4.663.252 1.273-.67 2.501-1.248 3.922-.572l1.46.696a4.434 4.434 0 003.914-.038c.763-.381 1.538-.889 2.41-.949.854-.058 1.679.26 2.43.635a4.483 4.483 0 003.216.291c.98-.28 1.694-.904 2.445-1.557a.586.586 0 00.058-.826zm-6.653-16.14v3.7l-6.106-3.7h6.106zm-8.79-9.374h1.172v3.515h-1.171V1.172zm-3.427 4.687h8.027v1.172h-8.027V5.86zm-4.19 4.688h6.106l-6.106 3.7v-3.7zm7.618 16.823c0-.104-.836-.296-.945-.32a4.524 4.524 0 00-3.039.406c-.67.353-1.318.765-2.085.864H9.27a3.357 3.357 0 01-1.341-.105l-3.205-10.78L15.344 11v16.37zM9.483 9.375V8.203h12.89v1.172H9.485zM24.25 27.132c.006-.181-1.643-.18-1.753-.168-1.018.108-1.897.631-2.795 1.08-1.06.53-2.151.378-3.188-.116V11.001l10.618 6.434-2.882 9.697z" fill="#0F1C29"></path>
  </symbol>
  <symbol fill="none" xmlns="http://www.w3.org/2000/svg" viewBox="0 0 32 29" id="smartphone-icon-4">
    <path d="M31.93 19.042c0-.725-.11-1.442-.325-2.13a.454.454 0 10-.866.272c.187.6.282 1.225.282 1.858a6.24 6.24 0 01-4.869 6.072v-1.73a.898.898 0 00-.896-.898h-.857a.898.898 0 00-.897.897v1.743a6.23 6.23 0 01-4.922-6.084 6.198 6.198 0 013.796-5.728h4.85a6.216 6.216 0 012.72 2.233.454.454 0 10.751-.51 7.147 7.147 0 00-1.667-1.734 1.235 1.235 0 001.08-1.224v-.588c0-.68-.553-1.234-1.234-1.234h-5.155a.454.454 0 000 .908h5.155c.18 0 .326.146.326.326v.588c0 .18-.146.326-.326.326h-8.151a.326.326 0 01-.326-.326v-.588c0-.18.146-.326.326-.326h1.06a.454.454 0 100-.908h-1.06c-.68 0-1.234.554-1.234 1.234v.588c0 .628.47 1.146 1.078 1.223a7.1 7.1 0 00-2.897 5.74 7.1 7.1 0 00.948 3.548v4.886c0 .484.393.877.877.877h.896a.878.878 0 00.877-.877v-2.24c.68.389 1.431.669 2.232.816v1.405c0 .494.403.896.897.896h.857a.898.898 0 00.896-.896v-1.415a7.048 7.048 0 002.18-.809v2.243c0 .484.393.878.877.878h.895a.878.878 0 00.877-.878v-4.892a7.088 7.088 0 00.948-3.542zm-11.57 8.403h-.833v-3.609c.256.282.535.544.834.783v2.826zm4.883 0h-.833v-4.05h.833v4.05zm4.83 0h-.834v-2.83c.298-.24.577-.502.833-.784v3.614z" fill="#0F1C29"></path>
    <path d="M17.671 23.195h-2.727v-2.49h1.452a.454.454 0 000-.908h-1.452v-4.784h2.646a.454.454 0 100-.909h-2.646v-2.489h3.206a.454.454 0 000-.908h-3.206V8.572c0-.96.781-1.74 1.741-1.74h2.163c.96 0 1.74.78 1.74 1.74v.323a.454.454 0 00.91 0v-.323a2.654 2.654 0 00-2.09-2.589v-.781a.957.957 0 00-.955-.956h-.232V3.73A3.735 3.735 0 0014.49 0a3.734 3.734 0 00-3.277 1.948A3.734 3.734 0 007.937 0a3.735 3.735 0 00-3.73 3.73v.516h-.233a.957.957 0 00-.956.956v.781A2.653 2.653 0 00.93 8.573v8.014a.454.454 0 10.909 0v-1.574h5.645v4.784H1.838v-1.274a.454.454 0 10-.909 0V27.9a.454.454 0 10.909 0v-3.797h5.645V27.9a.454.454 0 10.908 0v-3.796h5.645V27.9a.454.454 0 10.908 0v-3.796h2.727a.454.454 0 100-.908zM11.9 5.155c.026 0 .047.02.047.047v.721H10.48v-.721c0-.027.02-.048.047-.048H11.9zM10.132 6.83h2.163c.96 0 1.74.781 1.74 1.741v2.135H8.392V8.572c0-.96.78-1.74 1.74-1.74zM8.39 11.615h5.645v2.49H8.39v-2.49zm5.645 3.398v4.784H8.39v-4.784h5.645zM18.5 5.202v.721h-1.467v-.721c0-.027.021-.048.047-.048h1.373c.026 0 .047.021.047.048zM14.49.908a2.826 2.826 0 012.822 2.823v.515h-.232a.957.957 0 00-.956.956v.781a2.656 2.656 0 00-1.634 1.108 2.656 2.656 0 00-1.635-1.108v-.781a.957.957 0 00-.955-.956h-.232V3.73A2.826 2.826 0 0114.49.908zM5.114 3.731A2.826 2.826 0 017.937.908a2.826 2.826 0 012.822 2.823v.515h-.232a.957.957 0 00-.956.956v.781a2.656 2.656 0 00-1.634 1.108 2.656 2.656 0 00-1.635-1.108v-.781a.957.957 0 00-.956-.956h-.232V3.73zm-1.14 1.423h1.372c.027 0 .048.021.048.048v.721H3.926v-.721c0-.027.022-.048.048-.048zm-.395 1.677h2.163c.96 0 1.74.781 1.74 1.741v2.135H1.839V8.572c0-.96.78-1.74 1.74-1.74zm-1.741 4.784h5.645v2.49H1.838v-2.49zm0 9.09h5.645v2.49H1.838v-2.49zm6.553 0h5.645v2.49H8.39v-2.49z" fill="#0F1C29"></path>
  </symbol>
  <symbol fill="none" xmlns="http://www.w3.org/2000/svg" viewBox="0 0 29 29" id="smartphone-icon-3">
    <path d="M28.13 14.32a2.638 2.638 0 00-2.372-1.466c-1.012 0-1.92.561-2.373 1.466l-.346.692v.56H20.32V12.4c0-2.082-5.015-3.171-9.969-3.171S.383 10.318.383 12.4v12.688c0 2.082 5.014 3.172 9.968 3.172s9.97-1.09 9.97-3.172v-2.266h2.718v.56l.346.693a2.638 2.638 0 002.373 1.466c1.01 0 1.92-.562 2.372-1.466l.346-.693v-8.37l-.346-.692zm-4.185 8.502v-7.25h3.625v7.25h-3.625zm-3.625-4.531h2.719v1.813H20.32V18.29zm5.438-4.531c.642 0 1.22.346 1.527.906H24.23c.308-.56.885-.906 1.528-.906zm-2.72 2.719v.906H20.32v-.907h2.719zm-12.687-6.344c5.532 0 9.063 1.341 9.063 2.265 0 .352-.513.762-1.448 1.138a2.736 2.736 0 00-2.63-2.044c-.721 0-1.39.28-1.895.773a2.704 2.704 0 00-2.616.036A2.729 2.729 0 008.54 11.04c-.871 0-1.67.413-2.178 1.097a2.697 2.697 0 00-.994-.19 2.736 2.736 0 00-2.492 1.64c-1.02-.388-1.586-.82-1.586-1.188 0-.924 3.53-2.265 9.062-2.265zm-3.188 4.368c-1.348-.14-2.505-.362-3.421-.625a1.82 1.82 0 011.625-1.024c.944 0 1.712.727 1.796 1.65zm.919.081a2.711 2.711 0 00-.94-1.973 1.8 1.8 0 011.397-.664c.66 0 1.266.365 1.583.93a2.702 2.702 0 00-.676 1.775 30.65 30.65 0 01-1.364-.068zm2.27.082c0-1 .812-1.813 1.812-1.813a1.81 1.81 0 011.792 1.605c-1.075.13-2.28.208-3.605.208zm4.508-.333a2.707 2.707 0 00-.696-1.502c.324-.276.734-.43 1.172-.43.861 0 1.593.617 1.77 1.432-.634.19-1.384.363-2.246.5zm-13.571-.528c1.665 1.165 5.38 1.767 9.062 1.767 3.683 0 7.398-.602 9.063-1.767v.408c0 .924-3.53 2.266-9.063 2.266-5.532 0-9.062-1.342-9.062-2.266v-.408zm9.062 13.549c-5.532 0-9.062-1.342-9.062-2.266v-.408c1.665 1.165 5.38 1.767 9.062 1.767 3.683 0 7.398-.602 9.063-1.767v.408c0 .924-3.53 2.265-9.063 2.265zm0-1.813c-5.532 0-9.062-1.342-9.062-2.266v-7.657c1.665 1.164 5.38 1.767 9.062 1.767 3.683 0 7.398-.603 9.063-1.767v7.657c0 .924-3.53 2.266-9.063 2.266zm9.97-3.625v-.906h2.718v.906H20.32zm5.437 2.719c-.643 0-1.22-.347-1.527-.907h3.054c-.307.56-.885.907-1.527.907z" fill="#0F1C29"></path>
    <path d="M24.851 20.104h.907v.906h-.907v-.907zm0-3.625h.907v.906h-.907v-.907zm0 1.812h.907v.906h-.907v-.906zM4.21 9.152l.503-.754c-.011-.007-1.159-.794-1.159-1.889 0-.798.432-1.28.889-1.789.319-.356.645-.72.812-1.184.283.165.565.405.565.686v.022h.001v.022c0 1.584 1.497 2.6 1.56 2.643l.504-.754c-.011-.007-1.159-.795-1.159-1.889 0-.798.432-1.28.888-1.789.32-.356.646-.72.812-1.185.284.166.566.406.566.686v.453h.906v-.453C9.898.754 8.291.231 8.223.21l-.59-.187v.62c0 .435-.264.751-.694 1.23-.287.32-.61.69-.837 1.16a3.443 3.443 0 00-1.051-.58l-.59-.187v.62c0 .435-.264.751-.694 1.23-.498.557-1.119 1.25-1.119 2.394 0 1.584 1.498 2.6 1.561 2.643zm7.5-7.196c0-.28.283-.52.566-.686.167.464.493.829.812 1.185.457.51.888.991.888 1.789 0 1.094-1.147 1.881-1.157 1.889l.502.754c.064-.043 1.562-1.06 1.562-2.643l-.002-.022h.002c0-.28.282-.52.565-.686.166.464.493.828.812 1.185.457.509.888.99.888 1.789 0 1.094-1.147 1.881-1.157 1.888l.502.754c.064-.042 1.561-1.059 1.561-2.642 0-1.145-.62-1.838-1.119-2.394-.43-.48-.693-.796-.693-1.231v-.62l-.59.188c-.04.012-.585.191-1.044.572-.227-.478-.555-.851-.845-1.175-.43-.48-.693-.796-.693-1.231V0l-.59.187c-.068.022-1.676.545-1.676 1.77v.452h.907v-.453zM8.539 6.962h.906c0-.763.282-1.228.554-1.5.196.711.642 1.209 1.018 1.629.43.48.694.795.694 1.23h.906c0-.803-.47-1.328-.924-1.835-.457-.51-.889-.991-.889-1.79v-.628l-.596.199c-.068.023-1.67.58-1.67 2.695zM2.195 19.197h.906v.907h-.906v-.907zm0 1.813h.906v.906h-.906v-.906zm0 1.812h.906v.907h-.906v-.907zm0-5.437h.906v.906h-.906v-.906zm15.406 1.359h.907v.906H17.6v-.906zm0 3.626h.907v.905H17.6v-.906zm0-1.813h.907v.906H17.6v-.906zm0-3.625h.907v.906H17.6v-.906zm-3.171 1.359H6.272c-.75 0-1.36.61-1.36 1.36v3.624c0 .75.61 1.36 1.36 1.36h8.156c.75 0 1.36-.61 1.36-1.36V19.65c0-.75-.61-1.359-1.36-1.359zm.453 4.984c0 .25-.204.454-.454.454H6.273a.454.454 0 01-.453-.454V19.65c0-.25.204-.453.453-.453h8.156c.25 0 .454.204.454.453v3.625z" fill="#0F1C29"></path>
  </symbol>
  <symbol fill="none" xmlns="http://www.w3.org/2000/svg" viewBox="0 0 31 22" id="smartphone-icon-2">
    <path d="M13.682 12.048a3.183 3.183 0 000 4.495 3.181 3.181 0 004.495 0 3.181 3.181 0 000-4.495 3.182 3.182 0 00-4.495 0zm2.247-.05c.45 0 .898.13 1.285.391l-1.453 1.454-2.05-.147a2.291 2.291 0 012.218-1.698zm-2.28 2.574l1.87.135.134 1.87a2.288 2.288 0 01-2.004-2.005zm3.906 1.35c-.294.294-.65.49-1.026.592l-.147-2.05 1.454-1.453c.602.893.509 2.12-.281 2.91z" fill="#0F1C29"></path>
    <path d="M30.49 12.888a.44.44 0 00.44-.44v-1.135a.817.817 0 00-.817-.816h-1.31a.817.817 0 00-.816.816v.17h-2.901a.439.439 0 00-.763 0h-2.247A6.803 6.803 0 0018.74 8.15V5.203a1.01 1.01 0 00-1.008-1.009h-.45V2.521h1.995c.52 0 .944-.423.944-.943V.943A.944.944 0 0019.278 0h-3.964a.44.44 0 100 .879h3.964c.036 0 .065.029.065.064v.635a.064.064 0 01-.065.064H12.58a.064.064 0 01-.064-.064V.943c0-.035.029-.064.064-.064h.977a.44.44 0 100-.879h-.977a.944.944 0 00-.943.943v.635c0 .52.423.943.943.943h1.997v1.673h-.451a1.01 1.01 0 00-1.009 1.009v2.946a6.802 6.802 0 00-3.334 3.334H7.536a.439.439 0 00-.763 0H3.872v-.17a.817.817 0 00-.817-.816h-1.31a.817.817 0 00-.816.816v5.965c0 .45.367.816.817.816h1.309c.45 0 .817-.366.817-.816v-.17h.543a.44.44 0 100-.88h-.543v-3.866h2.843v3.867h-.543a.44.44 0 100 .878h.601a.439.439 0 00.763 0h2.247a6.769 6.769 0 006.146 3.948 6.769 6.769 0 006.147-3.948h2.247a.44.44 0 00.763 0h2.901v.17c0 .451.367.817.817.817h1.309c.45 0 .816-.366.816-.816v-3.072a.44.44 0 10-.878 0v3.01h-1.185v-5.84h1.184v1.073c0 .242.197.44.44.44zM2.993 17.215H1.808v-5.84h1.185v5.84zM15.456 2.521h.947v1.673h-.947V2.521zm-1.46 2.682a.13.13 0 01.13-.13h3.607a.13.13 0 01.13.13v2.615a6.738 6.738 0 00-3.867 0V5.203zM7.594 16.229v-3.867h1.858a6.738 6.738 0 000 3.867H7.594zm8.335 3.947a5.887 5.887 0 01-5.88-5.88 5.887 5.887 0 015.88-5.881 5.887 5.887 0 015.881 5.88 5.887 5.887 0 01-5.88 5.881zm6.478-7.814h1.858v3.867h-1.858a6.738 6.738 0 000-3.867zm2.737 3.867v-3.867h2.843v3.867h-2.843z" fill="#0F1C29"></path>
    <path d="M15.93 10.158a.44.44 0 00.439-.44v-.16a.44.44 0 00-.879 0v.16c0 .244.197.44.44.44zm4.736 3.698h-.16a.44.44 0 100 .88h.16a.44.44 0 100-.88zm-4.736 4.577a.44.44 0 00-.44.44v.16a.44.44 0 10.879 0v-.16a.44.44 0 00-.44-.44zm-4.577-4.577h-.16a.44.44 0 100 .88h.16a.44.44 0 100-.88z" fill="#0F1C29"></path>
  </symbol>
  <symbol fill="none" xmlns="http://www.w3.org/2000/svg" viewBox="0 0 32 31" id="smartphone-icon-1">
    <path d="M28.98 4.637a.454.454 0 10-.59-.69l-.98.836a.454.454 0 00.59.69l.98-.836zM27 14.026v.56a.454.454 0 00.908 0v-.56a.454.454 0 10-.909 0zm-22.959 9.38a1.212 1.212 0 101.716 1.717 1.212 1.212 0 00-1.716-1.717zm1.073 1.074a.305.305 0 11-.43-.43.305.305 0 01.43.43zm4.202-2.918a1.212 1.212 0 10-1.714-1.715 1.212 1.212 0 001.714 1.715zM8.242 20.49a.305.305 0 11.432.431.305.305 0 01-.432-.431zm-2.079 1.39a.454.454 0 000 .642l.478.479a.453.453 0 00.642 0 .454.454 0 000-.643l-.478-.478a.454.454 0 00-.642 0zm9.603-14.82h2.115a.454.454 0 100-.909h-2.115a.454.454 0 000 .909z" fill="#0F1C29"></path>
    <path d="M31.475 30.092h-7.548v-1.818a.855.855 0 00-.854-.853h-.864v-1.964a.709.709 0 00-.708-.707h-.57L18.822 8.457h.795a1.04 1.04 0 001.038-1.038V5.66l4.851.52v13.466a.454.454 0 00.682.393c1.343-.777 2.422-2.003 3.208-3.643a.454.454 0 10-.819-.393c-.564 1.178-1.29 2.114-2.163 2.79V4.21l2.926-2.496c.894 5.183.852 9.434-.126 12.639a.454.454 0 00.869.265c1.036-3.397 1.072-7.879.106-13.322A.76.76 0 0028.95.851l-3.118 2.66L12.607.933a.454.454 0 10-.173.891l13.072 2.55v.893L4.133 2.97l.108-.196a3.589 3.589 0 013.844-1.8l2.533.495a.454.454 0 10.174-.891L8.258.085a4.494 4.494 0 00-4.813 2.253l-.436.793a.454.454 0 00.35.67l1.453.157v.849c0 .555.452 1.007 1.007 1.007h.48V19.27l-1.872 1.873a.454.454 0 00.642.642l2.394-2.394a1.632 1.632 0 112.31 2.31l-3.79 3.79a1.635 1.635 0 01-2.31 0 1.635 1.635 0 010-2.31l.112-.112a.454.454 0 00-.642-.642l-.111.111a2.544 2.544 0 00.278 3.835l-1.21 3.72h-.715a.454.454 0 100 .908h30.09a.454.454 0 100-.908zM21.3 27.42h-8.952v-1.763H21.3v1.763zm-1.63-5.34l-4.654-1.806 4.187-1.802.466 3.607zm-.645-4.978l-3.603-1.74 3.153-1.74.45 3.48zm-1.097-8.481l.446 3.445-2.524-1.636 2.078-1.81zM16.7 8.485l-1.085.945.122-.945h.963zm-1.316 2.727l2.612 1.694-3.049 1.681.437-3.375zm-.626 4.84l3.663 1.768-4.121 1.774.458-3.542zm-.628 4.854l4.931 1.913-3.544 1.925-.01.006h-1.875l.498-3.844zm3.28 3.844l2.433-1.322.171 1.322H17.41zm2.336-17.33a.13.13 0 01-.13.13H14.03a.13.13 0 01-.13-.13V4.934l5.846.627v1.86zM5.72 4.807v-.752l2.068.222v.53a.1.1 0 01-.1.099H5.82a.1.1 0 01-.099-.1zm4.695 17.535a2.542 2.542 0 00-3.207-3.912V5.814h.48c.556 0 1.008-.452 1.008-1.007v-.432l4.297.461V7.42a1.04 1.04 0 001.038 1.038h.795L12.718 24.75h-.57a.709.709 0 00-.708.707v1.964h-.865a.855.855 0 00-.853.853v1.818H8.115L6.777 25.98l3.638-3.638zm-7.36 7.75l1.078-3.314a2.554 2.554 0 001.885-.198l1.142 3.512H3.055zm7.575 0v-1.763h12.389v1.763h-12.39z" fill="#0F1C29"></path>
  </symbol>
  <symbol fill="none" xmlns="http://www.w3.org/2000/svg" viewBox="0 0 31 30" id="ar-icon-7">
    <path d="M16.171 14.26a.586.586 0 10-.829.828.586.586 0 00.83-.828zm7.458-7.459a2.928 2.928 0 00-4.144 0 2.934 2.934 0 000 4.143 2.934 2.934 0 004.144 0 2.928 2.928 0 000-4.143zm-.829 3.315a1.76 1.76 0 01-2.486 0 1.757 1.757 0 112.486 0z" fill="#0F1C29"></path>
    <path d="M30.258.172A.584.584 0 0029.823 0c-.133.005-3.287.132-7.037 1.457-3.005 1.061-5.51 2.58-7.444 4.515-.434.433-.856.893-1.26 1.37-1.912-1.125-3.445-.772-4.414-.254-2.231 1.195-3.613 4.437-3.613 6.756a.586.586 0 001 .414c1.178-1.176 2.629-1.103 3.103-1.04l.205.205c-.403.96-.729 1.916-.967 2.846-.086.336-.057.692.07 1.018a5.547 5.547 0 00-1.582 1.115c-1.508 1.508-1.814 5.184-1.827 5.34a.586.586 0 00.63.63c.156-.012 3.832-.318 5.34-1.826a5.551 5.551 0 001.116-1.582c.345.135.7.152 1.018.07a20.62 20.62 0 002.846-.968l.205.206c.062.474.136 1.925-1.04 3.102a.586.586 0 00.413 1c2.32 0 5.562-1.381 6.756-3.612.519-.97.872-2.502-.254-4.415.477-.404.937-.826 1.37-1.26 1.935-1.934 3.454-4.439 4.515-7.443C30.298 3.894 30.424.739 30.43.607a.586.586 0 00-.171-.435zM7.365 12.584c.364-1.762 1.422-3.695 2.856-4.462.959-.513 2.006-.463 3.12.147a23.694 23.694 0 00-2.461 4.013c-.01-.006-.115-.138-.31-.182-.081-.019-1.632-.352-3.205.484zm3.834 9.133c-.806.805-2.696 1.23-3.89 1.404.173-1.195.598-3.085 1.404-3.89a4.224 4.224 0 011.5-.986l1.972 1.972a4.22 4.22 0 01-.986 1.5zm2.671-1.818a.55.55 0 01-.512-.166 6376.06 6376.06 0 00-1.147-1.148l-1.514-1.513c-.146-.147-.21-.343-.166-.512a19.16 19.16 0 01.731-2.238l4.846 4.845c-.757.299-1.507.544-2.238.732zm8.438.31c-.768 1.434-2.7 2.491-4.462 2.855.562-1.057.685-2.402.48-3.218-.047-.19-.171-.285-.178-.296a23.703 23.703 0 004.013-2.462c.61 1.114.66 2.162.147 3.12zm1.321-5.95a21.252 21.252 0 01-1.69 1.516 22.51 22.51 0 01-4.67 2.896l-5.51-5.51a22.512 22.512 0 012.896-4.67c.478-.594.988-1.163 1.516-1.69 1.736-1.736 3.976-3.118 6.66-4.112l4.91 4.91c-.994 2.684-2.376 4.924-4.112 6.66zm4.534-7.896l-4.096-4.096a26.343 26.343 0 015.142-1.046c-.094.97-.353 2.91-1.046 5.142z" fill="#0F1C29"></path>
    <path d="M14.514 24.203a.586.586 0 00-.829 0l-1.657 1.657a.586.586 0 00.829.83l1.657-1.659a.586.586 0 000-.828zm-8.286-8.287a.586.586 0 00-.83 0l-1.657 1.657a.586.586 0 00.829.828l1.657-1.657a.586.586 0 000-.828zm4.142 9.116a.586.586 0 00-.828 0L5.573 29a.586.586 0 10.829.83l3.969-3.97a.586.586 0 000-.828zm-4.687 0a.586.586 0 00-.829 0L.885 29a.586.586 0 10.829.83l3.969-3.97a.586.586 0 000-.828zm-.285-4.974a.586.586 0 00-.828 0L.6 24.028a.586.586 0 00.829.828l3.968-3.969a.586.586 0 000-.829zm13.259-8.285a.586.586 0 00-.829 0l-.828.829a.586.586 0 00.829.828l.828-.828a.586.586 0 000-.829z" fill="#0F1C29"></path>
  </symbol>
  <symbol fill="none" xmlns="http://www.w3.org/2000/svg" viewBox="0 0 31 29" id="ar-icon-6">
    <path d="M17.367 10.17H17a2.882 2.882 0 00-.082-.201l.26-.26a.97.97 0 000-1.37l-1.37-1.37a.97.97 0 00-1.37 0l-.26.26a2.897 2.897 0 00-.201-.083V6.78a.973.973 0 00-.969-.968h-1.937a.97.97 0 00-.968.968v.366a2.888 2.888 0 00-.2.083l-.26-.26a.97.97 0 00-1.37 0l-1.37 1.37a.97.97 0 000 1.37l.265.26a2.57 2.57 0 00-.083.2H6.72a.97.97 0 00-.969.97v1.936c0 .532.438.969.969.969h.366c.024.065.053.136.083.2l-.26.26a.97.97 0 000 1.37l1.37 1.37a.97.97 0 001.37 0l.26-.26c.065.03.136.06.2.083v.367c0 .531.438.968.97.968h1.93a.97.97 0 00.969-.968v-.367c.065-.023.136-.053.2-.082l.26.26a.97.97 0 001.37 0l1.37-1.37a.97.97 0 000-1.37l-.26-.26c.03-.065.06-.136.083-.201h.367a.97.97 0 00.968-.969v-1.937a.973.973 0 00-.968-.968zm-.006 2.9h-1.063l-.107.336c-.07.236-.17.473-.295.703l-.165.313.75.75-1.37 1.37-.744-.744-.313.165a4.703 4.703 0 01-.703.295l-.337.107v1.063h-1.937v-1.063l-.336-.107a3.788 3.788 0 01-.703-.295l-.313-.165-.756.756-1.37-1.37.75-.75-.165-.313a4.153 4.153 0 01-.296-.703l-.106-.337H6.719v-1.937h1.063l.106-.336a3.77 3.77 0 01.296-.703l.165-.313-.75-.75 1.364-1.388.75.756.313-.165c.236-.124.473-.219.703-.296l.336-.106V6.78h1.943v1.063l.337.106c.236.071.472.172.703.296l.313.165.75-.75 1.37 1.37-.75.75.165.313c.124.236.225.473.295.703l.107.336h1.063v1.937z" fill="#0F1C29"></path>
    <path d="M12.04 8.71a3.39 3.39 0 100 6.78 3.39 3.39 0 000-6.78zm0 5.818a2.425 2.425 0 01-2.421-2.421 2.428 2.428 0 012.42-2.422 2.425 2.425 0 012.422 2.422 2.425 2.425 0 01-2.421 2.42zM20.75 2.42a1.938 1.938 0 00-1.937 1.938c0 1.069.874 1.937 1.937 1.937a1.938 1.938 0 000-3.874zm0 2.906a.97.97 0 11.001-1.938.97.97 0 010 1.938z" fill="#0F1C29"></path>
    <path d="M25.109 3.874v-.16a.81.81 0 00-.81-.808h-.047l.036-.03a.799.799 0 00.236-.573.799.799 0 00-.236-.573l-.91-.91a.82.82 0 00-1.14 0l-.029.03V.81a.81.81 0 00-.81-.81h-1.287a.81.81 0 00-.808.81v.04l-.03-.03a.809.809 0 00-1.14 0l-.915.91a.8.8 0 00-.236.573.8.8 0 00.236.573l.03.03H17.2a.81.81 0 00-.809.809v.159H.429v20.32h9.195V27.1H5.75v.969h19.347V27.1h-3.868v-2.905h9.2V3.874h-5.32zm-7.743 0h.662l.106-.337c.047-.147.107-.295.183-.443l.166-.313-.467-.472.685-.685.473.472.313-.165c.147-.077.295-.142.442-.183l.337-.106V.974h.969v.662l.336.106c.148.047.295.106.443.183l.313.166.472-.473.686.685-.473.473.165.313c.077.147.142.295.183.442l.107.337h.667v.969h-.667l-.107.336a2.812 2.812 0 01-.183.443l-.165.313.473.473-.686.685-.472-.473-.313.166a2.343 2.343 0 01-.443.183l-.336.106v.667h-.969V7.07l-.337-.106a2.814 2.814 0 01-.442-.183l-.313-.166-.473.473-.685-.685.473-.473-.166-.313a2.345 2.345 0 01-.183-.443l-.106-.336h-.668v-.963zM20.272 27.1h-9.679v-2.905h9.679V27.1zm9.189-3.868H1.398v-2.905H29.46v2.905zm0-3.868H1.398V4.843h15v.159c0 .443.36.809.809.809h.041l-.03.03a.8.8 0 00-.235.572.8.8 0 00.236.573l.915.916a.832.832 0 001.14 0l.03-.03v.041c0 .443.36.81.809.81H21.4a.81.81 0 00.809-.81v-.041l.03.03a.82.82 0 001.14 0l.909-.91a.809.809 0 000-1.146l-.03-.03h.041a.81.81 0 00.81-.808v-.16h4.352v14.516z" fill="#0F1C29"></path>
    <path d="M15.914 21.295h-.969v.968h.969v-.968zm1.936 0h-.968v.968h.969v-.968zm-3.873 0h-.969v.968h.969v-.968zm-7.737-15H2.85v.968h3.39v-.968zM4.788 8.232H2.85v.969h1.937v-.969zm22.742 8.711h-3.39v.969h3.39v-.969zm0-1.937h-1.937v.968h1.937v-.968z" fill="#0F1C29"></path>
  </symbol>
  <symbol fill="none" xmlns="http://www.w3.org/2000/svg" viewBox="0 0 30 33" id="ar-icon-5">
    <path d="M3.086 2.125h1.062v1.063H3.086V2.125zm2.124 0h1.063v1.063H5.211V2.125z" fill="#0F1C29"></path>
    <path d="M28.586 25.5v-2.125c0-.392-.215-.73-.532-.915v-1.21c0-.392-.215-.73-.53-.915V5.578A5.584 5.584 0 0021.944 0a5.584 5.584 0 00-5.578 5.578v19.125a5.053 5.053 0 01-5.047 5.047 5.053 5.053 0 01-5.047-5.047V15.79c.316-.184.531-.523.531-.915v-3.188c.88 0 1.594-.715 1.594-1.593V7.438a.531.531 0 00.531-.532V4.781a.531.531 0 00-.53-.531V.531A.531.531 0 007.866 0H1.492A.531.531 0 00.96.531V4.25a.531.531 0 00-.532.531v2.125c0 .293.238.532.532.532v2.656c0 .878.715 1.594 1.593 1.594v3.187c0 .392.216.73.532.915v8.913c0 4.54 3.693 8.235 8.234 8.235 4.54 0 8.234-3.694 8.234-8.235V5.578a2.394 2.394 0 012.391-2.39 2.394 2.394 0 012.39 2.39v14.757a1.059 1.059 0 00-.53.915v1.21a1.059 1.059 0 00-.532.915V25.5a.531.531 0 00-.531.531v2.125c0 .294.238.532.531.532v3.718c0 .294.238.532.531.532h4.25a.531.531 0 00.532-.532v-3.718a.531.531 0 00.53-.532v-2.125a.531.531 0 00-.53-.531zm-1.594-4.25v1.063h-2.125V21.25h2.125zM3.617 14.875v-1.063h2.125v1.063H3.617zm-2.125-8.5V5.312h6.375v1.063H1.492zm.531-5.313h5.313V4.25H2.023V1.062zm0 9.032V7.438h5.313v2.656a.532.532 0 01-.532.531h-4.25a.532.532 0 01-.53-.531zm3.719 1.594v1.062H3.617v-1.063h2.125zm16.203-9.563a3.457 3.457 0 00-3.453 3.453v19.125a7.18 7.18 0 01-7.172 7.172 7.18 7.18 0 01-7.172-7.172v-8.765h1.063v8.765c0 3.369 2.74 6.11 6.11 6.11a6.116 6.116 0 006.108-6.11V5.578a4.52 4.52 0 014.516-4.516 4.52 4.52 0 014.516 4.516v14.61h-1.063V5.578a3.457 3.457 0 00-3.453-3.453zm2.39 21.25h3.188V25.5h-3.187v-2.125zm3.72 4.25h-4.25v-1.063h4.25v1.063zm-.532 4.25h-3.187v-3.188h3.187v3.188z" fill="#0F1C29"></path>
    <path d="M25.398 29.75h1.063v1.063h-1.063V29.75zM3.086 7.969h1.062v2.125H3.086V7.969zm2.124 0h1.063v2.125H5.211V7.969z" fill="#0F1C29"></path>
  </symbol>
  <symbol fill="none" xmlns="http://www.w3.org/2000/svg" viewBox="0 0 32 32" id="ar-icon-4">
    <path d="M31.035 10.44a.394.394 0 100-.789H26.9V7.438a2.56 2.56 0 00-2.582-2.582h-2.214V.72a.394.394 0 10-.788 0v4.136h-4.992V.72a.394.394 0 10-.789 0v4.136h-4.992V.72a.394.394 0 00-.788 0v4.136H7.54a2.562 2.562 0 00-2.58 2.582v2.213H.824a.394.394 0 100 .789h4.135v4.992H.824a.394.394 0 000 .788h4.135v4.993H.824a.394.394 0 000 .788h4.135v2.213a2.562 2.562 0 002.582 2.582h2.214v4.136a.394.394 0 10.788 0v-4.136h4.992v4.136a.394.394 0 10.789 0v-4.136h4.992v4.136a.394.394 0 10.788 0v-4.136h2.214a2.563 2.563 0 002.582-2.582v-2.213h4.135a.394.394 0 100-.788H26.9V16.22h4.135a.394.394 0 100-.788H26.9V10.44h4.135zm-6.717 15.568h-2.554c-.015 0-.03-.003-.047-.003-.015 0-.03.003-.046.003h-5.695c-.015 0-.03-.003-.047-.003-.015 0-.03.003-.046.003h-5.695c-.015 0-.03-.003-.046-.003s-.032.003-.047.003H7.541a1.773 1.773 0 01-1.794-1.794V21.66c0-.015.003-.03.003-.046 0-.015-.003-.03-.003-.046v-5.695c0-.015.003-.03.003-.046 0-.015-.003-.03-.003-.046v-5.696c0-.015.003-.03.003-.046l-.003-.045V7.438a1.774 1.774 0 011.794-1.794h2.554c.015 0 .03.003.046.003s.032-.003.047-.003h5.695c.016 0 .031.003.047.003l.046-.003h5.696c.015 0 .03.003.046.003s.031-.003.047-.003h2.553a1.774 1.774 0 011.793 1.794v2.554c0 .015-.003.03-.003.046l.003.046v5.695c0 .015-.003.03-.003.046s.003.032.003.046v5.696c0 .015-.003.03-.003.046 0 .015.003.03.003.046v2.554a1.775 1.775 0 01-1.793 1.795z" fill="#0F1C29"></path>
    <path d="M24.404 7.812a.394.394 0 00-.395-.394H7.915a.394.394 0 00-.394.394v16.094a.394.394 0 00.394.394H24.01a.394.394 0 00.395-.394V7.812zm-.854 15.634H8.31V8.206h15.24v15.24z" fill="#0F1C29"></path>
    <path d="M15.93 14.507a3.359 3.359 0 100 6.718 3.359 3.359 0 000-6.718zm0 5.929a2.57 2.57 0 110-5.14 2.57 2.57 0 010 5.14z" fill="#0F1C29"></path>
    <path d="M15.93 16.943a.897.897 0 00-.395 1.704v.398a.394.394 0 00.788 0v-.398a.897.897 0 00-.394-1.704zm0 .789a.11.11 0 01.1.067.11.11 0 11-.1-.067z" fill="#0F1C29"></path>
    <path d="M15.93 22.705a4.83 4.83 0 004.823-4.84c0-1.024-.291-1.974-.882-2.757v-2.186c0-2.191-1.75-3.974-3.942-3.974-2.19 0-3.941 1.783-3.941 3.974v2.186c-.591.783-.882 1.733-.882 2.758a4.831 4.831 0 004.823 4.839zm0-.788a4.051 4.051 0 110-8.103 4.051 4.051 0 010 8.103zm2.167-8.383a4.88 4.88 0 00-4.336 0v-.612a2.168 2.168 0 114.336 0v.612zM15.93 9.737a3.162 3.162 0 013.153 3.185v1.305a7.314 7.314 0 00-.197-.2v-1.105a2.957 2.957 0 00-5.912 0v1.105a7.51 7.51 0 00-.197.2v-1.305a3.162 3.162 0 013.153-3.185z" fill="#0F1C29"></path>
  </symbol>
  <symbol fill="none" xmlns="http://www.w3.org/2000/svg" viewBox="0 0 24 28" id="ar-icon-3">
    <path d="M3.71 10.188c-2.05 0-3.71 1.66-3.71 3.71s1.66 3.71 3.71 3.71a3.709 3.709 0 003.711-3.71 3.726 3.726 0 00-3.71-3.71zm0 6.119a2.407 2.407 0 01-2.408-2.409 2.407 2.407 0 012.409-2.409 2.407 2.407 0 012.408 2.409 2.42 2.42 0 01-2.408 2.409zm18.683-5.077H9.146a.653.653 0 00-.65.65c0 .358.292.651.65.651h13.247a.653.653 0 00.651-.65.653.653 0 00-.65-.652zm-6.113 4.035H9.147a.653.653 0 00-.65.65c0 .359.286.652.65.652h7.135a.653.653 0 00.65-.651.653.653 0 00-.65-.651zM3.71 0C1.66 0 0 1.66 0 3.71a3.709 3.709 0 003.71 3.711 3.709 3.709 0 003.711-3.71A3.717 3.717 0 003.711 0zm0 6.113a2.407 2.407 0 01-2.408-2.409A2.403 2.403 0 013.71 1.295a2.407 2.407 0 012.408 2.409A2.411 2.411 0 013.71 6.113zm18.683-5.104H9.146a.653.653 0 00-.65.65c0 .359.292.652.65.652h13.247a.653.653 0 00.651-.651.653.653 0 00-.65-.651zM16.28 5.11H9.147a.653.653 0 00-.65.651c0 .358.286.651.65.651h7.135a.653.653 0 00.65-.65.653.653 0 00-.65-.652zM3.71 20.382c-2.05 0-3.71 1.66-3.71 3.71s1.66 3.71 3.71 3.71a3.709 3.709 0 003.711-3.71 3.717 3.717 0 00-3.71-3.71zm0 6.112a2.407 2.407 0 01-2.408-2.408 2.407 2.407 0 012.409-2.409 2.407 2.407 0 012.408 2.409 2.411 2.411 0 01-2.408 2.408zm18.683-5.11H9.146a.653.653 0 00-.65.65c0 .359.292.652.65.652h13.247a.653.653 0 00.651-.651.653.653 0 00-.65-.651zm-6.113 4.101H9.147a.653.653 0 00-.65.651c0 .358.292.651.65.651h7.135a.653.653 0 00.65-.65.653.653 0 00-.65-.652z" fill="#0F1C29"></path>
  </symbol>
  <symbol fill="none" xmlns="http://www.w3.org/2000/svg" viewBox="0 0 31 26" id="ar-icon-2">
    <path d="M6.338 11.818a2.364 2.364 0 100-4.727 2.364 2.364 0 000 4.727z" fill="#0F1C29"></path>
    <path d="M28.911 3.545H16.384c-.978 0-1.773.796-1.773 1.773v1.773h-2.857a5.91 5.91 0 00-.688-1.178v-4.14C11.066.795 10.27 0 9.293 0H3.384c-.977 0-1.773.795-1.773 1.773v4.14A5.878 5.878 0 00.43 9.455c0 1.327.44 2.553 1.182 3.541v11.231c0 .978.796 1.773 1.773 1.773h5.91c.977 0 1.772-.795 1.772-1.773v-11.23a5.91 5.91 0 00.688-1.179h2.857v1.773c0 .977.795 1.773 1.773 1.773h12.527c.978 0 1.773-.796 1.773-1.773V5.318c0-.977-.795-1.773-1.773-1.773zM3.384 1.182h5.91c.325 0 .59.265.59.59V4.73a5.878 5.878 0 00-3.545-1.185c-1.33 0-2.558.442-3.546 1.185V1.773c0-.326.265-.591.591-.591zm2.955 3.545a4.733 4.733 0 014.727 4.728 4.733 4.733 0 01-4.727 4.727A4.733 4.733 0 011.61 9.455a4.733 4.733 0 014.73-4.728zm2.954 20.091H3.384a.592.592 0 01-.59-.59v-10.05a5.879 5.879 0 003.545 1.186 5.88 5.88 0 003.545-1.185v10.048a.591.591 0 01-.59.591zM12.13 8.273h4.846v2.363H12.13a5.918 5.918 0 000-2.363zm17.373 5.318a.59.59 0 01-.59.59h-12.53a.592.592 0 01-.59-.59v-1.773h1.772a.59.59 0 00.59-.59V7.681a.59.59 0 00-.59-.591h-1.773V5.318a.59.59 0 01.591-.59H28.91a.59.59 0 01.591.59v8.273z" fill="#0F1C29"></path>
    <path d="M26.548 7.09h-2.364a.59.59 0 000 1.183h2.364a.59.59 0 000-1.182z" fill="#0F1C29"></path>
  </symbol>
  <symbol fill="none" xmlns="http://www.w3.org/2000/svg" viewBox="0 0 31 31" id="ar-icon-1">
    <path d="M29.927 0H26.91a.503.503 0 000 1.005h2.513v2.513a.503.503 0 001.006 0V.503A.502.502 0 0029.927 0zM.776 4.02a.503.503 0 00.502-.502V1.005h2.513a.503.503 0 000-1.005H.776a.503.503 0 00-.503.503v3.015a.503.503 0 00.503.503zm29.151 22.116a.503.503 0 00-.503.502v2.513h-2.513a.502.502 0 100 1.006h3.016a.503.503 0 00.503-.503v-3.016a.502.502 0 00-.503-.502zM.776 30.157H3.79a.503.503 0 000-1.006H1.278v-2.513a.502.502 0 10-1.005 0v3.016a.503.503 0 00.503.503z" fill="#0F1C29"></path>
    <path d="M2.284 2.513v9.047a.503.503 0 00.502.503h9.047a.502.502 0 00.503-.503V2.513a.503.503 0 00-.503-.502H2.786a.503.503 0 00-.502.502zm1.005.503h8.042v8.042H3.289V3.016z" fill="#0F1C29"></path>
    <path d="M9.823 4.02H4.797a.503.503 0 00-.503.503V9.55a.503.503 0 00.503.503h5.026a.503.503 0 00.502-.503V4.523a.503.503 0 00-.502-.502zM9.32 9.048H5.3V5.026h4.02v4.02zm.503 11.057H4.797a.502.502 0 00-.503.502v5.026a.503.503 0 00.503.503h5.026a.503.503 0 00.502-.503v-5.026a.503.503 0 00-.502-.502zM9.32 25.13H5.3v-4.02h4.02v4.02zM25.906 4.02H20.88a.502.502 0 00-.503.503V9.55a.503.503 0 00.503.503h5.026a.503.503 0 00.503-.503V4.523a.503.503 0 00-.503-.502zm-.502 5.027h-4.021V5.026h4.02v4.02z" fill="#0F1C29"></path>
    <path d="M18.87 12.031h9.046a.502.502 0 00.503-.502V2.513a.502.502 0 00-.503-.502H18.87a.502.502 0 00-.502.502v9.016a.503.503 0 00.502.502zm.502-9.015h8.042v8.01h-8.042v-8.01zM2.284 27.643a.503.503 0 00.502.503h9.047a.502.502 0 00.503-.503v-9.047a.503.503 0 00-.503-.502H2.786a.502.502 0 00-.502.502v9.047zM3.289 19.1h8.042v8.042H3.289V19.1zM13.843 6.032a.503.503 0 00.503-.503V3.016h.503a.503.503 0 100-1.005h-1.006a.503.503 0 00-.502.502V5.53a.503.503 0 00.502.503zm3.016-3.016a.503.503 0 100-1.005.503.503 0 000 1.005zM15.854 6.03h1.005a.503.503 0 00.503-.502V4.523a.502.502 0 10-1.005 0v.503h-.503a.503.503 0 000 1.005zm1.006 1.51h-1.006a.503.503 0 00-.503.502v2.01a.503.503 0 001.005 0V8.544h.503a.503.503 0 100-1.005z" fill="#0F1C29"></path>
    <path d="M13.843 12.062h3.016a.503.503 0 000-1.005h-2.513V7.539a.502.502 0 10-1.005 0v4.02a.503.503 0 00.502.503zm4.021 12.063a.503.503 0 00-.502.503v2.513h-1.508a.503.503 0 000 1.005h2.01a.502.502 0 00.503-.503v-3.015a.502.502 0 00-.503-.503zm-4.021 4.021a.503.503 0 100-1.005.503.503 0 000 1.005zm0-2.011a.502.502 0 00.503-.502v-.503h1.508a.502.502 0 100-1.005h-2.01a.503.503 0 00-.503.503v1.005a.503.503 0 00.502.502zm0-7.036a.502.502 0 00.503-.503v-2.513h1.005a.502.502 0 100-1.005h-1.508a.503.503 0 00-.502.503v3.015a.503.503 0 00.502.503z" fill="#0F1C29"></path>
    <path d="M13.843 14.073h3.016v2.513a.502.502 0 001.005 0V13.57a.502.502 0 00-.502-.503h-3.519a.502.502 0 100 1.006zM2.284 16.586a.503.503 0 00.502.503h3.016a.502.502 0 100-1.006H3.289v-.502a.503.503 0 00-1.005 0v1.005zm2.513-1.508a.503.503 0 00.502-.503V13.57a.503.503 0 00-.502-.503h-2.01a.502.502 0 100 1.006h1.507v.502a.503.503 0 00.503.503zm2.01-2.011a.502.502 0 00-.503.503v1.005a.503.503 0 00.503.503h3.016a.503.503 0 000-1.005H7.31v-.503a.503.503 0 00-.503-.503z" fill="#0F1C29"></path>
    <path d="M12.336 13.57a.502.502 0 10-1.006 0v2.513H7.812a.503.503 0 000 1.005h4.021a.502.502 0 00.503-.502V13.57zm16.083 0a.502.502 0 00-.503-.503h-3.015a.502.502 0 100 1.006h2.513v.502a.503.503 0 001.005 0V13.57zm-9.047 5.529a.503.503 0 100-1.005.503.503 0 000 1.005zm7.037-2.513V15.58a.502.502 0 10-1.006 0v.502h-2.01a.503.503 0 000 1.006h2.513a.502.502 0 00.503-.503zm-.503 5.528h-2.01a.502.502 0 100 1.005h1.508v.503a.502.502 0 101.005 0v-1.005a.503.503 0 00-.503-.503zm0 4.021a.503.503 0 100-1.005.503.503 0 000 1.005zm-4.021-3.015a.503.503 0 100-1.006.503.503 0 000 1.005zm2.011 2.01h-1.508v-.502a.503.503 0 00-1.005 0v1.005a.502.502 0 00.502.502h2.01a.502.502 0 100-1.005z" fill="#0F1C29"></path>
    <path d="M21.383 15.078a.503.503 0 00-.503.503v3.015a.502.502 0 00.503.503h2.45a.503.503 0 000-1.005h-1.948V15.58a.503.503 0 00-.503-.503z" fill="#0F1C29"></path>
    <path d="M22.89 13.067h-3.518a.502.502 0 00-.502.503v3.016a.503.503 0 001.005 0v-2.513h3.015a.503.503 0 000-1.006zM13.843 23.12h4.021a.502.502 0 00.503-.503v-2.01a.503.503 0 00-.503-.502h-4.02a.502.502 0 00-.503.502v2.01a.503.503 0 00.502.503zm.503-2.01h3.016v1.005h-3.016V21.11zm5.529 7.036h8.041a.503.503 0 00.503-.502v-7.037a.502.502 0 00-.503-.502h-8.041a.502.502 0 00-.503.502v7.037a.502.502 0 00.503.502zm.502-7.036h7.037v6.031h-7.037V21.11zm-3.015-3.016h-.943a.502.502 0 100 1.005h.943a.502.502 0 000-1.005zm11.057-1.508a.502.502 0 10-1.005 0v1.507h-1.508a.503.503 0 000 1.006h2.01a.502.502 0 00.503-.503v-2.01z" fill="#0F1C29"></path>
  </symbol>
  <symbol fill="none" xmlns="http://www.w3.org/2000/svg" viewBox="0 0 32 29" id="specfifc-icon-4">
    <path d="M21.65 12.472a.163.163 0 00-.019-.024c-1.859-1.991-4.33-3.088-6.959-3.088-2.629 0-5.1 1.096-6.959 3.088a.17.17 0 00-.045.117.17.17 0 00.045.116l1.018 1.09a.145.145 0 00.108.048c.041 0 .08-.017.109-.048 1.531-1.64 3.564-2.544 5.724-2.544s4.193.903 5.724 2.544a.15.15 0 00.109.048.15.15 0 00.109-.048l1.017-1.09a.173.173 0 00.018-.21z" fill="#0F1C29"></path>
    <path d="M14.672 12.243c-1.907 0-3.702.798-5.054 2.246a.173.173 0 000 .233l1.014 1.087a.149.149 0 00.218 0c1.022-1.095 2.38-1.699 3.822-1.699 1.442 0 2.8.604 3.822 1.7a.15.15 0 00.108.047c.041 0 .08-.017.11-.048l1.014-1.087a.17.17 0 00.045-.116.17.17 0 00-.045-.117c-1.352-1.448-3.147-2.246-5.054-2.246z" fill="#0F1C29"></path>
    <path d="M14.672 15.126c-1.19 0-2.309.497-3.152 1.4a.17.17 0 00-.045.117.17.17 0 00.045.117l1.014 1.086c.03.031.068.049.109.049.04 0 .08-.018.109-.049a2.61 2.61 0 011.92-.853 2.61 2.61 0 011.92.854c.029.03.068.048.109.048.04 0 .08-.018.108-.049l1.015-1.086a.173.173 0 000-.233c-.844-.904-1.963-1.401-3.152-1.401zm0 3.055c-.416 0-.806.173-1.1.488a.173.173 0 000 .233l.991 1.062a.15.15 0 00.109.048.15.15 0 00.108-.048l.991-1.062a.173.173 0 000-.233 1.494 1.494 0 00-1.1-.488zm9.396-13.229A13.765 13.765 0 0014.335.921v1.867c3.155 0 6.181 1.254 8.413 3.485l1.32-1.32zM10.772 1.39a13.765 13.765 0 00-8.358 6.413l1.617.934a11.897 11.897 0 017.225-5.543l-.484-1.804z" fill="#0F1C29"></path>
    <path d="M1.04 11.123a13.764 13.764 0 0025.215 10.445l-1.617-.934a11.897 11.897 0 01-21.795-9.028l-1.804-.483z" fill="#0F1C29"></path>
    <path d="M27.784 16.828v7.42l-6.426-3.71 6.425-3.71z" fill="#0F1C29"></path>
  </symbol>
  <symbol fill="none" xmlns="http://www.w3.org/2000/svg" viewBox="0 0 31 25" id="specfifc-icon-3">
    <circle cx="15.589" cy="14.98" r="9.037" stroke="#0F1C29"></circle>
    <path fill-rule="evenodd" clip-rule="evenodd" d="M14.55 15.243l.788-9.786h.5l.696 9.786H14.55zm.789-12.368V.359h.5v2.516h-.5zm-1.672.231L13.34.612l.496-.066.328 2.494-.496.066zm4.01 0l.328-2.494-.495-.066-.329 2.494.496.066zm-5.637.447l-.651-2.43.483-.13.65 2.43-.482.13zm7.265 0l.65-2.43-.482-.13-.651 2.43.483.13zm-8.82.655l-.963-2.324.462-.191.963 2.324-.462.191zm10.375 0l.963-2.324-.462-.191-.963 2.324.462.191zm-11.832.853L7.771 2.883l.433-.25L9.46 4.81l-.433.25zm13.288 0l1.258-2.178-.433-.25-1.258 2.178.433.25zM7.696 6.097L6.165 4.101l.397-.304 1.531 1.996-.397.304zm15.952 0l1.531-1.996-.396-.304-1.532 1.996.397.304zM6.51 7.298l-1.779-1.78.354-.353 1.779 1.78-.354.353zm18.324 0l1.779-1.78-.354-.353-1.779 1.78.354.353zM5.491 8.643L3.496 7.112l.304-.397 1.996 1.531-.305.397zm20.362 0l1.996-1.531-.304-.397-1.996 1.531.304.397zM4.657 10.11L2.48 8.852l.25-.433 2.178 1.258-.25.433zm22.03 0l2.179-1.258-.25-.433-2.179 1.258.25.433zM4.021 11.673l-2.324-.963.191-.462 2.324.963-.191.462zm23.303 0l2.324-.963-.191-.462-2.325.963.192.462zm-23.73 1.633l-2.43-.651.13-.483 2.43.65-.13.484zm24.156 0l2.43-.651-.13-.483-2.43.65.13.484zM3.385 14.98L.89 14.652l.065-.496 2.494.329-.065.495zm24.575 0l2.494-.328-.066-.496-2.494.329.066.495zM3.395 16.668H.88v-.5h2.516v.5zm24.555 0h2.515v-.5H27.95v.5z" fill="#0F1C29"></path>
  </symbol>
  <symbol fill="none" xmlns="http://www.w3.org/2000/svg" viewBox="0 0 24 17" id="specfifc-icon-2">
    <path stroke="#000" d="M.019 16.5h6.379m2.012 0h6.379m2.012 0h6.379M.019 14.592h6.379m2.012 0h6.379m2.012 0h6.379M.019 12.685h6.379m2.012 0h6.379m2.012 0h6.379M.019 10.777h6.379m2.012 0h6.379m2.012 0h6.379m-6.379-3.814h6.379M.019 8.87h6.379m2.012 0h6.379m2.012 0h6.379m-6.379-3.814h6.379M.019 6.963h6.379M.019 5.056h6.379M.019 3.148h6.379M.019 1.241h6.379"></path>
  </symbol>
  <symbol fill="none" xmlns="http://www.w3.org/2000/svg" viewBox="0 0 28 29" id="specfifc-icon-1">
    <g clip-path="url(#clip0)" fill="#0F1C29">
      <path d="M24.74 4.177L13.973.947a.803.803 0 00-.463 0L2.746 4.177a.804.804 0 00-.573.77v11.842c0 1.54.623 3.117 1.853 4.687.94 1.198 2.239 2.402 3.862 3.577a34.644 34.644 0 005.526 3.236.804.804 0 00.657 0 34.643 34.643 0 005.526-3.236c1.623-1.175 2.923-2.379 3.862-3.577 1.23-1.57 1.853-3.146 1.853-4.687V4.947a.804.804 0 00-.573-.77zm-1.036 12.612c0 2.726-2.735 5.282-5.03 6.946-2.057 1.492-4.143 2.551-4.931 2.931-.79-.38-2.876-1.439-4.933-2.93-2.294-1.665-5.03-4.22-5.03-6.947V5.545l9.963-2.988 9.961 2.988V16.79z"></path>
      <path fill-rule="evenodd" clip-rule="evenodd" d="M20.014 11.943l-7.106 7.106-5.437-5.436 1.72-1.72 3.717 3.716 5.386-5.386 1.72 1.72z"></path>
    </g>
    <defs>
      <clipPath id="clip0">
        <path fill="#fff" transform="translate(.02 .913)" d="M0 0h27.446v27.446H0z"></path>
      </clipPath>
    </defs>
  </symbol>
  <symbol fill="none" xmlns="http://www.w3.org/2000/svg" viewBox="0 0 56 55" id="perspective-icon-3">
    <path d="M39.403 18.698a6.105 6.105 0 01-.747 1.075c-.289.34-.612.64-.97.9a4.648 4.648 0 01-1.152.622c-.41.154-.84.23-1.292.23a3.046 3.046 0 01-1.905-.67 2.55 2.55 0 01-.622-.768 2.188 2.188 0 01-.23-1.005c0-.358.072-.69.216-.998.145-.312.33-.596.559-.852.233-.256.493-.484.782-.684a6.4 6.4 0 01.886-.51 1.412 1.412 0 01-.565-.23 1.735 1.735 0 01-.426-.419 1.85 1.85 0 01-.265-.544 2.107 2.107 0 01.063-1.41c.102-.256.24-.491.411-.705.177-.219.382-.414.615-.587a4.12 4.12 0 011.528-.726c.275-.065.54-.097.796-.097.382 0 .73.076 1.047.23.317.149.596.368.838.656l-1.012.74a3.132 3.132 0 00-.321-.377 1.782 1.782 0 00-.37-.307 1.729 1.729 0 00-.426-.21 1.472 1.472 0 00-.482-.076c-.214 0-.425.04-.635.119a1.768 1.768 0 00-.551.32 1.625 1.625 0 00-.398.49c-.098.19-.147.4-.147.628 0 .237.051.458.154.663.102.2.237.374.405.523a1.891 1.891 0 001.242.475c.26 0 .503-.042.726-.126l.105.287a7.75 7.75 0 00-1.131.467 4.589 4.589 0 00-1.005.677 3.32 3.32 0 00-.726.922 2.527 2.527 0 00-.273 1.187c0 .255.038.493.112.712.075.218.182.41.321.572.145.163.32.29.524.384.21.093.444.14.705.14.27 0 .572-.054.907-.161a5.594 5.594 0 001.864-1.061c.266-.233.466-.47.6-.712l.245.216z" fill="#0F1C29"></path>
    <path d="M44.918 16.178l-.524 1.215a1.705 1.705 0 00-.342-.216.784.784 0 00-.377-.098.69.69 0 00-.293.063.952.952 0 00-.244.167 1.682 1.682 0 00-.335.489l-.14.398a35.64 35.64 0 00.53 1.068c.084.158.154.284.21.377.088.135.177.274.265.419.089.14.186.267.293.384a.355.355 0 00.168.104.885.885 0 00.44-.014c.079-.023.153-.053.223-.09l.175.223a2.278 2.278 0 01-.545.586 1.454 1.454 0 01-.35.203.875.875 0 01-.369.083.768.768 0 01-.3-.055.872.872 0 01-.23-.133c-.07-.06-.136-.13-.196-.21l-.188-.244a4.32 4.32 0 01-.168-.286 25.986 25.986 0 00-.175-.356 11.34 11.34 0 00-.181-.35 2.56 2.56 0 00-.175-.292 4.136 4.136 0 00-.062.237c-.019.065-.04.133-.063.202-.024.07-.044.124-.063.161-.07.149-.158.303-.265.46-.107.159-.23.303-.37.434-.135.125-.284.23-.447.314a1.205 1.205 0 01-.991.02 1.685 1.685 0 01-.426-.244l.44-1.158c.149.093.311.176.488.25.177.07.354.106.53.106.057 0 .115-.005.175-.014a.775.775 0 00.335-.154.404.404 0 00.105-.146c.033-.061.068-.14.105-.238l.111-.293c.042-.112.084-.23.126-.356l-1.312-2.101a.672.672 0 00-.224-.168.538.538 0 00-.488-.02.823.823 0 00-.203.118l-.188-.244a2.141 2.141 0 01.53-.545 1.45 1.45 0 01.343-.188.941.941 0 01.37-.077c.153 0 .295.04.425.118.13.075.252.168.363.28.112.111.214.232.307.363.093.13.177.251.252.363.037.05.076.116.118.195.047.075.091.15.133.224.051.083.1.174.147.272.046-.112.095-.224.146-.335.042-.093.084-.189.126-.287a8.07 8.07 0 01.126-.265c.07-.13.148-.251.237-.363.088-.111.186-.21.293-.293a1.37 1.37 0 01.363-.195c.13-.052.272-.077.426-.077.144 0 .284.019.419.056.135.037.265.088.39.153z" fill="#0F1C29"></path>
    <path d="M38.726 6.867l5.86.046 2.971 5.053 2.89 5.098-2.89 5.1-2.97 5.052-5.861.046-5.861-.046-2.97-5.053-2.89-5.099 2.89-5.098 2.97-5.053 5.86-.046z" stroke="#0F1C29"></path>
    <circle cx="12.685" cy="30.596" r="11.054" stroke="#008C95"></circle>
    <circle cx="12.685" cy="30.596" r="9.284" stroke="#008C95"></circle>
    <path fill="#008C95" d="M.48 29.411h.913v2.021H.48z"></path>
    <path stroke="#008C95" d="M7.199 27.009h7.418m-7.418 3.384h10.973M7.199 33.846h10.973m.562-12.386L17.61 6.67m1.124 33L17.61 54.457M6.074 21.46L7.199 6.67M6.074 39.43l1.125 14.79"></path>
  </symbol>
  <symbol fill="none" xmlns="http://www.w3.org/2000/svg" viewBox="0 0 57 35" id="perspective-icon-2">
    <path d="M39.91 19.24a6.104 6.104 0 01-.746 1.075c-.289.34-.612.64-.97.9a4.68 4.68 0 01-1.152.622c-.41.154-.84.23-1.292.23a3.046 3.046 0 01-1.905-.67 2.55 2.55 0 01-.622-.768 2.188 2.188 0 01-.23-1.005c0-.358.072-.69.216-.998.145-.312.33-.596.559-.852.233-.256.493-.484.782-.684a6.4 6.4 0 01.886-.51 1.411 1.411 0 01-.565-.23 1.736 1.736 0 01-.426-.419 1.85 1.85 0 01-.265-.544 2.107 2.107 0 01.063-1.41c.102-.256.24-.491.411-.705.177-.219.382-.414.615-.587a4.113 4.113 0 011.528-.726c.275-.065.54-.097.796-.097.382 0 .73.076 1.047.23.317.149.596.368.838.656l-1.012.74a3.122 3.122 0 00-.321-.377 1.78 1.78 0 00-.37-.307 1.727 1.727 0 00-.426-.21 1.472 1.472 0 00-.482-.076c-.214 0-.426.04-.635.119a1.766 1.766 0 00-.551.32 1.625 1.625 0 00-.398.49c-.098.19-.147.4-.147.628 0 .237.051.458.154.663.102.2.237.374.404.523a1.89 1.89 0 001.243.475c.26 0 .503-.042.726-.126l.105.287a7.749 7.749 0 00-1.131.467 4.59 4.59 0 00-1.005.677 3.32 3.32 0 00-.726.922 2.534 2.534 0 00-.273 1.186c0 .256.038.494.112.713.075.218.182.41.321.572.145.163.319.29.524.384.21.093.444.14.705.14.27 0 .572-.054.907-.161a5.592 5.592 0 001.864-1.061c.265-.233.465-.47.6-.712l.245.216zm5.515-2.52l-.523 1.215a1.705 1.705 0 00-.342-.216.784.784 0 00-.377-.098.69.69 0 00-.293.063.951.951 0 00-.245.167c-.074.07-.14.149-.195.238a1.691 1.691 0 00-.14.25l-.14.399a35.231 35.231 0 00.531 1.068c.084.158.154.284.21.377.088.135.177.274.265.419.088.14.186.267.293.383a.355.355 0 00.168.105.885.885 0 00.44-.014 1.18 1.18 0 00.223-.09l.174.223a2.277 2.277 0 01-.544.586 1.45 1.45 0 01-.35.203.874.874 0 01-.37.083.768.768 0 01-.3-.055.873.873 0 01-.23-.133 1.31 1.31 0 01-.195-.21l-.189-.244a4.32 4.32 0 01-.167-.286 23.86 23.86 0 00-.175-.356 11.34 11.34 0 00-.181-.35 2.586 2.586 0 00-.175-.292 4.834 4.834 0 01-.126.44c-.023.07-.043.123-.062.16-.07.149-.158.303-.265.46-.107.159-.23.303-.37.434a1.98 1.98 0 01-.447.314 1.205 1.205 0 01-.991.021 1.69 1.69 0 01-.426-.245l.44-1.158c.148.093.311.176.488.25.177.07.354.106.53.106.057 0 .115-.005.175-.014a.775.775 0 00.335-.154.405.405 0 00.105-.147c.033-.06.067-.14.105-.237l.111-.293c.042-.112.084-.23.126-.356l-1.312-2.101a.673.673 0 00-.224-.168.538.538 0 00-.488-.02.823.823 0 00-.203.118l-.188-.244a2.142 2.142 0 01.53-.545 1.43 1.43 0 01.342-.188.941.941 0 01.37-.077c.154 0 .296.04.426.119.13.074.252.167.363.279.112.111.214.232.307.363.093.13.177.251.252.363.037.05.076.116.118.195.047.075.091.15.133.224.051.083.1.174.146.272.047-.112.096-.224.147-.335.042-.093.084-.189.126-.287a2.524 2.524 0 01.363-.628c.088-.111.186-.21.293-.293a1.37 1.37 0 01.363-.195c.13-.052.272-.077.426-.077.144 0 .284.018.419.056.135.037.265.088.39.153z" fill="#0F1C29"></path>
    <path d="M39.234 7.409l5.86.046 2.971 5.053 2.89 5.099-2.89 5.098-2.97 5.053-5.861.046-5.861-.046-2.97-5.053-2.891-5.098 2.89-5.1 2.97-5.052 5.862-.046z" stroke="#0F1C29"></path>
    <rect x="12.699" y="5.918" width="12.838" height="22.043" rx=".5" transform="rotate(30 12.699 5.918)" stroke="#008C95"></rect>
    <path stroke="#008C95" stroke-linecap="round" d="M8.167 8.852L1.79 19.515m22.216-2.185l-6.378 10.662m7.071-6.564l-2.966 5.425M4.148 9.843l-2.966 5.425"></path>
  </symbol>
</svg>