<svg width="0" height="0" class="hidden">
  <symbol fill="none" xmlns="http://www.w3.org/2000/svg" viewBox="0 0 14 15" id="link-icon">
    <path fill-rule="evenodd" clip-rule="evenodd" d="M4.683 3.87h6.145v6.145H9.48V6.17l-5.253 5.252-.952-.952 5.252-5.252H4.683V3.87z" fill="currentColor"></path>
  </symbol>
  <symbol fill="none" xmlns="http://www.w3.org/2000/svg" viewBox="0 0 32 32" id="icon-download">
    <circle cx="16.059" cy="15.743" r="15.262" fill="#25C1CB"></circle>
    <path d="M16.26 8.53v9.158m0 0l-3.646-3.646m3.645 3.646l3.646-3.646m-9.11 7.45h10.527" stroke="#fff"></path>
  </symbol>
  <symbol fill="none" xmlns="http://www.w3.org/2000/svg" viewBox="0 0 18 23" id="icon-document">
    <path d="M1.096 20.932V2.648c0-.791.6-1.432 1.341-1.432h8.826l2.494 2.54 2.773 2.726v14.45c0 .791-.6 1.432-1.341 1.432H2.437c-.74 0-1.341-.641-1.341-1.432z" fill="#fff"></path>
    <path d="M11.263 1.216l2.494 2.54 2.773 2.726m-5.267-5.266H2.437c-.74 0-1.341.64-1.341 1.432v18.284c0 .791.6 1.432 1.341 1.432H15.19c.74 0 1.341-.641 1.341-1.432V6.482m-5.267-5.266V5.05c0 .79.6 1.432 1.34 1.432h3.927m-13.713.124h6.546m-6.546 4.139H13.34M2.817 13.593H13.34m-10.524 2.85H13.34" stroke="#0F1C29"></path>
    <path d="M11.295 3.321V1.296l5.123 5.025h-2.123a3 3 0 01-3-3z" fill="#0F1C29"></path>
  </symbol>
  <symbol fill="none" xmlns="http://www.w3.org/2000/svg" viewBox="0 0 31 42" id="icon-add-document">
    <path d="M29.634 8.553l-1.357-1.357-.353.354-1.357-1.357.353-.354-1.357-1.357-.353.354-1.357-1.357.354-.353-1.357-1.357-.354.353-.678-.678h0a.442.442 0 00-.068-.056l.278-.415a.948.948 0 00-.342-.142l-.097.49a.45.45 0 00-.088-.008h-1.027v-.5h-2.053v.5h-2.054v-.5h-2.053v.5H12.26v-.5h-2.054v.5H8.153v-.5H6.099v.5H4.046v-.5H1.992v.5H.965a.445.445 0 00-.171.034L.602.885a.951.951 0 00-.513.513l.462.191a.446.446 0 00-.034.172v.963h-.5V4.65h.5v1.926h-.5v1.926h.5v1.926h-.5v1.926h.5v1.926h-.5v1.926h.5v1.925h-.5v1.926h.5v1.926h-.5v1.926h.5v1.926h-.5v1.926h.5v1.926h-.5v1.926h.5v1.926h-.5v1.926h.5v1.926h-.5v1.926h.5v.963c0 .062.012.119.034.171l-.462.192a.951.951 0 00.513.513l.192-.462c.052.022.11.034.171.034H1.99v.5h2.049v-.5h2.048v.5h2.048v-.5h2.049v.5h2.048v-.5h2.048v.5h2.049v-.5h2.048v.5h2.048v-.5h2.049v.5h2.048v-.5h2.049v.5h2.048v-.5h1.024c.062 0 .12-.012.171-.034l.192.462a.95.95 0 00.513-.513l-.462-.192a.446.446 0 00.034-.171v-.95h.5v-1.898h-.5v-1.899h.5v-1.898h-.5v-1.899h.5v-1.899h-.5V27.94h.5v-1.9h-.5v-1.898h.5v-1.9h-.5v-1.898h.5v-1.898h-.5v-1.899h.5v-1.899h-.5V12.75h.5v-1.9h-.5V9.9a.446.446 0 00-.009-.087l.49-.097a.948.948 0 00-.14-.342l-.416.278a.448.448 0 00-.056-.068l-.679-.679.354-.353z" stroke="#DBDDDF" stroke-dasharray="2 2"></path>
    <path fill-rule="evenodd" clip-rule="evenodd" d="M14.566 25.986v-9.931h1.562v9.93h-1.562z" fill="#DBDDDF"></path>
    <path fill-rule="evenodd" clip-rule="evenodd" d="M20.269 21.802h-9.93V20.24h9.93v1.562z" fill="#DBDDDF"></path>
    <path d="M30.637 12.257h-8.578c-.578 0-1.047-.56-1.047-1.25V.813" stroke="#DBDDDF" stroke-width=".5" stroke-dasharray="2 2"></path>
  </symbol>
  <symbol fill="none" xmlns="http://www.w3.org/2000/svg" viewBox="0 0 10 7" id="icon-check">
    <path fill-rule="evenodd" clip-rule="evenodd" d="M9.663.496l-5.6 6.352L.386 2.32l.936-.655 2.741 3.482L9.24.06l.423.436z" fill="currentColor"></path>
  </symbol>
  <symbol fill="none" xmlns="http://www.w3.org/2000/svg" viewBox="0 0 26 27" id="watch-icon">
    <path stroke="#0F1C29" d="M25.925 13.149H23.37m-23.052 0h2.555"></path>
    <circle cx="13.121" cy="13.341" r="12.303" stroke="#0F1C29"></circle>
    <path stroke="#0F1C29" d="M13.301 7.16v6.704m0-13.326v2.554M13.3 25.808v-2.555m8.396-18.887l-1.885 1.725M4.546 4.366l1.885 1.725m15.265 15.888l-1.885-1.725M4.546 21.979l1.885-1.725m14.624-6.902h-8.254"></path>
  </symbol>
  <symbol viewBox="0 0 51 20" fill="none" xmlns="http://www.w3.org/2000/svg" id="deus-logo">
    <path d="M12.331 1.03864V19.4443C12.3317 19.4862 12.3214 19.5276 12.3013 19.5643C12.2811 19.6011 12.2517 19.632 12.2161 19.6539C12.1804 19.6759 12.1396 19.6882 12.0977 19.6896C12.0558 19.691 12.0143 19.6815 11.9772 19.6621L8.50865 17.9253C8.46837 17.9053 8.43445 17.8745 8.41071 17.8364C8.38697 17.7982 8.37435 17.7542 8.37427 17.7092V2.77544C8.37435 2.7305 8.38697 2.68646 8.41071 2.6483C8.43445 2.61013 8.46837 2.57935 8.50865 2.55941L11.9772 0.822604C12.0141 0.803191 12.0555 0.793697 12.0973 0.795048C12.139 0.7964 12.1797 0.80855 12.2153 0.830313C12.251 0.852076 12.2803 0.882709 12.3006 0.919222C12.3209 0.955735 12.3314 0.99688 12.331 1.03864Z" fill="currentColor"/>
    <path d="M39.6486 7.63608V19.4467C39.6487 19.488 39.6382 19.5286 39.6181 19.5647C39.598 19.6007 39.569 19.631 39.5338 19.6527C39.4987 19.6744 39.4586 19.6867 39.4173 19.6884C39.3761 19.6902 39.335 19.6813 39.2982 19.6627L35.8263 17.9259C35.786 17.906 35.7521 17.8752 35.7283 17.837C35.7046 17.7989 35.692 17.7548 35.6919 17.7099V7.63608C35.6919 7.57202 35.7173 7.51058 35.7626 7.46528C35.8079 7.41998 35.8694 7.39453 35.9334 7.39453H39.4071C39.4711 7.39453 39.5326 7.41998 39.5779 7.46528C39.6232 7.51058 39.6486 7.57202 39.6486 7.63608Z" fill="currentColor"/>
    <path d="M34.8974 19.0315L34.8294 19.0826C34.6029 19.2476 34.3593 19.3878 34.103 19.501C33.9067 19.5871 33.7036 19.6565 33.4957 19.7086C32.9113 19.8594 32.3002 19.8744 31.7091 19.7526C31.1179 19.6308 30.5626 19.3753 30.0854 19.0057C29.6083 18.6361 29.2221 18.1622 28.9563 17.6204C28.6906 17.0785 28.5524 16.483 28.5524 15.8794V7.66831C28.5524 7.60454 28.5776 7.54336 28.6225 7.49811C28.6674 7.45285 28.7285 7.42721 28.7922 7.42676L31.0206 7.46248H32.2607C32.2743 7.46117 32.288 7.46117 32.3015 7.46248C32.3562 7.47347 32.4053 7.50302 32.4407 7.54611C32.476 7.58921 32.4954 7.6432 32.4955 7.69893V10.5533C32.4943 10.5686 32.4943 10.584 32.4955 10.5993V17.0311C32.4943 17.0463 32.4943 17.0617 32.4955 17.077C32.5079 17.5556 32.7067 18.0105 33.0495 18.3448C33.3923 18.679 33.8521 18.8662 34.3309 18.8665H34.7137H34.8106C34.8313 18.8622 34.8527 18.8648 34.8718 18.8738C34.8908 18.8827 34.9064 18.8977 34.9162 18.9163C34.926 18.935 34.9295 18.9563 34.9261 18.9771C34.9227 18.9979 34.9126 19.017 34.8974 19.0315Z" fill="currentColor"/>
    <path d="M7.50306 8.88577C7.28671 8.79899 7.05573 8.75452 6.82263 8.75479H6.54535C6.30344 8.75479 6.0639 8.80252 5.84047 8.89525C5.61703 8.98798 5.41409 9.12389 5.24327 9.29519C5.07245 9.46648 4.9371 9.6698 4.84499 9.89349C4.75288 10.1172 4.70581 10.3568 4.70648 10.5988V17.0305C4.70738 17.5177 4.90152 17.9845 5.24628 18.3286C5.59103 18.6727 6.05824 18.866 6.54535 18.866H6.92809H7.02505C7.04562 18.8639 7.06635 18.8683 7.08419 18.8788C7.10204 18.8892 7.11607 18.9051 7.12424 18.9241C7.13241 18.9431 7.13429 18.9643 7.12961 18.9844C7.12492 19.0045 7.11392 19.0227 7.0982 19.0361L7.03016 19.0871C6.43983 19.5153 5.74263 19.7719 5.0156 19.8285C4.28858 19.8852 3.56003 19.7398 2.91049 19.4083C2.26094 19.0769 1.71568 18.5723 1.33496 17.9503C0.954247 17.3284 0.7529 16.6132 0.753174 15.884V11.4867C0.753174 9.29744 2.54611 7.45006 4.7337 7.46197C5.77341 7.46807 6.76867 7.88439 7.50306 8.62041C7.53878 8.65613 7.5762 8.69525 7.61022 8.73438C7.62294 8.75081 7.63005 8.77089 7.63049 8.79166C7.63094 8.81243 7.6247 8.8328 7.61269 8.84976C7.60069 8.86671 7.58356 8.87937 7.56382 8.88585C7.54408 8.89234 7.52278 8.89231 7.50306 8.88577Z" fill="currentColor"/>
    <path d="M50.8009 15.7108C50.8009 16.7949 50.506 17.6925 49.9163 18.4036C49.8278 18.5056 49.7462 18.6009 49.6424 18.6962C48.9433 19.3766 48.0468 19.7423 46.9581 19.8121C46.955 19.8137 46.9515 19.8146 46.9479 19.8146C46.9444 19.8146 46.9409 19.8137 46.9377 19.8121L46.8356 19.8206C46.7642 19.8206 46.6911 19.8206 46.6179 19.8206H46.4138C45.713 19.7964 45.0157 19.7104 44.33 19.5637L44.2313 19.5433C43.7124 19.4089 43.2045 19.2362 42.7116 19.0268C42.3745 18.8836 42.1618 18.5517 42.1465 18.1857L42.0493 15.8521C42.0463 15.7787 42.1049 15.7176 42.1784 15.7176C42.2762 15.7176 42.3654 15.773 42.4106 15.8597C42.8925 16.7831 43.523 17.6213 44.2772 18.3406C44.9146 18.9462 45.5814 19.3063 46.2777 19.4208C46.439 19.4475 46.6024 19.4606 46.7659 19.4599C46.8476 19.4599 46.936 19.4599 47.0109 19.4497H47.0517C47.0808 19.4494 47.1098 19.4465 47.1384 19.4412C47.291 19.4273 47.4412 19.3948 47.5858 19.3443C47.6467 19.3274 47.7064 19.3063 47.7644 19.2813C47.8104 19.2626 47.8563 19.2439 47.8988 19.2218C47.9703 19.1861 48.0349 19.1486 48.1012 19.1078C48.2892 18.9856 48.4568 18.8347 48.598 18.6604C48.636 18.6176 48.6718 18.5727 48.7051 18.5261C48.7374 18.4767 48.7715 18.4308 48.8004 18.3832C48.9064 18.1344 48.958 17.8659 48.9518 17.5956C48.9655 17.3144 48.907 17.0344 48.782 16.7822C48.6569 16.53 48.4694 16.314 48.2373 16.1547C47.609 15.7549 46.9195 15.4606 46.196 15.2838C45.5484 15.1152 44.914 14.8997 44.2976 14.6391C43.982 14.4932 43.6832 14.3135 43.4063 14.1032C43.3263 14.0454 43.2464 13.9791 43.1664 13.9144C42.4463 13.3179 42.0862 12.3931 42.0862 11.14C42.0841 10.7354 42.1479 10.3332 42.275 9.94921C42.2921 9.90328 42.3091 9.85735 42.3295 9.81142C42.3892 9.65588 42.4585 9.5042 42.537 9.35723C42.537 9.34873 42.5455 9.33852 42.5506 9.32832C42.7244 9.02816 42.9365 8.75196 43.1817 8.50669C43.7035 7.98697 44.3709 7.63814 45.0954 7.50646C45.4489 7.43641 45.8085 7.40222 46.1688 7.40439C46.3712 7.40439 46.5822 7.4146 46.7914 7.43501C47.1547 7.47038 47.5151 7.5312 47.8699 7.61703C47.8831 7.62201 47.8968 7.62544 47.9107 7.62724C47.9992 7.64935 48.0995 7.67487 48.2067 7.70719C48.8044 7.88786 49.3862 8.11734 49.9463 8.39331C49.9519 8.39607 49.9554 8.40178 49.9554 8.40803L50.0048 9.81312L50.043 10.9526C50.0453 11.0225 49.9893 11.0804 49.9194 11.0804C49.8284 11.0804 49.745 11.0304 49.7009 10.9508C49.393 10.3958 49.0418 9.8658 48.6507 9.36574C48.4742 9.14023 48.2857 8.92444 48.0859 8.71933L48.04 8.6734C47.4367 8.07008 46.7812 7.76843 46.0736 7.76843C45.3659 7.76843 44.8165 7.93173 44.4252 8.25834C44.2366 8.41862 44.0868 8.61965 43.9872 8.84625C43.8876 9.07286 43.8408 9.31912 43.8502 9.56647C43.8417 9.81999 43.9021 10.0711 44.0249 10.293C44.1477 10.515 44.3284 10.6995 44.5477 10.827C45.0825 11.148 45.6613 11.3893 46.2658 11.5431C46.3849 11.5737 46.4954 11.6044 46.606 11.635C47.0993 11.7694 47.431 11.8646 47.6079 11.9225C47.8211 11.9905 48.0859 12.0846 48.4023 12.2048C48.6736 12.3034 48.9337 12.4305 49.178 12.5842C49.4032 12.7343 49.6164 12.9015 49.8159 13.0843C50.0303 13.2721 50.2084 13.4975 50.3416 13.7494C50.6615 14.3525 50.8198 15.0283 50.8009 15.7108Z" fill="currentColor"/>
    <path d="M26.5775 13.7673C26.5775 13.7214 26.5775 13.6755 26.5775 13.6295C26.5775 13.5836 26.5775 13.507 26.5775 13.4458C26.5775 13.3846 26.5775 13.3574 26.5775 13.3131C26.5775 13.2196 26.5673 13.1243 26.5571 13.0307L26.5469 12.927L26.5367 12.847C26.5367 12.796 26.5299 12.745 26.5163 12.6939C26.5163 12.6429 26.501 12.5919 26.4908 12.5425C26.4806 12.4932 26.4789 12.4762 26.472 12.4422C26.4652 12.4081 26.455 12.352 26.4448 12.3061C26.4193 12.1836 26.3887 12.0628 26.3547 11.9421L26.3138 11.8026L26.2662 11.658C26.2509 11.6103 26.2339 11.5644 26.2169 11.5168C26.1829 11.4232 26.1471 11.3297 26.108 11.2361L26.0621 11.1272C26.0366 11.0677 26.0094 11.0082 25.9804 10.9571C25.9515 10.9061 25.9141 10.8176 25.8767 10.7513C25.8018 10.605 25.7185 10.4604 25.63 10.3209C25.6045 10.2784 25.5773 10.2376 25.5501 10.1967C25.5024 10.1253 25.4548 10.0556 25.4038 9.98581L25.3306 9.88545L25.2847 9.82591C25.2575 9.79019 25.2303 9.75447 25.2013 9.72044C25.0772 9.56735 24.9479 9.41935 24.8101 9.27986L24.7182 9.188C24.6434 9.11486 24.5685 9.04341 24.4903 8.97537C24.4546 8.94135 24.4171 8.90903 24.3797 8.87841L24.3542 8.85629C24.2873 8.79959 24.2193 8.74289 24.1501 8.68619L24.0327 8.59773C23.9136 8.50927 23.7911 8.42592 23.6653 8.34767C23.6244 8.32215 23.5819 8.29494 23.5394 8.27112L23.4118 8.19628C23.3676 8.17076 23.3251 8.14694 23.2808 8.12483C23.2366 8.10272 23.1941 8.0789 23.1498 8.05679C23.1056 8.03467 23.0597 8.01256 23.0155 7.99045C22.9712 7.96833 22.9253 7.94792 22.8794 7.92921L22.7433 7.86967C22.6497 7.83054 22.5579 7.79482 22.4626 7.7608L22.3214 7.71147L22.1768 7.66554L22.0322 7.62301C21.9353 7.59579 21.8366 7.57028 21.7379 7.54816L21.6189 7.52265L21.4386 7.48863C21.3365 7.46991 21.2361 7.4546 21.1324 7.4427L20.9793 7.42399L20.7547 7.40527H20.7037H20.5098H20.2308H20.0726C19.1004 7.44716 18.1515 7.71597 17.3018 8.19021C16.4521 8.66445 15.7252 9.33095 15.1791 10.1364C14.6331 10.9419 14.2832 11.8639 14.1573 12.8288C14.0314 13.7937 14.133 14.7747 14.4541 15.6933C14.7752 16.6119 15.3068 17.4426 16.0064 18.119C16.7059 18.7954 17.5541 19.2987 18.483 19.5886C19.4119 19.8785 20.3957 19.947 21.3558 19.7887C22.316 19.6303 23.2257 19.2495 24.0123 18.6766L24.1109 18.6018C24.1909 18.5405 24.2709 18.481 24.3457 18.4181C24.3712 18.3994 24.395 18.3789 24.4205 18.3568L24.4818 18.299L24.5005 18.2837C24.5071 18.2791 24.5134 18.274 24.5192 18.2684C24.5975 18.1986 24.674 18.1255 24.7489 18.0506C25.0977 17.7015 25.4045 17.3128 25.6628 16.8923C25.6669 16.8856 25.6691 16.8772 25.6642 16.8711C25.6617 16.8679 25.6584 16.8655 25.6547 16.8639C25.6509 16.8624 25.6469 16.8619 25.6428 16.8623C25.6388 16.8628 25.635 16.8643 25.6317 16.8667L25.6113 16.882L25.4157 17.0606C25.015 17.4628 24.5373 17.7801 24.0112 17.9935C23.4851 18.2068 22.9214 18.3119 22.3537 18.3024C21.6873 18.3028 21.0302 18.1457 20.436 17.8439C19.8418 17.542 19.3273 17.104 18.9346 16.5656C18.7812 16.3593 18.6479 16.1389 18.5365 15.9073C18.2586 15.333 18.1149 14.703 18.1163 14.065V13.7673H26.5775ZM20.2393 7.97343C20.8005 7.97479 21.3383 8.19869 21.7347 8.59604C22.1311 8.99338 22.3537 9.53172 22.3537 10.093V13.5241H18.1197V10.093C18.1197 9.53084 18.3431 8.99173 18.7405 8.59423C19.138 8.19674 19.6772 7.97343 20.2393 7.97343Z" fill="currentColor"/>
  </symbol>

</svg>