<svg width="0" height="0" class="hidden">
  <symbol fill="none" xmlns="http://www.w3.org/2000/svg" viewBox="0 0 53 53" id="why-icon-2">
    <path d="M32.947 19.773H19.985v12.962h12.962V19.773z" fill="#fff"></path>
    <path d="M45.666 14.132v-1.076a6 6 0 00-6-6H38.59V.496h-3.02v6.56h-4.057V.496h-3.019v6.56h-4.057V.496H21.42v6.56h-4.058V.496h-3.018v6.56h-1.076a6 6 0 00-6 6v1.076H.708v3.018h6.56v4.058H.708v3.018h6.56v4.057H.708v3.019h6.56v4.057H.708v3.019h6.56v1.076a6 6 0 006 6h1.075v6.56h3.019v-6.56h4.057v6.56h3.019v-6.56h4.057v6.56h3.019v-6.56h4.057v6.56h3.019v-6.56h1.076a6 6 0 006-6v-1.076h6.56V35.36h-6.56v-4.057h6.56v-3.018h-6.56v-4.058h6.56v-3.018h-6.56V17.15h6.56v-3.02h-6.56zm-6.038 25.285H13.305V13.093h26.323v26.324z" fill="#fff"></path>
  </symbol>
  <symbol fill="none" xmlns="http://www.w3.org/2000/svg" viewBox="0 0 77 78" id="about-icon-1">
    <path d="M77 43.229a6.27 6.27 0 00-4.828-6.1C68.534 22.715 54.819 11.967 38.5 11.967c-26.213 0-33.385 22.45-33.995 25.247a6.269 6.269 0 001.762 12.282 6.267 6.267 0 003.294-11.599s3.398-13.869 18.195-13.869c8.972 0 16.504 5.864 18.464 13.712a6.267 6.267 0 104.786-.525c-2.23-10.24-11.808-17.962-23.25-17.962-.585 0-1.165.02-1.739.06A31.304 31.304 0 0138.5 16.742c13.936 0 25.67 9.013 28.939 21.155a6.262 6.262 0 00-2.973 5.331c0 2.264 1.2 4.246 2.998 5.349-2.43 7.183-9.617 12.405-18.085 12.405-8.523 0-15.75-5.292-18.132-12.549a6.267 6.267 0 10-4.71.943c2.826 9.444 11.997 16.381 22.842 16.381 10.87 0 20.057-6.968 22.86-16.445A6.269 6.269 0 0077 43.23z" fill="#0F1C29"></path>
  </symbol>
  <symbol fill="none" xmlns="http://www.w3.org/2000/svg" viewBox="0 0 96 92" id="about-icon-2">
    <path d="M36.255 30.748L30.5 25.31c.67-1.217 1.085-2.596 1.085-4.084a8.531 8.531 0 00-8.535-8.533c-4.716 0-8.54 3.817-8.54 8.533a8.537 8.537 0 008.54 8.537c1.663 0 3.2-.495 4.513-1.316l5.747 5.433c.87-1.15 1.85-2.202 2.945-3.13zm24.343-.68L68.245 17.2c.753.216 1.534.37 2.353.37a8.535 8.535 0 008.543-8.536A8.534 8.534 0 0070.598.5a8.528 8.528 0 00-8.533 8.533c0 2.34.944 4.457 2.47 6l-7.623 12.833a19.104 19.104 0 013.686 2.202zm26.373 10.773c-3.671 0-6.781 2.333-7.987 5.586L68.36 45.38c0 .08.012.157.012.235 0 1.385-.153 2.738-.43 4.044l10.621 1.049c.642 4.074 4.15 7.198 8.408 7.198a8.527 8.527 0 008.531-8.53 8.53 8.53 0 00-8.53-8.534zm-29.318 33.56l-2.376-10.379a19.45 19.45 0 01-4.19.969l2.379 10.38c-2.728 1.428-4.61 4.248-4.61 7.54 0 4.715 3.817 8.53 8.541 8.53a8.527 8.527 0 008.53-8.53c.007-4.627-3.68-8.373-8.274-8.51zM29.794 49.734l-13.226 4.43c-1.525-2.33-4.152-3.876-7.141-3.876A8.53 8.53 0 00.894 58.82a8.53 8.53 0 008.533 8.539 8.538 8.538 0 008.538-8.54c0-.197-.042-.378-.058-.57l13.267-4.443a19.49 19.49 0 01-1.38-4.073zM48.862 60.25c8.084 0 14.636-6.553 14.636-14.636 0-8.083-6.552-14.636-14.636-14.636-8.083 0-14.636 6.553-14.636 14.636 0 8.084 6.553 14.636 14.636 14.636z" fill="#fff"></path>
  </symbol>
  <symbol fill="none" xmlns="http://www.w3.org/2000/svg" viewBox="0 0 60 60" id="about-icon-3">
    <path d="M21.504 60h16.992V0H21.504v60zm3.399-56.601h10.195v22.7H24.903v-22.7zM.055 60h16.992V14.84H.055V60zm3.399-41.76h10.195v17.416H3.454V18.239zm39.499-2.194V60h16.991V16.046H42.953zm13.593 16.491H46.352V19.445h10.194v13.092z" fill="#fff"></path>
  </symbol>
  <symbol fill="none" xmlns="http://www.w3.org/2000/svg" viewBox="0 0 36 37" id="idea-icon-1">
    <g clip-path="url(#clip0)" fill="#25C1CB">
      <path d="M4.114 32.185V.3H0v36h36v-4.114H4.114z"></path>
      <path d="M12.864 22.05H11.23v-1.634H9.594v1.634H7.96v1.636h1.635v1.634h1.635v-1.634h1.635V22.05zm3.892-7.02h-1.634v-1.635h-1.635v1.635h-1.635v1.635h1.635V18.3h1.635v-1.635h1.634V15.03zm4.905 4.568h-1.635v-1.635h-1.634v1.635h-1.636v1.635h1.636v1.635h1.634v-1.635h1.635v-1.635zm2.453-6.658h-1.635v-1.634h-1.635v1.635h-1.635v1.635h1.635v1.634h1.635v-1.634h1.635V12.94zm6.972.886h-1.635v-1.635h-1.634v1.635h-1.635v1.635h1.635v1.635h1.634v-1.635h1.635v-1.635zm1.116-6.959h-1.634V5.232h-1.636v1.635h-1.634v1.635h1.635v1.635h1.634V8.502h1.635V6.867z"></path>
    </g>
    <defs>
      <clipPath id="clip0">
        <path fill="#fff" transform="translate(0 .3)" d="M0 0h36v36H0z"></path>
      </clipPath>
    </defs>
  </symbol>
  <symbol fill="none" xmlns="http://www.w3.org/2000/svg" viewBox="0 0 31 32" id="idea-icon-2">
    <g clip-path="url(#clip0)" fill="#25C1CB">
      <path d="M23.345 15.69c2.853 0 5.239-2.75 5.239-5.76a5.786 5.786 0 00-5.787-5.786c-3.01 0-5.76 2.397-5.76 5.238l.003 6.305 6.305.003zM7.763 17.337c-3.45 0-6.335 3.325-6.335 6.966A6.997 6.997 0 008.425 31.3c3.64 0 6.965-2.899 6.965-6.335l-.003-7.624-7.624-.004zm16.902 0l-7.624.004-.003 7.624c0 3.436 3.324 6.335 6.965 6.335A6.997 6.997 0 0031 24.303c0-3.641-2.885-6.966-6.335-6.966zM7.713.3A7.713 7.713 0 000 8.013c0 4.013 3.195 7.677 6.983 7.677l8.404-.003.003-8.404C15.39 3.48 11.726.3 7.713.3z"></path>
    </g>
    <defs>
      <clipPath id="clip0">
        <path fill="#fff" transform="translate(0 .3)" d="M0 0h31v31H0z"></path>
      </clipPath>
    </defs>
  </symbol>
  <symbol fill="none" xmlns="http://www.w3.org/2000/svg" viewBox="0 0 35 35" id="idea-icon-3">
    <g clip-path="url(#clip0)" fill="#25C1CB">
      <path d="M28.455 19.94c-.44 0-.868.049-1.28.14l-4.673-8.34a5.936 5.936 0 10-10.224 0l-4.673 8.34a5.936 5.936 0 104.517 7.074h10.536a5.937 5.937 0 0011.732-1.278 5.936 5.936 0 00-5.935-5.936zM17.22 5.148h1.06V12.3h-1.334V6.594l-1.106.596-.29-1.147 1.67-.895zM8.635 29.45H4.017v-.8l.763-.74c1.713-1.633 2.43-2.463 2.44-3.382 0-.516-.2-1.134-1.157-1.134-.591 0-1.075.33-1.312.526l-.173.145-.434-.963.098-.083a3.11 3.11 0 012.007-.72c1.534 0 2.221 1.063 2.221 2.118 0 1.34-.978 2.387-2.36 3.719l-.238.22h2.763v1.095zm13.985-4.67H12.16a5.932 5.932 0 00-2.377-3.728l4.19-7.476a5.904 5.904 0 003.418 1.085 5.903 5.903 0 003.419-1.085L25 21.052a5.932 5.932 0 00-2.378 3.728zm5.5 4.73c-.812 0-1.496-.26-1.834-.482l-.113-.074.364-1.032.182.117c.214.136.78.395 1.391.395.46 0 .814-.121 1.05-.361.19-.196.298-.473.293-.762-.01-.863-.812-1.17-1.559-1.17h-.677v-1.024h.677c.532 0 1.322-.256 1.322-.96 0-.534-.365-.84-1.003-.84-.49 0-.974.223-1.239.412l-.185.132-.357-.993.103-.076c.372-.273 1.089-.548 1.854-.548 1.204 0 1.853.619 2.034 1.335.035.142.053.288.053.433 0 .66-.34 1.209-.949 1.554.745.301 1.207.958 1.207 1.762 0 1.086-.808 2.181-2.613 2.181z"></path>
      <path d="M8.635 29.451H4.017v-.8l.763-.74c1.713-1.633 2.43-2.463 2.44-3.382 0-.516-.2-1.134-1.157-1.134-.591 0-1.075.33-1.312.526l-.173.145-.434-.963.098-.083a3.11 3.11 0 012.007-.72c1.534 0 2.221 1.063 2.221 2.118 0 1.34-.978 2.387-2.36 3.719l-.238.22h2.763v1.095zm8.586-24.303h1.06V12.3h-1.334V6.594l-1.106.596-.29-1.147 1.67-.895zm10.901 24.36c-.813 0-1.497-.26-1.835-.481l-.113-.074.364-1.032.182.117c.214.136.78.395 1.391.395.46 0 .814-.121 1.05-.361.19-.196.298-.473.293-.762-.01-.863-.812-1.17-1.559-1.17h-.677v-1.024h.677c.532 0 1.322-.256 1.322-.96 0-.534-.365-.84-1.003-.84-.49 0-.974.223-1.239.412l-.185.132-.357-.993.103-.076c.372-.273 1.089-.548 1.854-.548 1.204 0 1.853.619 2.034 1.335.035.142.053.288.053.433 0 .66-.34 1.209-.949 1.554.745.301 1.207.958 1.207 1.762 0 1.086-.808 2.181-2.613 2.181z"></path>
    </g>
    <defs>
      <clipPath id="clip0">
        <path fill="#fff" transform="translate(.39 .3)" d="M0 0h34v34H0z"></path>
      </clipPath>
    </defs>
  </symbol>
  <symbol fill="none" xmlns="http://www.w3.org/2000/svg" viewBox="0 0 34 36" id="idea-icon-4">
    <g clip-path="url(#clip0)" fill="#25C1CB">
      <path d="M31.95 18.25c0 8.485-6.707 15.388-14.95 15.388-8.243 0-14.95-6.903-14.95-15.389 0-7.13 4.772-13.313 11.44-14.962l.14 1.294L17 2.03 13.168.3l.142 1.325C5.818 3.377.437 10.28.437 18.25.437 27.651 7.867 35.3 17 35.3s16.564-7.648 16.564-17.05H31.95z"></path>
      <path d="M6.086 18.25c0 6.195 4.896 11.235 10.914 11.235s10.914-5.04 10.914-11.236c0-6.195-4.896-11.235-10.914-11.235S6.086 12.054 6.086 18.25zM17 22.595c-2.328 0-4.222-1.95-4.222-4.347 0-2.396 1.894-4.346 4.222-4.346 2.328 0 4.222 1.95 4.222 4.346 0 2.397-1.894 4.347-4.222 4.347zm-3.117-9.421l-2.487-2.56a9.099 9.099 0 014.797-1.903V12.3a5.7 5.7 0 00-2.31.873zM10.857 25.43l2.456-2.528a5.687 5.687 0 006.937.335l2.477 2.55A9.089 9.089 0 0117 27.823c-2.352 0-4.504-.904-6.143-2.393z"></path>
    </g>
    <defs>
      <clipPath id="clip0">
        <path fill="#fff" transform="translate(0 .3)" d="M0 0h34v35H0z"></path>
      </clipPath>
    </defs>
  </symbol>
  <symbol fill="none" xmlns="http://www.w3.org/2000/svg" viewBox="0 0 81 81" id="why-icon-1">
    <path d="M42.573 65.38a.666.666 0 01-1.127-.48V43.37c0-.735.596-1.332 1.332-1.332h9.026c.778 0 1.39.665 1.328 1.441-.687 8.58-4.597 16.152-10.56 21.901zM37.45 42.038h-8.972c-.792 0-1.411.687-1.325 1.474 1.002 9.237 6.3 16.72 10.472 21.3.41.448 1.157.156 1.157-.451V43.37c0-.736-.597-1.333-1.332-1.333zm-9.033-2.664h9.033c.735 0 1.332-.596 1.332-1.332V16.61a.666.666 0 00-1.13-.48c-6.163 5.985-9.908 13.553-10.564 21.807a1.333 1.333 0 001.33 1.438zM73.585.75c-4.985.056-7.998 5.576-5.362 9.797L58.24 20.53a27.076 27.076 0 00-11.912-6.242c-.645-.151-1.097.621-.643 1.102 4.087 4.33 9.392 11.938 10.13 22.754a1.329 1.329 0 001.329 1.231h8.636c.788 0 1.407-.68 1.327-1.463a27.047 27.047 0 00-6.975-15.507l9.94-9.938c4.218 2.867 9.999-.163 9.999-5.308 0-3.545-2.941-6.45-6.487-6.41zm-32.14 15.759v21.534c0 .736.597 1.332 1.333 1.332h9.026c.779 0 1.39-.665 1.329-1.441-.69-8.61-4.618-16.175-10.557-21.903a.666.666 0 00-1.13.478zm28.627 52.439l-9.941-9.94a27.034 27.034 0 006.977-15.506 1.331 1.331 0 00-1.327-1.463h-8.636c-.697 0-1.28.536-1.328 1.23-.74 10.82-6.049 18.427-10.138 22.757-.454.48-.001 1.253.643 1.102a27.093 27.093 0 0011.92-6.244l9.98 9.983c-2.643 4.234.393 9.754 5.38 9.798 3.538.032 6.47-2.87 6.47-6.41 0-5.143-5.78-8.176-10-5.307zM34.027 14.259a27.068 27.068 0 00-12.214 6.43l-9.94-9.941c2.867-4.219-.163-10-5.307-10C3.02.748.116 3.689.156 7.235c.056 4.984 5.576 7.998 9.798 5.362l9.982 9.983a27.027 27.027 0 00-6.817 15.332 1.33 1.33 0 001.327 1.462h8.628c.698 0 1.281-.538 1.328-1.235.589-8.739 4.356-16.573 10.262-22.776.457-.48.007-1.254-.637-1.104zm1.265 51.939c-4.455-4.994-9.942-13.024-10.844-22.956a1.328 1.328 0 00-1.325-1.204h-8.677c-.787 0-1.407.68-1.327 1.463a27.024 27.024 0 006.977 15.506l-9.94 9.94c-4.22-2.868-10 .163-10 5.307 0 3.546 2.941 6.45 6.486 6.41 4.985-.056 7.998-5.576 5.363-9.798l9.983-9.983a27.053 27.053 0 0012.673 6.41c.626.128 1.056-.617.631-1.095z" fill="#fff"></path>
  </symbol>
  <symbol viewBox="0 0 53 55" fill="none" xmlns="http://www.w3.org/2000/svg" id="tabs-icon-1">
    <path d="M44.9121 8.1306C39.8552 3.07352 33.1317 0.288574 25.9802 0.288574C19.3425 0.288574 12.9754 2.73549 8.05166 7.17819C4.34911 10.519 1.6829 14.7826 0.297272 19.4866L4.7259 20.4416C7.55345 11.2911 16.0564 4.81009 25.9802 4.81009C38.2501 4.81009 48.2326 14.7924 48.2326 27.0621C48.2326 39.3324 38.2501 49.3146 25.9802 49.3146V53.8363C33.1317 53.8363 39.8553 51.051 44.9121 45.9943C49.9688 40.9376 52.754 34.2141 52.754 27.0621C52.754 19.9106 49.9688 13.1874 44.9121 8.1306Z" fill="#008C95"/>
    <path d="M25.9802 13.4009C33.513 13.4009 39.6416 19.5293 39.6416 27.062C39.6416 34.595 33.5133 40.7237 25.9802 40.7237V45.2456C36.0064 45.2456 44.1634 37.0882 44.1634 27.062C44.1634 17.0359 36.0062 8.87939 25.9802 8.87939C21.6621 8.87939 17.4767 10.4198 14.1941 13.2162C11.6586 15.3767 9.77365 18.1851 8.73053 21.305L13.1827 22.2649C15.1381 17.006 20.1738 13.4009 25.9802 13.4009Z" fill="#008C95"/>
    <path d="M25.9802 21.3874C29.1093 21.3874 31.6553 23.9332 31.6553 27.0622C31.6553 30.1917 29.1093 32.7375 25.9802 32.7375V37.2594C31.6027 37.2594 36.1767 32.6849 36.1767 27.0622C36.1767 21.4401 31.6027 16.8657 25.9802 16.8657C21.9111 16.8657 18.2301 19.3094 16.6254 23.0074L21.2059 23.9951C22.2355 22.3979 24.0277 21.3874 25.9802 21.3874Z" fill="#008C95"/>
    <path d="M21.2276 37.7112C22.7259 37.7112 23.9404 36.4966 23.9404 34.9984C23.9404 33.5002 22.7259 32.2856 21.2276 32.2856C19.7294 32.2856 18.5149 33.5002 18.5149 34.9984C18.5149 36.4966 19.7294 37.7112 21.2276 37.7112Z" fill="#008C95"/>
    <path d="M21.2276 45.7728C22.7261 45.7728 23.9408 44.558 23.9408 43.0596C23.9408 41.5612 22.7261 40.3464 21.2276 40.3464C19.7292 40.3464 18.5145 41.5612 18.5145 43.0596C18.5145 44.558 19.7292 45.7728 21.2276 45.7728Z" fill="#008C95"/>
    <path d="M21.2276 54.2884C22.7259 54.2884 23.9406 53.0738 23.9406 51.5755C23.9406 50.0772 22.7259 48.8625 21.2276 48.8625C19.7294 48.8625 18.5147 50.0772 18.5147 51.5755C18.5147 53.0738 19.7294 54.2884 21.2276 54.2884Z" fill="#008C95"/>
  </symbol>

</svg>